<svg width="1182" height="1182" version="1.1" xmlns="http://www.w3.org/2000/svg" desc="Created with imagetracer.js version 1.2.6" ><path fill="rgb(0,0,0)" stroke="rgb(0,0,0)" stroke-width="1" opacity="0" d="M 0 0 L 1182 0 L 1182 1182 L 0 1182 L 0 0 Z M 146 316 L 146 868 L 1037 868 L 1037 316 L 146 316 Z " /><path fill="rgb(238,241,254)" stroke="rgb(238,241,254)" stroke-width="1" opacity="1" d="M 842.5 385 L 841.5 387 L 842.5 385 Z " /><path fill="rgb(238,241,254)" stroke="rgb(238,241,254)" stroke-width="1" opacity="1" d="M 954.5 386 L 956.5 389 L 954.5 386 Z " /><path fill="rgb(238,241,254)" stroke="rgb(238,241,254)" stroke-width="1" opacity="1" d="M 948.5 390 L 949.5 392 L 948.5 390 Z " /><path fill="rgb(238,241,254)" stroke="rgb(238,241,254)" stroke-width="1" opacity="1" d="M 843.5 393 L 836.5 401 L 843.5 393 Z " /><path fill="rgb(238,241,254)" stroke="rgb(238,241,254)" stroke-width="1" opacity="1" d="M 849.5 395 L 847.5 398 L 849.5 395 Z " /><path fill="rgb(238,241,254)" stroke="rgb(238,241,254)" stroke-width="1" opacity="1" d="M 954.5 395 L 956.5 398 L 954.5 395 Z " /><path fill="rgb(238,241,254)" stroke="rgb(238,241,254)" stroke-width="1" opacity="1" d="M 963.5 395 L 966.5 399 L 963.5 395 Z " /><path fill="rgb(238,241,254)" stroke="rgb(238,241,254)" stroke-width="1" opacity="1" d="M 859.5 396 L 858.5 398 L 859.5 396 Z " /><path fill="rgb(238,241,254)" stroke="rgb(238,241,254)" stroke-width="1" opacity="1" d="M 947.5 396 L 955.5 405 L 947.5 396 Z " /><path fill="rgb(238,241,254)" stroke="rgb(238,241,254)" stroke-width="1" opacity="1" d="M 829.5 398 L 828.5 400 L 829.5 398 Z " /><path fill="rgb(238,241,254)" stroke="rgb(238,241,254)" stroke-width="1" opacity="1" d="M 941.5 400 L 942.5 402 L 941.5 400 Z " /><path fill="rgb(238,241,254)" stroke="rgb(238,241,254)" stroke-width="1" opacity="1" d="M 968.5 401 L 969.5 403 L 968.5 401 Z " /><path fill="rgb(238,241,254)" stroke="rgb(238,241,254)" stroke-width="1" opacity="1" d="M 850.5 403 L 847.5 407 L 850.5 403 Z " /><path fill="rgb(238,241,254)" stroke="rgb(238,241,254)" stroke-width="1" opacity="1" d="M 961.5 403 L 962.5 405 L 961.5 403 Z " /><path fill="rgb(238,241,254)" stroke="rgb(238,241,254)" stroke-width="1" opacity="1" d="M 840.5 404 L 838.5 407 L 840.5 404 Z " /><path fill="rgb(238,241,254)" stroke="rgb(238,241,254)" stroke-width="1" opacity="1" d="M 964.5 407 L 965.5 409 L 964.5 407 Z " /><path fill="rgb(238,241,254)" stroke="rgb(238,241,254)" stroke-width="1" opacity="1" d="M 958.5 408 L 959.5 410 L 958.5 408 Z " /><path fill="rgb(238,241,254)" stroke="rgb(238,241,254)" stroke-width="1" opacity="1" d="M 951.5 410 L 952.5 412 L 951.5 410 Z " /><path fill="rgb(238,241,254)" stroke="rgb(238,241,254)" stroke-width="1" opacity="1" d="M 843.5 411 L 842.5 413 L 843.5 411 Z " /><path fill="rgb(238,241,254)" stroke="rgb(238,241,254)" stroke-width="1" opacity="1" d="M 462.5 415 L 464.5 418 L 462.5 415 Z " /><path fill="rgb(238,241,254)" stroke="rgb(238,241,254)" stroke-width="1" opacity="1" d="M 403.5 416 L 399.5 421 L 403.5 416 Z " /><path fill="rgb(238,241,254)" stroke="rgb(238,241,254)" stroke-width="1" opacity="1" d="M 467.5 420 L 468.5 422 L 467.5 420 Z " /><path fill="rgb(238,241,254)" stroke="rgb(238,241,254)" stroke-width="1" opacity="1" d="M 889.5 441 L 893 443.5 L 891.5 444 L 889.5 441 Z " /><path fill="rgb(238,241,254)" stroke="rgb(238,241,254)" stroke-width="1" opacity="1" d="M 437.5 442 L 438.5 444 L 437.5 442 Z " /><path fill="rgb(238,241,254)" stroke="rgb(238,241,254)" stroke-width="1" opacity="1" d="M 901.5 450 L 902.5 452 L 901.5 450 Z " /><path fill="rgb(238,241,254)" stroke="rgb(238,241,254)" stroke-width="1" opacity="1" d="M 893.5 458 L 894.5 460 L 893.5 458 Z " /><path fill="rgb(238,241,254)" stroke="rgb(238,241,254)" stroke-width="1" opacity="1" d="M 909.5 461 L 911.5 464 L 909.5 461 Z " /><path fill="rgb(238,241,254)" stroke="rgb(238,241,254)" stroke-width="1" opacity="1" d="M 844.5 499 L 846.5 502 L 844.5 499 Z " /><path fill="rgb(238,241,254)" stroke="rgb(238,241,254)" stroke-width="1" opacity="1" d="M 836.5 500 L 837.5 502 L 836.5 500 Z " /><path fill="rgb(238,241,254)" stroke="rgb(238,241,254)" stroke-width="1" opacity="1" d="M 949.5 501 L 944.5 507 L 949.5 501 Z " /><path fill="rgb(238,241,254)" stroke="rgb(238,241,254)" stroke-width="1" opacity="1" d="M 957.5 502 L 956.5 504 L 957.5 502 Z " /><path fill="rgb(238,241,254)" stroke="rgb(238,241,254)" stroke-width="1" opacity="1" d="M 833.5 505 L 835.5 508 L 833.5 505 Z " /><path fill="rgb(238,241,254)" stroke="rgb(238,241,254)" stroke-width="1" opacity="1" d="M 841.5 506 L 846.5 512 L 841.5 506 Z " /><path fill="rgb(238,241,254)" stroke="rgb(238,241,254)" stroke-width="1" opacity="1" d="M 851.5 506 L 853.5 509 L 851.5 506 Z " /><path fill="rgb(238,241,254)" stroke="rgb(238,241,254)" stroke-width="1" opacity="1" d="M 826.5 507 L 827.5 509 L 826.5 507 Z " /><path fill="rgb(238,241,254)" stroke="rgb(238,241,254)" stroke-width="1" opacity="1" d="M 960.5 507 L 957.5 511 L 960.5 507 Z " /><path fill="rgb(238,241,254)" stroke="rgb(238,241,254)" stroke-width="1" opacity="1" d="M 899.5 509 L 900.5 511 L 899.5 509 Z " /><path fill="rgb(238,241,254)" stroke="rgb(238,241,254)" stroke-width="1" opacity="1" d="M 830.5 512 L 839.5 522 L 830.5 512 Z " /><path fill="rgb(238,241,254)" stroke="rgb(238,241,254)" stroke-width="1" opacity="1" d="M 946.5 513 L 945.5 515 L 946.5 513 Z " /><path fill="rgb(238,241,254)" stroke="rgb(238,241,254)" stroke-width="1" opacity="1" d="M 850.5 514 L 851.5 516 L 850.5 514 Z " /><path fill="rgb(238,241,254)" stroke="rgb(238,241,254)" stroke-width="1" opacity="1" d="M 953.5 514 L 950.5 518 L 953.5 514 Z " /><path fill="rgb(238,241,254)" stroke="rgb(238,241,254)" stroke-width="1" opacity="1" d="M 962.5 515 L 958.5 520 L 962.5 515 Z " /><path fill="rgb(238,241,254)" stroke="rgb(238,241,254)" stroke-width="1" opacity="1" d="M 845.5 517 L 846.5 519 L 845.5 517 Z " /><path fill="rgb(238,241,254)" stroke="rgb(238,241,254)" stroke-width="1" opacity="1" d="M 854.5 517 L 855.5 519 L 854.5 517 Z " /><path fill="rgb(238,241,254)" stroke="rgb(238,241,254)" stroke-width="1" opacity="1" d="M 428.5 523 L 429.5 525 L 428.5 523 Z " /><path fill="rgb(238,241,254)" stroke="rgb(238,241,254)" stroke-width="1" opacity="1" d="M 953.5 523 L 952.5 525 L 953.5 523 Z " /><path fill="rgb(238,241,254)" stroke="rgb(238,241,254)" stroke-width="1" opacity="1" d="M 467.5 547 L 464.5 551 L 467.5 547 Z " /><path fill="rgb(238,241,254)" stroke="rgb(238,241,254)" stroke-width="1" opacity="1" d="M 403.5 610 L 404.5 612 L 403.5 610 Z " /><path fill="rgb(238,241,254)" stroke="rgb(238,241,254)" stroke-width="1" opacity="1" d="M 288.5 611 L 285.5 615 L 288.5 611 Z " /><path fill="rgb(238,241,254)" stroke="rgb(238,241,254)" stroke-width="1" opacity="1" d="M 395.5 614 L 396.5 616 L 395.5 614 Z " /><path fill="rgb(238,241,254)" stroke="rgb(238,241,254)" stroke-width="1" opacity="1" d="M 296.5 615 L 295.5 617 L 296.5 615 Z " /><path fill="rgb(238,241,254)" stroke="rgb(238,241,254)" stroke-width="1" opacity="1" d="M 280.5 619 L 277.5 623 L 280.5 619 Z " /><path fill="rgb(238,241,254)" stroke="rgb(238,241,254)" stroke-width="1" opacity="1" d="M 301.5 619 L 300.5 621 L 301.5 619 Z " /><path fill="rgb(238,241,254)" stroke="rgb(238,241,254)" stroke-width="1" opacity="1" d="M 290.5 620 L 286.5 625 L 290.5 620 Z " /><path fill="rgb(238,241,254)" stroke="rgb(238,241,254)" stroke-width="1" opacity="1" d="M 274.5 626 L 273.5 628 L 274.5 626 Z " /><path fill="rgb(238,241,254)" stroke="rgb(238,241,254)" stroke-width="1" opacity="1" d="M 387.5 626 L 388.5 628 L 387.5 626 Z " /><path fill="rgb(238,241,254)" stroke="rgb(238,241,254)" stroke-width="1" opacity="1" d="M 304.5 627 L 303.5 629 L 304.5 627 Z " /><path fill="rgb(238,241,254)" stroke="rgb(238,241,254)" stroke-width="1" opacity="1" d="M 282.5 629 L 281.5 631 L 282.5 629 Z " /><path fill="rgb(238,241,254)" stroke="rgb(238,241,254)" stroke-width="1" opacity="1" d="M 402.5 629 L 405.5 633 L 402.5 629 Z " /><path fill="rgb(238,241,254)" stroke="rgb(238,241,254)" stroke-width="1" opacity="1" d="M 393.5 631 L 396.5 635 L 393.5 631 Z " /><path fill="rgb(238,241,254)" stroke="rgb(238,241,254)" stroke-width="1" opacity="1" d="M 279.5 633 L 278.5 635 L 279.5 633 Z " /><path fill="rgb(238,241,254)" stroke="rgb(238,241,254)" stroke-width="1" opacity="1" d="M 286.5 634 L 285.5 636 L 286.5 634 Z " /><path fill="rgb(238,241,254)" stroke="rgb(238,241,254)" stroke-width="1" opacity="1" d="M 407.5 635 L 408.5 637 L 407.5 635 Z " /><path fill="rgb(238,241,254)" stroke="rgb(238,241,254)" stroke-width="1" opacity="1" d="M 294.5 637 L 293.5 639 L 294.5 637 Z " /><path fill="rgb(238,241,254)" stroke="rgb(238,241,254)" stroke-width="1" opacity="1" d="M 360.5 637 L 361 653.5 L 360 653.5 L 360.5 637 Z " /><path fill="rgb(238,241,254)" stroke="rgb(238,241,254)" stroke-width="1" opacity="1" d="M 361.5 660 L 411 660.5 L 361 661 L 361 671 L 378 671 L 378 709.5 L 377 709.5 L 377 672 L 361.5 672 L 360 670.5 L 360 661.5 L 361.5 660 Z " /><path fill="rgb(238,241,254)" stroke="rgb(238,241,254)" stroke-width="1" opacity="1" d="M 389.5 671 L 412 671.5 L 389.5 672 L 389.5 671 Z " /><path fill="rgb(238,241,254)" stroke="rgb(238,241,254)" stroke-width="1" opacity="1" d="M 481.5 707 L 483.5 710 L 481.5 707 Z " /><path fill="rgb(238,241,254)" stroke="rgb(238,241,254)" stroke-width="1" opacity="1" d="M 498.5 707 L 496.5 710 L 498.5 707 Z " /><path fill="rgb(238,241,254)" stroke="rgb(238,241,254)" stroke-width="1" opacity="1" d="M 510.5 707 L 512.5 710 L 510.5 707 Z " /><path fill="rgb(238,241,254)" stroke="rgb(238,241,254)" stroke-width="1" opacity="1" d="M 527.5 707 L 525.5 710 L 527.5 707 Z " /><path fill="rgb(238,241,254)" stroke="rgb(238,241,254)" stroke-width="1" opacity="1" d="M 467.5 708 L 466.5 710 L 467.5 708 Z " /><path fill="rgb(238,241,254)" stroke="rgb(238,241,254)" stroke-width="1" opacity="1" d="M 541.5 708 L 542.5 710 L 541.5 708 Z " /><path fill="rgb(238,241,254)" stroke="rgb(238,241,254)" stroke-width="1" opacity="1" d="M 564.5 713 L 560.5 718 L 564.5 713 Z " /><path fill="rgb(238,241,254)" stroke="rgb(238,241,254)" stroke-width="1" opacity="1" d="M 504.5 714 L 506.5 717 L 504.5 715 L 502 716.5 L 504.5 714 Z " /><path fill="rgb(238,241,254)" stroke="rgb(238,241,254)" stroke-width="1" opacity="1" d="M 444.5 715 L 443.5 717 L 444.5 715 Z " /><path fill="rgb(238,241,254)" stroke="rgb(238,241,254)" stroke-width="1" opacity="1" d="M 446.5 715 L 448.5 718 L 446.5 715 Z " /><path fill="rgb(238,241,254)" stroke="rgb(238,241,254)" stroke-width="1" opacity="1" d="M 373.5 716 L 371.5 719 L 370 718.5 L 373.5 716 Z " /><path fill="rgb(238,241,254)" stroke="rgb(238,241,254)" stroke-width="1" opacity="1" d="M 392.5 716 L 393.5 718 L 392.5 716 Z " /><path fill="rgb(238,241,254)" stroke="rgb(238,241,254)" stroke-width="1" opacity="1" d="M 361.5 718 L 361 719.5 L 360.5 726 L 360 719.5 L 361.5 718 Z " /><path fill="rgb(238,241,254)" stroke="rgb(238,241,254)" stroke-width="1" opacity="1" d="M 383.5 723 L 384.5 725 L 383.5 723 Z " /><path fill="rgb(238,241,254)" stroke="rgb(238,241,254)" stroke-width="1" opacity="1" d="M 295.5 725 L 301.5 732 L 295.5 725 Z " /><path fill="rgb(238,241,254)" stroke="rgb(238,241,254)" stroke-width="1" opacity="1" d="M 379.5 726 L 378.5 728 L 379.5 726 Z " /><path fill="rgb(238,241,254)" stroke="rgb(238,241,254)" stroke-width="1" opacity="1" d="M 388.5 727 L 391 728.5 L 389.5 729 L 388.5 727 Z " /><path fill="rgb(238,241,254)" stroke="rgb(238,241,254)" stroke-width="1" opacity="1" d="M 287.5 728 L 289.5 731 L 287.5 728 Z " /><path fill="rgb(238,241,254)" stroke="rgb(238,241,254)" stroke-width="1" opacity="1" d="M 359.5 728 L 358.5 730 L 359.5 728 Z " /><path fill="rgb(238,241,254)" stroke="rgb(238,241,254)" stroke-width="1" opacity="1" d="M 392.5 729 L 393 730.5 L 389 733.5 L 392.5 729 Z " /><path fill="rgb(238,241,254)" stroke="rgb(238,241,254)" stroke-width="1" opacity="1" d="M 411.5 731 L 410.5 733 L 411.5 731 Z " /><path fill="rgb(238,241,254)" stroke="rgb(238,241,254)" stroke-width="1" opacity="1" d="M 272.5 732 L 274 734.5 L 265 742.5 L 273 733.5 L 272.5 732 Z " /><path fill="rgb(238,241,254)" stroke="rgb(238,241,254)" stroke-width="1" opacity="1" d="M 369.5 732 L 370 744.5 L 369 744.5 L 369.5 732 Z " /><path fill="rgb(238,241,254)" stroke="rgb(238,241,254)" stroke-width="1" opacity="1" d="M 283.5 733 L 285.5 736 L 283.5 733 Z " /><path fill="rgb(238,241,254)" stroke="rgb(238,241,254)" stroke-width="1" opacity="1" d="M 401.5 733 L 399.5 736 L 401.5 733 Z " /><path fill="rgb(238,241,254)" stroke="rgb(238,241,254)" stroke-width="1" opacity="1" d="M 305.5 734 L 306.5 736 L 305.5 734 Z " /><path fill="rgb(238,241,254)" stroke="rgb(238,241,254)" stroke-width="1" opacity="1" d="M 386.5 735 L 385.5 737 L 386.5 735 Z " /><path fill="rgb(238,241,254)" stroke="rgb(238,241,254)" stroke-width="1" opacity="1" d="M 297.5 738 L 298.5 740 L 297.5 738 Z " /><path fill="rgb(238,241,254)" stroke="rgb(238,241,254)" stroke-width="1" opacity="1" d="M 414.5 740 L 409.5 746 L 414.5 740 Z " /><path fill="rgb(238,241,254)" stroke="rgb(238,241,254)" stroke-width="1" opacity="1" d="M 292.5 742 L 293.5 744 L 292.5 742 Z " /><path fill="rgb(238,241,254)" stroke="rgb(238,241,254)" stroke-width="1" opacity="1" d="M 281.5 743 L 284.5 747 L 281.5 743 Z " /><path fill="rgb(238,241,254)" stroke="rgb(238,241,254)" stroke-width="1" opacity="1" d="M 398.5 744 L 397.5 746 L 398.5 744 Z " /><path fill="rgb(238,241,254)" stroke="rgb(238,241,254)" stroke-width="1" opacity="1" d="M 297.5 746 L 298.5 748 L 297.5 746 Z " /><path fill="rgb(238,241,254)" stroke="rgb(238,241,254)" stroke-width="1" opacity="1" d="M 262.5 751 L 277 765.5 L 272.5 770 L 257 755.5 L 271.5 769 L 276 765.5 L 262.5 751 Z " /><path fill="rgb(238,241,254)" stroke="rgb(238,241,254)" stroke-width="1" opacity="1" d="M 252.5 761 L 267 775.5 L 215.5 827 L 266 775.5 L 252.5 761 Z " /><path fill="rgb(238,241,254)" stroke="rgb(238,241,254)" stroke-width="1" opacity="1" d="M 201.5 811 L 200.5 813 L 201.5 811 Z " /><path fill="rgb(238,241,254)" stroke="rgb(238,241,254)" stroke-width="1" opacity="1" d="M 201.5 825 L 202.5 827 L 201.5 825 Z " /><path fill="rgb(238,241,254)" stroke="rgb(238,241,254)" stroke-width="1" opacity="1" d="M 193.5 828 L 194.5 830 L 193.5 828 Z " /><path fill="rgb(64,103,247)" stroke="rgb(64,103,247)" stroke-width="1" opacity="1" d="M 146 316 L 1037 316 L 1037 868 L 146 868 L 146 316 Z M 161 331 L 161 853 L 1022 853 L 1022 331 L 161 331 Z " /><path fill="rgb(64,103,247)" stroke="rgb(64,103,247)" stroke-width="1" opacity="1" d="M 417 347 L 453 347 L 453 368.5 L 454.5 370 L 483 370 L 483 403 L 387 403 L 387 370 L 415.5 370 L 417 368.5 L 417 347 Z " /><path fill="rgb(64,103,247)" stroke="rgb(64,103,247)" stroke-width="1" opacity="1" d="M 202 356 L 364 356 L 364 473 L 328.5 473 L 327 471.5 L 327 389 L 202.5 389 L 202 388.5 L 202 356 Z " /><path fill="rgb(64,103,247)" stroke="rgb(64,103,247)" stroke-width="1" opacity="1" d="M 488 356 L 525 356 L 525 433.5 L 525.5 434 L 531 434 L 531 356 L 568 356 L 568 557.5 L 567.5 558 L 531 558 L 531 468.5 L 530.5 468 L 525 468 L 525 558 L 488 558 L 488 356 Z " /><path fill="rgb(64,103,247)" stroke="rgb(64,103,247)" stroke-width="1" opacity="1" d="M 597 356 L 715.5 356 L 716 356.5 L 716 390 L 690.5 390 L 690 392.5 L 716 457 L 678.5 457 L 677 455.5 L 656.5 402 L 653 408.5 L 636 457 L 597.5 457 L 597 454.5 L 624 390.5 L 598.5 390 L 597 388.5 L 597 356 Z " /><path fill="rgb(64,103,247)" stroke="rgb(64,103,247)" stroke-width="1" opacity="1" d="M 731 356 L 767.5 356 L 768 356.5 L 768 558 L 731 558 L 731 541.5 L 730.5 541 L 688 541 L 688 507 L 730.5 507 L 731 506.5 L 731 356 Z " /><path fill="rgb(64,103,247)" stroke="rgb(64,103,247)" stroke-width="1" opacity="1" d="M 886.5 367 L 909.5 367 L 931.5 373 Q 952.6 381.9 966 398.5 Q 976.4 410.6 982 427.5 L 986 447.5 L 986 462.5 L 985 463.5 L 984 474.5 L 980 487.5 Q 972 507 957.5 520 Q 946 530.5 930.5 537 L 912.5 542 L 891.5 543 L 874.5 540 L 856.5 533 Q 841.6 524.9 831 512.5 Q 818.9 499.1 813 479.5 L 810 465.5 L 810 444.5 L 814 426.5 L 819 414.5 Q 828.3 396.8 843.5 385 Q 853.4 376.9 866.5 372 L 886.5 367 Z M 894 372 L 893 373 L 880 374 L 870 377 Q 856 382 847 390 Q 823 408 816 443 L 816 468 L 818 477 Q 824 495 835 509 Q 845 519 858 527 L 874 534 L 889 537 L 908 537 L 928 532 Q 944 525 956 514 Q 975 497 980 466 L 980 445 L 978 434 Q 973 415 962 403 Q 950 389 934 380 L 912 373 L 894 372 Z " /><path fill="rgb(64,103,247)" stroke="rgb(64,103,247)" stroke-width="1" opacity="1" d="M 888.5 379 L 906.5 379 L 923.5 383 Q 943.5 390.5 956 405.5 Q 973.5 424 974 459.5 L 973 460.5 L 972 472.5 L 964 492.5 Q 956.4 505.9 944.5 515 Q 926.8 530.3 894.5 531 L 893.5 530 L 880.5 529 L 868.5 525 Q 852 518 841 505.5 Q 829.2 492.8 824 473.5 L 822 463.5 L 822 446.5 Q 827.8 412.3 850.5 395 L 869.5 384 L 888.5 379 Z M 887 385 Q 866 389 854 400 Q 834 415 828 445 L 828 452 L 842 452 L 843 456 L 840 458 L 828 458 Q 830 487 846 503 Q 855 512 867 518 L 880 523 L 891 525 Q 895 525 895 525 L 895 512 Q 896 509 900 510 L 901 513 L 901 525 L 920 522 Q 932 518 942 510 Q 964 493 968 458 L 956 458 L 955 457 Q 952 458 953 454 L 955 452 L 968 452 Q 966 424 951 409 Q 940 396 924 389 L 910 385 L 901 385 L 901 398 L 899 400 L 897 399 L 895 399 L 895 385 L 887 385 Z " /><path fill="rgb(64,103,247)" stroke="rgb(64,103,247)" stroke-width="1" opacity="1" d="M 426.5 408 L 441.5 408 L 451.5 410 Q 462.5 414 469 422.5 L 475 434.5 L 477 443.5 L 477 452.5 L 478 453.5 L 478 513.5 L 474 535.5 Q 470.5 545 463.5 551 L 455.5 556 L 444.5 559 L 422.5 559 Q 405.8 556.2 398 544.5 L 394 537.5 L 390 520.5 L 389 463.5 L 390 462.5 L 390 447.5 L 392 436.5 Q 395.1 424.1 403.5 417 L 413.5 411 L 426.5 408 Z M 432 441 L 430 442 L 426 448 Q 428 453 425 455 L 425 514 L 427 523 L 433 527 L 438 526 L 440 524 L 442 518 L 442 451 L 440 445 Q 439 440 432 441 Z " /><path fill="rgb(64,103,247)" stroke="rgb(64,103,247)" stroke-width="1" opacity="1" d="M 937.5 412 L 940 413 L 939 419.5 L 919 464.5 L 913.5 473 L 862.5 496 L 857.5 497 Q 853.3 495.3 856 493.5 L 876 446.5 L 882.5 436 L 937.5 412 Z M 931 421 L 889 440 L 892 444 L 895 443 L 902 443 L 907 446 L 910 453 Q 911 458 908 461 L 913 464 L 931 424 L 931 421 Z M 883 445 L 865 487 L 865 488 L 907 470 L 908 469 L 905 465 L 900 467 L 892 465 L 886 458 L 887 448 L 883 445 Z M 898 448 L 892 452 Q 891 460 896 461 L 902 460 Q 905 458 904 453 L 898 448 Z " /><path fill="rgb(64,103,247)" stroke="rgb(64,103,247)" stroke-width="1" opacity="1" d="M 589 466 L 721.5 466 L 722 466.5 L 722 500 L 675 500 L 675 558 L 638 558 L 638 500 L 589 500 L 589 466 Z " /><path fill="rgb(64,103,247)" stroke="rgb(64,103,247)" stroke-width="1" opacity="1" d="M 191 483 L 375.5 483 L 376 483.5 L 376 515.5 L 374.5 517 L 302 517 L 302 563 L 265 563 L 265 517 L 191 517 L 191 483 Z " /><path fill="rgb(64,103,247)" stroke="rgb(64,103,247)" stroke-width="1" opacity="1" d="M 337.5 591 L 356.5 591 L 377.5 596 Q 398.4 603.6 411.5 619 L 544.5 619 L 546 620.5 L 568 664.5 L 568 704.5 Q 566.3 712.8 560.5 717 L 555 720.5 L 555 835 L 365 835 L 365 769.5 Q 365 768.5 360.5 769 L 359.5 770 L 344.5 771 L 343.5 770 L 333.5 770 L 314.5 765 L 292.5 753 L 284 762.5 L 286 766.5 L 218.5 834 Q 213.8 837.3 204.5 836 Q 197.3 834.2 194 828.5 Q 190.1 824.4 191 815.5 L 193 809.5 L 249.5 752 L 260.5 742 L 263.5 742 L 265.5 743 L 274 733.5 Q 264.6 722 260 705.5 L 257 690.5 L 257 670.5 L 261 652.5 L 267 638.5 Q 275.8 622.3 289.5 611 L 308.5 599 L 325.5 593 L 336.5 592 L 337.5 591 Z M 338 598 L 323 601 L 315 604 L 295 616 Q 270 634 264 671 L 264 692 L 266 702 Q 272 723 285 737 Q 297 750 316 758 L 329 762 L 343 763 L 344 764 L 360 763 L 361 762 L 365 762 L 365 754 L 356 756 L 338 756 L 328 754 Q 311 749 300 740 Q 288 731 281 719 L 274 703 L 271 687 Q 271 650 290 632 Q 293 631 294 634 L 294 638 Q 287 645 283 655 L 278 675 L 278 687 L 281 702 Q 285 714 293 724 Q 308 744 338 749 L 356 749 L 359 748 L 359 730 L 361 728 L 361 720 L 373 719 L 378 712 L 378 671 L 361 671 L 361 662 L 362 661 L 412 661 Q 408 647 400 638 Q 392 626 379 621 L 376 622 L 362 652 L 361 636 L 360 635 L 361 630 L 368 617 L 364 614 L 353 613 L 352 612 Q 318 612 302 629 L 300 628 Q 297 627 298 624 Q 307 615 320 610 L 342 605 Q 373 605 390 619 L 401 619 Q 389 607 371 601 L 357 598 L 338 598 Z M 402 628 L 412 643 Q 417 650 419 661 Q 421 664 427 662 L 423 648 L 412 630 L 411 628 L 402 628 Z M 420 628 Q 430 641 434 661 L 436 662 L 556 662 L 556 660 L 541 630 L 540 628 L 420 628 Z M 421 670 L 422 673 Q 424 687 420 697 Q 418 707 424 710 L 427 703 L 429 694 L 429 671 L 429 670 L 421 670 Z M 436 670 L 436 694 L 431 712 L 438 710 L 441 705 L 441 671 L 436 670 Z M 450 670 L 450 707 L 451 709 L 457 712 L 466 711 L 471 704 L 471 670 L 450 670 Z M 479 670 L 479 705 L 480 707 L 487 712 Q 498 714 500 707 L 500 670 L 479 670 Z M 509 670 L 509 707 L 516 712 L 525 711 L 530 705 L 530 670 L 509 670 Z M 538 670 L 538 704 L 540 708 L 546 712 L 553 712 L 558 709 L 559 707 L 559 670 L 538 670 Z M 388 671 L 388 712 L 389 715 L 397 720 L 403 720 Q 410 711 413 699 L 413 671 L 388 671 Z M 416 714 L 401 734 L 386 745 L 386 746 L 398 746 L 401 744 Q 414 734 420 718 L 416 714 Z M 446 714 Q 441 719 433 721 L 428 720 L 415 740 L 410 746 L 450 746 L 450 826 L 547 826 L 547 722 L 539 718 L 535 714 Q 530 719 522 721 Q 509 721 505 714 L 499 719 L 492 721 Q 480 721 476 714 L 467 720 L 462 721 Q 450 721 446 714 Z M 384 722 Q 379 728 370 730 L 368 732 L 368 745 Q 383 742 393 731 Q 395 732 394 729 Q 387 728 384 722 Z M 279 740 L 271 748 L 271 750 L 280 757 L 287 750 L 287 748 L 285 746 L 281 742 L 279 740 Z M 381 748 L 375 751 L 373 752 L 373 759 L 382 756 L 382 749 L 381 748 Z M 262 750 L 257 756 L 273 770 L 277 766 L 262 750 Z M 399 754 L 390 759 L 390 826 L 441 826 L 441 754 L 399 754 Z M 251 761 L 201 811 L 198 816 L 199 824 L 206 829 L 215 828 L 267 776 L 253 761 L 251 761 Z M 380 764 L 373 768 L 373 826 L 374 826 L 382 826 L 382 765 L 380 764 Z " /><path fill="rgb(64,103,247)" stroke="rgb(64,103,247)" stroke-width="1" opacity="1" d="M 589 619 L 709 619 L 709 835 L 670.5 835 L 670 834.5 L 670 654 L 589 654 L 589 619 Z " /><path fill="rgb(64,103,247)" stroke="rgb(64,103,247)" stroke-width="1" opacity="1" d="M 723 619 L 762 619 L 762 701.5 L 762.5 702 L 789 702 L 789 738 L 763.5 738 L 762 739.5 L 762 835 L 723 835 L 723 619 Z " /><path fill="rgb(64,103,247)" stroke="rgb(64,103,247)" stroke-width="1" opacity="1" d="M 802 619 L 896 619 L 896 701.5 L 896.5 702 L 905 702 L 905 619 L 944 619 L 944 834.5 L 943.5 835 L 905 835 L 905 738.5 L 904.5 738 L 897.5 738 L 896 739.5 L 896 835 L 857.5 835 L 857 834.5 L 857 654 L 802 654 L 802 619 Z " /><path fill="rgb(64,103,247)" stroke="rgb(64,103,247)" stroke-width="1" opacity="1" d="M 951 619 L 989.5 619 L 990 619.5 L 990 835 L 951.5 835 L 951 834.5 L 951 619 Z " /><path fill="rgb(64,103,247)" stroke="rgb(64,103,247)" stroke-width="1" opacity="1" d="M 341 637 L 355.5 637 L 356 637.5 L 356 703 L 341.5 703 L 341 702.5 L 341 637 Z " /><path fill="rgb(64,103,247)" stroke="rgb(64,103,247)" stroke-width="1" opacity="1" d="M 341 712 L 356 712 L 356 726 L 341 726 L 341 712 Z " /><path fill="rgb(64,103,247)" stroke="rgb(64,103,247)" stroke-width="1" opacity="1" d="M 458 746 L 538 746 L 538 809 L 458 809 L 458 746 Z M 468 754 L 466 756 L 466 801 L 530 801 L 530 754 L 468 754 Z " /><path fill="rgb(180,196,251)" stroke="rgb(180,196,251)" stroke-width="1" opacity="1" d="M 417.5 346 L 452.5 346 L 454 347.5 L 454 369 L 482.5 369 L 484 370.5 L 484 402.5 L 482.5 404 L 387.5 404 L 386 402.5 L 386 370.5 L 387.5 369 L 416 369 L 416 347.5 L 417.5 346 Z M 417 347 L 417 369 L 416 370 L 387 370 L 387 403 L 483 403 L 483 370 L 455 370 L 453 369 L 453 347 L 417 347 Z " /><path fill="rgb(180,196,251)" stroke="rgb(180,196,251)" stroke-width="1" opacity="1" d="M 202.5 355 L 363.5 355 L 365 356.5 L 364.5 473 L 364 356 L 202.5 356 L 202.5 355 Z " /><path fill="rgb(180,196,251)" stroke="rgb(180,196,251)" stroke-width="1" opacity="1" d="M 488.5 355 L 524.5 355 L 526 356.5 L 526 432.5 Q 526 433.5 530.5 433 L 530.5 434 Q 525.1 434.6 525 433.5 L 525 356 L 488.5 356 L 488.5 355 Z " /><path fill="rgb(180,196,251)" stroke="rgb(180,196,251)" stroke-width="1" opacity="1" d="M 531.5 355 L 568 355.5 L 531.5 356 L 531.5 355 Z " /><path fill="rgb(180,196,251)" stroke="rgb(180,196,251)" stroke-width="1" opacity="1" d="M 598.5 355 L 716 355.5 L 598.5 356 L 598.5 355 Z " /><path fill="rgb(180,196,251)" stroke="rgb(180,196,251)" stroke-width="1" opacity="1" d="M 731.5 355 L 768 355.5 L 731.5 356 L 731.5 355 Z " /><path fill="rgb(180,196,251)" stroke="rgb(180,196,251)" stroke-width="1" opacity="1" d="M 891.5 366 L 905 366.5 L 891.5 367 L 891.5 366 Z " /><path fill="rgb(180,196,251)" stroke="rgb(180,196,251)" stroke-width="1" opacity="1" d="M 883.5 367 L 886 367.5 L 883.5 368 L 883.5 367 Z " /><path fill="rgb(180,196,251)" stroke="rgb(180,196,251)" stroke-width="1" opacity="1" d="M 910.5 367 L 913 367.5 L 910.5 368 L 910.5 367 Z " /><path fill="rgb(180,196,251)" stroke="rgb(180,196,251)" stroke-width="1" opacity="1" d="M 893.5 372 L 902 372.5 L 893.5 373 L 893.5 372 Z " /><path fill="rgb(180,196,251)" stroke="rgb(180,196,251)" stroke-width="1" opacity="1" d="M 884.5 373 L 888 373.5 L 884.5 374 L 884.5 373 Z " /><path fill="rgb(180,196,251)" stroke="rgb(180,196,251)" stroke-width="1" opacity="1" d="M 908.5 373 L 912 373.5 L 908.5 374 L 908.5 373 Z " /><path fill="rgb(180,196,251)" stroke="rgb(180,196,251)" stroke-width="1" opacity="1" d="M 914.5 374 L 917 374.5 L 914.5 375 L 914.5 374 Z " /><path fill="rgb(180,196,251)" stroke="rgb(180,196,251)" stroke-width="1" opacity="1" d="M 893.5 378 L 902 378.5 L 893.5 379 L 893.5 378 Z " /><path fill="rgb(180,196,251)" stroke="rgb(180,196,251)" stroke-width="1" opacity="1" d="M 885.5 379 L 888 379.5 L 885.5 380 L 885.5 379 Z " /><path fill="rgb(180,196,251)" stroke="rgb(180,196,251)" stroke-width="1" opacity="1" d="M 907.5 379 L 911 379.5 L 907.5 380 L 907.5 379 Z " /><path fill="rgb(180,196,251)" stroke="rgb(180,196,251)" stroke-width="1" opacity="1" d="M 913.5 380 L 916 380.5 L 913.5 381 L 913.5 380 Z " /><path fill="rgb(180,196,251)" stroke="rgb(180,196,251)" stroke-width="1" opacity="1" d="M 947.5 381 L 948.5 383 L 947.5 381 Z " /><path fill="rgb(180,196,251)" stroke="rgb(180,196,251)" stroke-width="1" opacity="1" d="M 845.5 383 L 844.5 385 L 845.5 383 Z " /><path fill="rgb(180,196,251)" stroke="rgb(180,196,251)" stroke-width="1" opacity="1" d="M 856.5 383 L 855.5 385 L 856.5 383 Z " /><path fill="rgb(180,196,251)" stroke="rgb(180,196,251)" stroke-width="1" opacity="1" d="M 951.5 384 L 952.5 386 L 951.5 384 Z " /><path fill="rgb(180,196,251)" stroke="rgb(180,196,251)" stroke-width="1" opacity="1" d="M 886.5 385 L 890 385.5 L 886.5 386 L 886.5 385 Z " /><path fill="rgb(180,196,251)" stroke="rgb(180,196,251)" stroke-width="1" opacity="1" d="M 894.5 385 L 895 396.5 L 894 396.5 L 894.5 385 Z " /><path fill="rgb(180,196,251)" stroke="rgb(180,196,251)" stroke-width="1" opacity="1" d="M 906.5 385 L 910 385.5 L 906.5 386 L 906.5 385 Z " /><path fill="rgb(180,196,251)" stroke="rgb(180,196,251)" stroke-width="1" opacity="1" d="M 840.5 387 L 830.5 398 L 840.5 387 Z " /><path fill="rgb(180,196,251)" stroke="rgb(180,196,251)" stroke-width="1" opacity="1" d="M 850.5 387 L 849.5 389 L 850.5 387 Z " /><path fill="rgb(180,196,251)" stroke="rgb(180,196,251)" stroke-width="1" opacity="1" d="M 946.5 388 L 947.5 390 L 946.5 388 Z " /><path fill="rgb(180,196,251)" stroke="rgb(180,196,251)" stroke-width="1" opacity="1" d="M 957.5 389 L 962.5 395 L 957.5 389 Z " /><path fill="rgb(180,196,251)" stroke="rgb(180,196,251)" stroke-width="1" opacity="1" d="M 846.5 390 L 844.5 393 L 846.5 390 Z " /><path fill="rgb(180,196,251)" stroke="rgb(180,196,251)" stroke-width="1" opacity="1" d="M 950.5 391 L 953.5 395 L 950.5 391 Z " /><path fill="rgb(180,196,251)" stroke="rgb(180,196,251)" stroke-width="1" opacity="1" d="M 865.5 392 L 864.5 394 L 865.5 392 Z " /><path fill="rgb(180,196,251)" stroke="rgb(180,196,251)" stroke-width="1" opacity="1" d="M 852.5 393 L 851.5 395 L 852.5 393 Z " /><path fill="rgb(180,196,251)" stroke="rgb(180,196,251)" stroke-width="1" opacity="1" d="M 944.5 394 L 946.5 397 L 944.5 394 Z " /><path fill="rgb(180,196,251)" stroke="rgb(180,196,251)" stroke-width="1" opacity="1" d="M 857.5 397 L 856.5 399 L 857.5 397 Z " /><path fill="rgb(180,196,251)" stroke="rgb(180,196,251)" stroke-width="1" opacity="1" d="M 846.5 398 L 841.5 404 L 846.5 398 Z " /><path fill="rgb(180,196,251)" stroke="rgb(180,196,251)" stroke-width="1" opacity="1" d="M 900.5 398 L 899.5 400 L 900.5 398 Z " /><path fill="rgb(180,196,251)" stroke="rgb(180,196,251)" stroke-width="1" opacity="1" d="M 939.5 398 L 940.5 400 L 939.5 398 Z " /><path fill="rgb(180,196,251)" stroke="rgb(180,196,251)" stroke-width="1" opacity="1" d="M 957.5 398 L 961.5 403 L 957.5 398 Z " /><path fill="rgb(180,196,251)" stroke="rgb(180,196,251)" stroke-width="1" opacity="1" d="M 966.5 399 L 967.5 401 L 966.5 399 Z " /><path fill="rgb(180,196,251)" stroke="rgb(180,196,251)" stroke-width="1" opacity="1" d="M 853.5 400 L 851.5 403 L 853.5 400 Z " /><path fill="rgb(180,196,251)" stroke="rgb(180,196,251)" stroke-width="1" opacity="1" d="M 827.5 401 L 826.5 403 L 827.5 401 Z " /><path fill="rgb(180,196,251)" stroke="rgb(180,196,251)" stroke-width="1" opacity="1" d="M 835.5 401 L 833.5 404 L 835.5 401 Z " /><path fill="rgb(180,196,251)" stroke="rgb(180,196,251)" stroke-width="1" opacity="1" d="M 943.5 401 L 950.5 409 L 943.5 401 Z " /><path fill="rgb(180,196,251)" stroke="rgb(180,196,251)" stroke-width="1" opacity="1" d="M 656.5 402 L 655.5 404 L 656.5 402 Z " /><path fill="rgb(180,196,251)" stroke="rgb(180,196,251)" stroke-width="1" opacity="1" d="M 969.5 403 L 970.5 405 L 969.5 403 Z " /><path fill="rgb(180,196,251)" stroke="rgb(180,196,251)" stroke-width="1" opacity="1" d="M 825.5 404 L 824.5 406 L 825.5 404 Z " /><path fill="rgb(180,196,251)" stroke="rgb(180,196,251)" stroke-width="1" opacity="1" d="M 963.5 405 L 964.5 407 L 963.5 405 Z " /><path fill="rgb(180,196,251)" stroke="rgb(180,196,251)" stroke-width="1" opacity="1" d="M 831.5 406 L 830.5 408 L 831.5 406 Z " /><path fill="rgb(180,196,251)" stroke="rgb(180,196,251)" stroke-width="1" opacity="1" d="M 956.5 406 L 957.5 408 L 956.5 406 Z " /><path fill="rgb(180,196,251)" stroke="rgb(180,196,251)" stroke-width="1" opacity="1" d="M 823.5 407 L 822.5 409 L 823.5 407 Z " /><path fill="rgb(180,196,251)" stroke="rgb(180,196,251)" stroke-width="1" opacity="1" d="M 838.5 407 L 836.5 410 L 838.5 407 Z " /><path fill="rgb(180,196,251)" stroke="rgb(180,196,251)" stroke-width="1" opacity="1" d="M 846.5 407 L 843.5 411 L 846.5 407 Z " /><path fill="rgb(180,196,251)" stroke="rgb(180,196,251)" stroke-width="1" opacity="1" d="M 422.5 408 L 426 408.5 L 422.5 409 L 422.5 408 Z " /><path fill="rgb(180,196,251)" stroke="rgb(180,196,251)" stroke-width="1" opacity="1" d="M 442.5 408 L 445 408.5 L 442.5 409 L 442.5 408 Z " /><path fill="rgb(180,196,251)" stroke="rgb(180,196,251)" stroke-width="1" opacity="1" d="M 829.5 409 L 828.5 411 L 829.5 409 Z " /><path fill="rgb(180,196,251)" stroke="rgb(180,196,251)" stroke-width="1" opacity="1" d="M 973.5 409 L 974.5 411 L 973.5 409 Z " /><path fill="rgb(180,196,251)" stroke="rgb(180,196,251)" stroke-width="1" opacity="1" d="M 959.5 410 L 960.5 412 L 959.5 410 Z " /><path fill="rgb(180,196,251)" stroke="rgb(180,196,251)" stroke-width="1" opacity="1" d="M 835.5 411 L 834.5 413 L 835.5 411 Z " /><path fill="rgb(180,196,251)" stroke="rgb(180,196,251)" stroke-width="1" opacity="1" d="M 967.5 411 L 968.5 413 L 967.5 411 Z " /><path fill="rgb(180,196,251)" stroke="rgb(180,196,251)" stroke-width="1" opacity="1" d="M 457.5 412 L 458.5 414 L 457.5 412 Z " /><path fill="rgb(180,196,251)" stroke="rgb(180,196,251)" stroke-width="1" opacity="1" d="M 953.5 412 L 954.5 414 L 953.5 412 Z " /><path fill="rgb(180,196,251)" stroke="rgb(180,196,251)" stroke-width="1" opacity="1" d="M 841.5 413 L 840.5 415 L 841.5 413 Z " /><path fill="rgb(180,196,251)" stroke="rgb(180,196,251)" stroke-width="1" opacity="1" d="M 460.5 414 L 461.5 416 L 460.5 414 Z " /><path fill="rgb(180,196,251)" stroke="rgb(180,196,251)" stroke-width="1" opacity="1" d="M 833.5 414 L 832.5 416 L 833.5 414 Z " /><path fill="rgb(180,196,251)" stroke="rgb(180,196,251)" stroke-width="1" opacity="1" d="M 405.5 415 L 404.5 417 L 405.5 415 Z " /><path fill="rgb(180,196,251)" stroke="rgb(180,196,251)" stroke-width="1" opacity="1" d="M 955.5 415 L 956.5 417 L 955.5 415 Z " /><path fill="rgb(180,196,251)" stroke="rgb(180,196,251)" stroke-width="1" opacity="1" d="M 839.5 416 L 838.5 418 L 839.5 416 Z " /><path fill="rgb(180,196,251)" stroke="rgb(180,196,251)" stroke-width="1" opacity="1" d="M 465.5 418 L 466.5 420 L 465.5 418 Z " /><path fill="rgb(180,196,251)" stroke="rgb(180,196,251)" stroke-width="1" opacity="1" d="M 957.5 418 L 958.5 420 L 957.5 418 Z " /><path fill="rgb(180,196,251)" stroke="rgb(180,196,251)" stroke-width="1" opacity="1" d="M 399.5 421 L 398.5 423 L 399.5 421 Z " /><path fill="rgb(180,196,251)" stroke="rgb(180,196,251)" stroke-width="1" opacity="1" d="M 811.5 435 L 812 437.5 L 811 437.5 L 811.5 435 Z " /><path fill="rgb(180,196,251)" stroke="rgb(180,196,251)" stroke-width="1" opacity="1" d="M 817.5 436 L 818 438.5 L 817 438.5 L 817.5 436 Z " /><path fill="rgb(180,196,251)" stroke="rgb(180,196,251)" stroke-width="1" opacity="1" d="M 881.5 436 L 880 438.5 L 879.5 440 L 879 438.5 L 881.5 436 Z " /><path fill="rgb(180,196,251)" stroke="rgb(180,196,251)" stroke-width="1" opacity="1" d="M 476.5 440 L 477 442.5 L 476 442.5 L 476.5 440 Z " /><path fill="rgb(180,196,251)" stroke="rgb(180,196,251)" stroke-width="1" opacity="1" d="M 810.5 440 L 811 443.5 L 810 443.5 L 810.5 440 Z " /><path fill="rgb(180,196,251)" stroke="rgb(180,196,251)" stroke-width="1" opacity="1" d="M 966.5 440 L 967 442.5 L 966 442.5 L 966.5 440 Z " /><path fill="rgb(180,196,251)" stroke="rgb(180,196,251)" stroke-width="1" opacity="1" d="M 429.5 442 L 428.5 444 L 429.5 442 Z " /><path fill="rgb(180,196,251)" stroke="rgb(180,196,251)" stroke-width="1" opacity="1" d="M 816.5 442 L 817 444.5 L 816 444.5 L 816.5 442 Z " /><path fill="rgb(180,196,251)" stroke="rgb(180,196,251)" stroke-width="1" opacity="1" d="M 822.5 442 L 823 445.5 L 822 445.5 L 822.5 442 Z " /><path fill="rgb(180,196,251)" stroke="rgb(180,196,251)" stroke-width="1" opacity="1" d="M 896.5 442 L 900 442.5 L 896.5 443 L 896.5 442 Z " /><path fill="rgb(180,196,251)" stroke="rgb(180,196,251)" stroke-width="1" opacity="1" d="M 985.5 442 L 986 446.5 L 985 446.5 L 985.5 442 Z " /><path fill="rgb(180,196,251)" stroke="rgb(180,196,251)" stroke-width="1" opacity="1" d="M 390.5 443 L 391 446.5 L 390 446.5 L 390.5 443 Z " /><path fill="rgb(180,196,251)" stroke="rgb(180,196,251)" stroke-width="1" opacity="1" d="M 828.5 444 L 829 447.5 L 828 447.5 L 828.5 444 Z " /><path fill="rgb(180,196,251)" stroke="rgb(180,196,251)" stroke-width="1" opacity="1" d="M 904.5 444 L 905.5 446 L 904.5 444 Z " /><path fill="rgb(180,196,251)" stroke="rgb(180,196,251)" stroke-width="1" opacity="1" d="M 973.5 444 L 974 448.5 L 973 448.5 L 973.5 444 Z " /><path fill="rgb(180,196,251)" stroke="rgb(180,196,251)" stroke-width="1" opacity="1" d="M 979.5 444 L 980 448.5 L 979 448.5 L 979.5 444 Z " /><path fill="rgb(180,196,251)" stroke="rgb(180,196,251)" stroke-width="1" opacity="1" d="M 883.5 445 L 887 447.5 L 884.5 446 L 883.5 445 Z " /><path fill="rgb(180,196,251)" stroke="rgb(180,196,251)" stroke-width="1" opacity="1" d="M 967.5 446 L 968 452 L 955 451.5 L 967 451 L 967.5 446 Z " /><path fill="rgb(180,196,251)" stroke="rgb(180,196,251)" stroke-width="1" opacity="1" d="M 426.5 447 L 427 449.5 L 426 449.5 L 426.5 447 Z " /><path fill="rgb(180,196,251)" stroke="rgb(180,196,251)" stroke-width="1" opacity="1" d="M 477.5 447 L 478 452.5 L 477 452.5 L 477.5 447 Z " /><path fill="rgb(180,196,251)" stroke="rgb(180,196,251)" stroke-width="1" opacity="1" d="M 907.5 447 L 908.5 449 L 907.5 447 Z " /><path fill="rgb(180,196,251)" stroke="rgb(180,196,251)" stroke-width="1" opacity="1" d="M 809.5 449 L 810 460.5 L 809 460.5 L 809.5 449 Z " /><path fill="rgb(180,196,251)" stroke="rgb(180,196,251)" stroke-width="1" opacity="1" d="M 894.5 449 L 892.5 452 L 894.5 449 Z " /><path fill="rgb(180,196,251)" stroke="rgb(180,196,251)" stroke-width="1" opacity="1" d="M 441.5 450 L 442 454.5 L 441 454.5 L 441.5 450 Z " /><path fill="rgb(180,196,251)" stroke="rgb(180,196,251)" stroke-width="1" opacity="1" d="M 828.5 451 L 841 451.5 L 828.5 452 L 828.5 451 Z " /><path fill="rgb(180,196,251)" stroke="rgb(180,196,251)" stroke-width="1" opacity="1" d="M 389.5 452 L 390 462.5 L 389 462.5 L 389.5 452 Z " /><path fill="rgb(180,196,251)" stroke="rgb(180,196,251)" stroke-width="1" opacity="1" d="M 821.5 453 L 822 456.5 L 821 456.5 L 821.5 453 Z " /><path fill="rgb(180,196,251)" stroke="rgb(180,196,251)" stroke-width="1" opacity="1" d="M 885.5 453 L 886 455.5 L 885 455.5 L 885.5 453 Z " /><path fill="rgb(180,196,251)" stroke="rgb(180,196,251)" stroke-width="1" opacity="1" d="M 425.5 454 L 426 513.5 L 425 513.5 L 425.5 454 Z " /><path fill="rgb(180,196,251)" stroke="rgb(180,196,251)" stroke-width="1" opacity="1" d="M 842.5 456 L 841.5 458 L 840 457.5 L 842.5 456 Z " /><path fill="rgb(180,196,251)" stroke="rgb(180,196,251)" stroke-width="1" opacity="1" d="M 902.5 458 L 901.5 460 L 902.5 458 Z " /><path fill="rgb(180,196,251)" stroke="rgb(180,196,251)" stroke-width="1" opacity="1" d="M 967.5 458 L 968 463.5 L 967 463.5 L 967.5 458 Z " /><path fill="rgb(180,196,251)" stroke="rgb(180,196,251)" stroke-width="1" opacity="1" d="M 973.5 460 L 974 464.5 L 973 464.5 L 973.5 460 Z " /><path fill="rgb(180,196,251)" stroke="rgb(180,196,251)" stroke-width="1" opacity="1" d="M 887.5 461 L 890.5 465 L 887.5 461 Z " /><path fill="rgb(180,196,251)" stroke="rgb(180,196,251)" stroke-width="1" opacity="1" d="M 979.5 461 L 980 465.5 L 979 465.5 L 979.5 461 Z " /><path fill="rgb(180,196,251)" stroke="rgb(180,196,251)" stroke-width="1" opacity="1" d="M 828.5 462 L 829 465.5 L 828 465.5 L 828.5 462 Z " /><path fill="rgb(180,196,251)" stroke="rgb(180,196,251)" stroke-width="1" opacity="1" d="M 985.5 463 L 986 466.5 L 985 466.5 L 985.5 463 Z " /><path fill="rgb(180,196,251)" stroke="rgb(180,196,251)" stroke-width="1" opacity="1" d="M 816.5 464 L 817 467.5 L 816 467.5 L 816.5 464 Z " /><path fill="rgb(180,196,251)" stroke="rgb(180,196,251)" stroke-width="1" opacity="1" d="M 822.5 464 L 823 466.5 L 822 466.5 L 822.5 464 Z " /><path fill="rgb(180,196,251)" stroke="rgb(180,196,251)" stroke-width="1" opacity="1" d="M 903.5 465 L 908 468.5 L 906 469.5 Q 908.8 467.7 904.5 466 L 903.5 465 Z " /><path fill="rgb(180,196,251)" stroke="rgb(180,196,251)" stroke-width="1" opacity="1" d="M 588.5 466 L 589 499.5 L 588 499.5 L 588.5 466 Z " /><path fill="rgb(180,196,251)" stroke="rgb(180,196,251)" stroke-width="1" opacity="1" d="M 722.5 466 L 723 499.5 L 722 499.5 L 722.5 466 Z " /><path fill="rgb(180,196,251)" stroke="rgb(180,196,251)" stroke-width="1" opacity="1" d="M 810.5 466 L 811 468.5 L 810 468.5 L 810.5 466 Z " /><path fill="rgb(180,196,251)" stroke="rgb(180,196,251)" stroke-width="1" opacity="1" d="M 966.5 467 L 967 469.5 L 966 469.5 L 966.5 467 Z " /><path fill="rgb(180,196,251)" stroke="rgb(180,196,251)" stroke-width="1" opacity="1" d="M 525.5 468 L 526 557.5 L 524.5 559 L 488.5 559 L 488.5 558 L 525 558 L 525.5 468 Z " /><path fill="rgb(180,196,251)" stroke="rgb(180,196,251)" stroke-width="1" opacity="1" d="M 972.5 468 L 973 470.5 L 972 470.5 L 972.5 468 Z " /><path fill="rgb(180,196,251)" stroke="rgb(180,196,251)" stroke-width="1" opacity="1" d="M 978.5 469 L 979 471.5 L 978 471.5 L 978.5 469 Z " /><path fill="rgb(180,196,251)" stroke="rgb(180,196,251)" stroke-width="1" opacity="1" d="M 984.5 470 L 985 472.5 L 984 472.5 L 984.5 470 Z " /><path fill="rgb(180,196,251)" stroke="rgb(180,196,251)" stroke-width="1" opacity="1" d="M 915.5 471 L 914.5 473 L 915.5 471 Z " /><path fill="rgb(180,196,251)" stroke="rgb(180,196,251)" stroke-width="1" opacity="1" d="M 191.5 482 L 376 482.5 L 191.5 483 L 191.5 482 Z " /><path fill="rgb(180,196,251)" stroke="rgb(180,196,251)" stroke-width="1" opacity="1" d="M 864.5 487 L 867 487.5 L 864.5 488 L 864.5 487 Z " /><path fill="rgb(180,196,251)" stroke="rgb(180,196,251)" stroke-width="1" opacity="1" d="M 837.5 490 L 838.5 492 L 837.5 490 Z " /><path fill="rgb(180,196,251)" stroke="rgb(180,196,251)" stroke-width="1" opacity="1" d="M 957.5 491 L 956.5 493 L 957.5 491 Z " /><path fill="rgb(180,196,251)" stroke="rgb(180,196,251)" stroke-width="1" opacity="1" d="M 839.5 493 L 840.5 495 L 839.5 493 Z " /><path fill="rgb(180,196,251)" stroke="rgb(180,196,251)" stroke-width="1" opacity="1" d="M 963.5 493 L 962.5 495 L 963.5 493 Z " /><path fill="rgb(180,196,251)" stroke="rgb(180,196,251)" stroke-width="1" opacity="1" d="M 970.5 493 L 969.5 495 L 970.5 493 Z " /><path fill="rgb(180,196,251)" stroke="rgb(180,196,251)" stroke-width="1" opacity="1" d="M 955.5 494 L 954.5 496 L 955.5 494 Z " /><path fill="rgb(180,196,251)" stroke="rgb(180,196,251)" stroke-width="1" opacity="1" d="M 833.5 495 L 834.5 497 L 833.5 495 Z " /><path fill="rgb(180,196,251)" stroke="rgb(180,196,251)" stroke-width="1" opacity="1" d="M 855.5 495 L 856.5 497 L 855.5 495 Z " /><path fill="rgb(180,196,251)" stroke="rgb(180,196,251)" stroke-width="1" opacity="1" d="M 841.5 496 L 843.5 499 L 841.5 496 Z " /><path fill="rgb(180,196,251)" stroke="rgb(180,196,251)" stroke-width="1" opacity="1" d="M 961.5 496 L 960.5 498 L 961.5 496 Z " /><path fill="rgb(180,196,251)" stroke="rgb(180,196,251)" stroke-width="1" opacity="1" d="M 827.5 497 L 828.5 499 L 827.5 497 Z " /><path fill="rgb(180,196,251)" stroke="rgb(180,196,251)" stroke-width="1" opacity="1" d="M 835.5 498 L 836.5 500 L 835.5 498 Z " /><path fill="rgb(180,196,251)" stroke="rgb(180,196,251)" stroke-width="1" opacity="1" d="M 952.5 498 L 950.5 501 L 952.5 498 Z " /><path fill="rgb(180,196,251)" stroke="rgb(180,196,251)" stroke-width="1" opacity="1" d="M 967.5 498 L 966.5 500 L 967.5 498 Z " /><path fill="rgb(180,196,251)" stroke="rgb(180,196,251)" stroke-width="1" opacity="1" d="M 821.5 499 L 822.5 501 L 821.5 499 Z " /><path fill="rgb(180,196,251)" stroke="rgb(180,196,251)" stroke-width="1" opacity="1" d="M 959.5 499 L 958.5 501 L 959.5 499 Z " /><path fill="rgb(180,196,251)" stroke="rgb(180,196,251)" stroke-width="1" opacity="1" d="M 675.5 500 L 676 557.5 L 674.5 559 L 638.5 559 L 638.5 558 L 675 558 L 675.5 500 Z " /><path fill="rgb(180,196,251)" stroke="rgb(180,196,251)" stroke-width="1" opacity="1" d="M 829.5 500 L 830.5 502 L 829.5 500 Z " /><path fill="rgb(180,196,251)" stroke="rgb(180,196,251)" stroke-width="1" opacity="1" d="M 973.5 500 L 972.5 502 L 973.5 500 Z " /><path fill="rgb(180,196,251)" stroke="rgb(180,196,251)" stroke-width="1" opacity="1" d="M 965.5 501 L 964.5 503 L 965.5 501 Z " /><path fill="rgb(180,196,251)" stroke="rgb(180,196,251)" stroke-width="1" opacity="1" d="M 838.5 502 L 840.5 505 L 838.5 502 Z " /><path fill="rgb(180,196,251)" stroke="rgb(180,196,251)" stroke-width="1" opacity="1" d="M 846.5 502 L 849.5 506 L 846.5 502 Z " /><path fill="rgb(180,196,251)" stroke="rgb(180,196,251)" stroke-width="1" opacity="1" d="M 831.5 503 L 832.5 505 L 831.5 503 Z " /><path fill="rgb(180,196,251)" stroke="rgb(180,196,251)" stroke-width="1" opacity="1" d="M 955.5 504 L 947.5 513 L 955.5 504 Z " /><path fill="rgb(180,196,251)" stroke="rgb(180,196,251)" stroke-width="1" opacity="1" d="M 389.5 505 L 390 515.5 L 389 515.5 L 389.5 505 Z " /><path fill="rgb(180,196,251)" stroke="rgb(180,196,251)" stroke-width="1" opacity="1" d="M 825.5 505 L 826.5 507 L 825.5 505 Z " /><path fill="rgb(180,196,251)" stroke="rgb(180,196,251)" stroke-width="1" opacity="1" d="M 962.5 505 L 961.5 507 L 962.5 505 Z " /><path fill="rgb(180,196,251)" stroke="rgb(180,196,251)" stroke-width="1" opacity="1" d="M 969.5 506 L 968.5 508 L 969.5 506 Z " /><path fill="rgb(180,196,251)" stroke="rgb(180,196,251)" stroke-width="1" opacity="1" d="M 943.5 507 L 941.5 510 L 943.5 507 Z " /><path fill="rgb(180,196,251)" stroke="rgb(180,196,251)" stroke-width="1" opacity="1" d="M 835.5 508 L 843.5 517 L 835.5 508 Z " /><path fill="rgb(180,196,251)" stroke="rgb(180,196,251)" stroke-width="1" opacity="1" d="M 828.5 509 L 830.5 512 L 828.5 509 Z " /><path fill="rgb(180,196,251)" stroke="rgb(180,196,251)" stroke-width="1" opacity="1" d="M 854.5 509 L 855.5 511 L 854.5 509 Z " /><path fill="rgb(180,196,251)" stroke="rgb(180,196,251)" stroke-width="1" opacity="1" d="M 966.5 510 L 963.5 514 L 966.5 510 Z " /><path fill="rgb(180,196,251)" stroke="rgb(180,196,251)" stroke-width="1" opacity="1" d="M 847.5 511 L 849.5 514 L 847.5 511 Z " /><path fill="rgb(180,196,251)" stroke="rgb(180,196,251)" stroke-width="1" opacity="1" d="M 938.5 511 L 937.5 513 L 938.5 511 Z " /><path fill="rgb(180,196,251)" stroke="rgb(180,196,251)" stroke-width="1" opacity="1" d="M 957.5 511 L 955.5 514 L 957.5 511 Z " /><path fill="rgb(180,196,251)" stroke="rgb(180,196,251)" stroke-width="1" opacity="1" d="M 441.5 512 L 442 517.5 L 441 517.5 L 441.5 512 Z " /><path fill="rgb(180,196,251)" stroke="rgb(180,196,251)" stroke-width="1" opacity="1" d="M 894.5 512 L 895 525 L 890 524.5 L 894 524 L 894.5 512 Z " /><path fill="rgb(180,196,251)" stroke="rgb(180,196,251)" stroke-width="1" opacity="1" d="M 935.5 513 L 934.5 515 L 935.5 513 Z " /><path fill="rgb(180,196,251)" stroke="rgb(180,196,251)" stroke-width="1" opacity="1" d="M 477.5 514 L 478 519.5 L 477 519.5 L 477.5 514 Z " /><path fill="rgb(180,196,251)" stroke="rgb(180,196,251)" stroke-width="1" opacity="1" d="M 943.5 515 L 942.5 517 L 943.5 515 Z " /><path fill="rgb(180,196,251)" stroke="rgb(180,196,251)" stroke-width="1" opacity="1" d="M 865.5 516 L 866.5 518 L 865.5 516 Z " /><path fill="rgb(180,196,251)" stroke="rgb(180,196,251)" stroke-width="1" opacity="1" d="M 940.5 517 L 939.5 519 L 940.5 517 Z " /><path fill="rgb(180,196,251)" stroke="rgb(180,196,251)" stroke-width="1" opacity="1" d="M 949.5 518 L 948.5 520 L 949.5 518 Z " /><path fill="rgb(180,196,251)" stroke="rgb(180,196,251)" stroke-width="1" opacity="1" d="M 847.5 519 L 848.5 521 L 847.5 519 Z " /><path fill="rgb(180,196,251)" stroke="rgb(180,196,251)" stroke-width="1" opacity="1" d="M 937.5 519 L 936.5 521 L 937.5 519 Z " /><path fill="rgb(180,196,251)" stroke="rgb(180,196,251)" stroke-width="1" opacity="1" d="M 956.5 520 L 954.5 523 L 956.5 520 Z " /><path fill="rgb(180,196,251)" stroke="rgb(180,196,251)" stroke-width="1" opacity="1" d="M 390.5 521 L 391 524.5 L 390 524.5 L 390.5 521 Z " /><path fill="rgb(180,196,251)" stroke="rgb(180,196,251)" stroke-width="1" opacity="1" d="M 945.5 521 L 944.5 523 L 945.5 521 Z " /><path fill="rgb(180,196,251)" stroke="rgb(180,196,251)" stroke-width="1" opacity="1" d="M 841.5 522 L 843.5 525 L 841.5 522 Z " /><path fill="rgb(180,196,251)" stroke="rgb(180,196,251)" stroke-width="1" opacity="1" d="M 851.5 522 L 852.5 524 L 851.5 522 Z " /><path fill="rgb(180,196,251)" stroke="rgb(180,196,251)" stroke-width="1" opacity="1" d="M 439.5 523 L 437.5 526 L 439.5 523 Z " /><path fill="rgb(180,196,251)" stroke="rgb(180,196,251)" stroke-width="1" opacity="1" d="M 909.5 523 L 912 523.5 L 909.5 524 L 909.5 523 Z " /><path fill="rgb(180,196,251)" stroke="rgb(180,196,251)" stroke-width="1" opacity="1" d="M 942.5 523 L 941.5 525 L 942.5 523 Z " /><path fill="rgb(180,196,251)" stroke="rgb(180,196,251)" stroke-width="1" opacity="1" d="M 476.5 524 L 477 526.5 L 476 526.5 L 476.5 524 Z " /><path fill="rgb(180,196,251)" stroke="rgb(180,196,251)" stroke-width="1" opacity="1" d="M 901.5 524 L 906 524.5 L 901.5 525 L 901.5 524 Z " /><path fill="rgb(180,196,251)" stroke="rgb(180,196,251)" stroke-width="1" opacity="1" d="M 856.5 525 L 857.5 527 L 856.5 525 Z " /><path fill="rgb(180,196,251)" stroke="rgb(180,196,251)" stroke-width="1" opacity="1" d="M 950.5 525 L 949.5 527 L 950.5 525 Z " /><path fill="rgb(180,196,251)" stroke="rgb(180,196,251)" stroke-width="1" opacity="1" d="M 432.5 526 L 436 526.5 L 432.5 527 L 432.5 526 Z " /><path fill="rgb(180,196,251)" stroke="rgb(180,196,251)" stroke-width="1" opacity="1" d="M 846.5 526 L 847.5 528 L 846.5 526 Z " /><path fill="rgb(180,196,251)" stroke="rgb(180,196,251)" stroke-width="1" opacity="1" d="M 947.5 527 L 946.5 529 L 947.5 527 Z " /><path fill="rgb(180,196,251)" stroke="rgb(180,196,251)" stroke-width="1" opacity="1" d="M 849.5 528 L 850.5 530 L 849.5 528 Z " /><path fill="rgb(180,196,251)" stroke="rgb(180,196,251)" stroke-width="1" opacity="1" d="M 882.5 529 L 885 529.5 L 882.5 530 L 882.5 529 Z " /><path fill="rgb(180,196,251)" stroke="rgb(180,196,251)" stroke-width="1" opacity="1" d="M 944.5 529 L 943.5 531 L 944.5 529 Z " /><path fill="rgb(180,196,251)" stroke="rgb(180,196,251)" stroke-width="1" opacity="1" d="M 888.5 530 L 894 530.5 L 888.5 531 L 888.5 530 Z " /><path fill="rgb(180,196,251)" stroke="rgb(180,196,251)" stroke-width="1" opacity="1" d="M 902.5 530 L 907 530.5 L 902.5 531 L 902.5 530 Z " /><path fill="rgb(180,196,251)" stroke="rgb(180,196,251)" stroke-width="1" opacity="1" d="M 881.5 535 L 884 535.5 L 881.5 536 L 881.5 535 Z " /><path fill="rgb(180,196,251)" stroke="rgb(180,196,251)" stroke-width="1" opacity="1" d="M 888.5 536 L 894 536.5 L 888.5 537 L 888.5 536 Z " /><path fill="rgb(180,196,251)" stroke="rgb(180,196,251)" stroke-width="1" opacity="1" d="M 902.5 536 L 908 536.5 L 902.5 537 L 902.5 536 Z " /><path fill="rgb(180,196,251)" stroke="rgb(180,196,251)" stroke-width="1" opacity="1" d="M 880.5 541 L 883 541.5 L 880.5 542 L 880.5 541 Z " /><path fill="rgb(180,196,251)" stroke="rgb(180,196,251)" stroke-width="1" opacity="1" d="M 396.5 542 L 397.5 544 L 396.5 542 Z " /><path fill="rgb(180,196,251)" stroke="rgb(180,196,251)" stroke-width="1" opacity="1" d="M 886.5 542 L 891 542.5 L 886.5 543 L 886.5 542 Z " /><path fill="rgb(180,196,251)" stroke="rgb(180,196,251)" stroke-width="1" opacity="1" d="M 905.5 542 L 909 542.5 L 905.5 543 L 905.5 542 Z " /><path fill="rgb(180,196,251)" stroke="rgb(180,196,251)" stroke-width="1" opacity="1" d="M 469.5 544 L 467.5 547 L 469.5 544 Z " /><path fill="rgb(180,196,251)" stroke="rgb(180,196,251)" stroke-width="1" opacity="1" d="M 398.5 545 L 404.5 552 L 398.5 545 Z " /><path fill="rgb(180,196,251)" stroke="rgb(180,196,251)" stroke-width="1" opacity="1" d="M 462.5 551 L 461.5 553 L 462.5 551 Z " /><path fill="rgb(180,196,251)" stroke="rgb(180,196,251)" stroke-width="1" opacity="1" d="M 459.5 553 L 458.5 555 L 459.5 553 Z " /><path fill="rgb(180,196,251)" stroke="rgb(180,196,251)" stroke-width="1" opacity="1" d="M 445.5 558 L 448 558.5 L 445.5 559 L 445.5 558 Z " /><path fill="rgb(180,196,251)" stroke="rgb(180,196,251)" stroke-width="1" opacity="1" d="M 531.5 558 L 568 558.5 L 531.5 559 L 531.5 558 Z " /><path fill="rgb(180,196,251)" stroke="rgb(180,196,251)" stroke-width="1" opacity="1" d="M 731.5 558 L 768 558.5 L 731.5 559 L 731.5 558 Z " /><path fill="rgb(180,196,251)" stroke="rgb(180,196,251)" stroke-width="1" opacity="1" d="M 426.5 559 L 442 559.5 L 426.5 560 L 426.5 559 Z " /><path fill="rgb(180,196,251)" stroke="rgb(180,196,251)" stroke-width="1" opacity="1" d="M 343.5 590 L 350 590.5 L 343.5 591 L 343.5 590 Z " /><path fill="rgb(180,196,251)" stroke="rgb(180,196,251)" stroke-width="1" opacity="1" d="M 333.5 591 L 337 591.5 L 333.5 592 L 333.5 591 Z " /><path fill="rgb(180,196,251)" stroke="rgb(180,196,251)" stroke-width="1" opacity="1" d="M 357.5 591 L 360 591.5 L 357.5 592 L 357.5 591 Z " /><path fill="rgb(180,196,251)" stroke="rgb(180,196,251)" stroke-width="1" opacity="1" d="M 363.5 592 L 366 592.5 L 363.5 593 L 363.5 592 Z " /><path fill="rgb(180,196,251)" stroke="rgb(180,196,251)" stroke-width="1" opacity="1" d="M 337.5 598 L 343 598.5 L 337.5 599 L 337.5 598 Z " /><path fill="rgb(180,196,251)" stroke="rgb(180,196,251)" stroke-width="1" opacity="1" d="M 351.5 598 L 357 598.5 L 351.5 599 L 351.5 598 Z " /><path fill="rgb(180,196,251)" stroke="rgb(180,196,251)" stroke-width="1" opacity="1" d="M 330.5 599 L 333 599.5 L 330.5 600 L 330.5 599 Z " /><path fill="rgb(180,196,251)" stroke="rgb(180,196,251)" stroke-width="1" opacity="1" d="M 360.5 599 L 363 599.5 L 360.5 600 L 360.5 599 Z " /><path fill="rgb(180,196,251)" stroke="rgb(180,196,251)" stroke-width="1" opacity="1" d="M 303.5 601 L 302.5 603 L 303.5 601 Z " /><path fill="rgb(180,196,251)" stroke="rgb(180,196,251)" stroke-width="1" opacity="1" d="M 391.5 602 L 392.5 604 L 391.5 602 Z " /><path fill="rgb(180,196,251)" stroke="rgb(180,196,251)" stroke-width="1" opacity="1" d="M 298.5 604 L 297.5 606 L 298.5 604 Z " /><path fill="rgb(180,196,251)" stroke="rgb(180,196,251)" stroke-width="1" opacity="1" d="M 337.5 605 L 341 605.5 L 337.5 606 L 337.5 605 Z " /><path fill="rgb(180,196,251)" stroke="rgb(180,196,251)" stroke-width="1" opacity="1" d="M 352.5 605 L 357 605.5 L 352.5 606 L 352.5 605 Z " /><path fill="rgb(180,196,251)" stroke="rgb(180,196,251)" stroke-width="1" opacity="1" d="M 295.5 606 L 294.5 608 L 295.5 606 Z " /><path fill="rgb(180,196,251)" stroke="rgb(180,196,251)" stroke-width="1" opacity="1" d="M 400.5 608 L 401.5 610 L 400.5 608 Z " /><path fill="rgb(180,196,251)" stroke="rgb(180,196,251)" stroke-width="1" opacity="1" d="M 291.5 609 L 290.5 611 L 291.5 609 Z " /><path fill="rgb(180,196,251)" stroke="rgb(180,196,251)" stroke-width="1" opacity="1" d="M 304.5 609 L 303.5 611 L 304.5 609 Z " /><path fill="rgb(180,196,251)" stroke="rgb(180,196,251)" stroke-width="1" opacity="1" d="M 301.5 611 L 300.5 613 L 301.5 611 Z " /><path fill="rgb(180,196,251)" stroke="rgb(180,196,251)" stroke-width="1" opacity="1" d="M 341.5 612 L 352 612.5 L 341.5 613 L 341.5 612 Z " /><path fill="rgb(180,196,251)" stroke="rgb(180,196,251)" stroke-width="1" opacity="1" d="M 393.5 612 L 394.5 614 L 393.5 612 Z " /><path fill="rgb(180,196,251)" stroke="rgb(180,196,251)" stroke-width="1" opacity="1" d="M 405.5 612 L 411.5 619 L 405.5 612 Z " /><path fill="rgb(180,196,251)" stroke="rgb(180,196,251)" stroke-width="1" opacity="1" d="M 298.5 613 L 297.5 615 L 298.5 613 Z " /><path fill="rgb(180,196,251)" stroke="rgb(180,196,251)" stroke-width="1" opacity="1" d="M 334.5 613 L 337 613.5 L 334.5 614 L 334.5 613 Z " /><path fill="rgb(180,196,251)" stroke="rgb(180,196,251)" stroke-width="1" opacity="1" d="M 357.5 613 L 360 613.5 L 357.5 614 L 357.5 613 Z " /><path fill="rgb(180,196,251)" stroke="rgb(180,196,251)" stroke-width="1" opacity="1" d="M 383.5 614 L 384.5 616 L 383.5 614 Z " /><path fill="rgb(180,196,251)" stroke="rgb(180,196,251)" stroke-width="1" opacity="1" d="M 284.5 615 L 281.5 619 L 284.5 615 Z " /><path fill="rgb(180,196,251)" stroke="rgb(180,196,251)" stroke-width="1" opacity="1" d="M 366.5 615 L 368 617.5 L 363.5 625 L 364 623.5 L 367 616.5 L 366.5 615 Z " /><path fill="rgb(180,196,251)" stroke="rgb(180,196,251)" stroke-width="1" opacity="1" d="M 397.5 615 L 399.5 618 L 397.5 615 Z " /><path fill="rgb(180,196,251)" stroke="rgb(180,196,251)" stroke-width="1" opacity="1" d="M 294.5 616 L 291.5 620 L 294.5 616 Z " /><path fill="rgb(180,196,251)" stroke="rgb(180,196,251)" stroke-width="1" opacity="1" d="M 306.5 616 L 305.5 618 L 306.5 616 Z " /><path fill="rgb(180,196,251)" stroke="rgb(180,196,251)" stroke-width="1" opacity="1" d="M 303.5 618 L 302.5 620 L 303.5 618 Z " /><path fill="rgb(180,196,251)" stroke="rgb(180,196,251)" stroke-width="1" opacity="1" d="M 588.5 619 L 589 654 L 670 654 L 670 834.5 L 669 834.5 L 669 655 L 589.5 655 L 588 653.5 L 588.5 619 Z " /><path fill="rgb(180,196,251)" stroke="rgb(180,196,251)" stroke-width="1" opacity="1" d="M 709.5 619 L 710 834.5 L 709 834.5 L 709.5 619 Z " /><path fill="rgb(180,196,251)" stroke="rgb(180,196,251)" stroke-width="1" opacity="1" d="M 762.5 619 L 763 701.5 L 762 701.5 L 762.5 619 Z " /><path fill="rgb(180,196,251)" stroke="rgb(180,196,251)" stroke-width="1" opacity="1" d="M 801.5 619 L 802 654 L 856.5 654 L 857 654.5 L 857 834.5 L 856 834.5 L 856 655.5 L 855.5 655 L 802.5 655 L 801 653.5 L 801.5 619 Z " /><path fill="rgb(180,196,251)" stroke="rgb(180,196,251)" stroke-width="1" opacity="1" d="M 896.5 619 L 897 701.5 L 896 701.5 L 896.5 619 Z " /><path fill="rgb(180,196,251)" stroke="rgb(180,196,251)" stroke-width="1" opacity="1" d="M 904.5 619 L 905 701.5 L 904 701.5 L 904.5 619 Z " /><path fill="rgb(180,196,251)" stroke="rgb(180,196,251)" stroke-width="1" opacity="1" d="M 944.5 619 L 945 834.5 L 944 834.5 L 944.5 619 Z " /><path fill="rgb(180,196,251)" stroke="rgb(180,196,251)" stroke-width="1" opacity="1" d="M 950.5 619 L 951 834.5 L 950 834.5 L 950.5 619 Z " /><path fill="rgb(180,196,251)" stroke="rgb(180,196,251)" stroke-width="1" opacity="1" d="M 990.5 619 L 991 834.5 L 990 834.5 L 990.5 619 Z " /><path fill="rgb(180,196,251)" stroke="rgb(180,196,251)" stroke-width="1" opacity="1" d="M 299.5 621 L 298.5 623 L 299.5 621 Z " /><path fill="rgb(180,196,251)" stroke="rgb(180,196,251)" stroke-width="1" opacity="1" d="M 312.5 621 L 311.5 623 L 312.5 621 Z " /><path fill="rgb(180,196,251)" stroke="rgb(180,196,251)" stroke-width="1" opacity="1" d="M 276.5 624 L 275.5 626 L 276.5 624 Z " /><path fill="rgb(180,196,251)" stroke="rgb(180,196,251)" stroke-width="1" opacity="1" d="M 385.5 624 L 386.5 626 L 385.5 624 Z " /><path fill="rgb(180,196,251)" stroke="rgb(180,196,251)" stroke-width="1" opacity="1" d="M 285.5 625 L 282.5 629 L 285.5 625 Z " /><path fill="rgb(180,196,251)" stroke="rgb(180,196,251)" stroke-width="1" opacity="1" d="M 306.5 625 L 305.5 627 L 306.5 625 Z " /><path fill="rgb(180,196,251)" stroke="rgb(180,196,251)" stroke-width="1" opacity="1" d="M 374.5 626 L 374 627.5 L 369.5 637 L 369 635.5 L 374.5 626 Z " /><path fill="rgb(180,196,251)" stroke="rgb(180,196,251)" stroke-width="1" opacity="1" d="M 298.5 627 L 301 628.5 L 299.5 629 L 298.5 627 Z " /><path fill="rgb(180,196,251)" stroke="rgb(180,196,251)" stroke-width="1" opacity="1" d="M 389.5 627 L 392.5 631 L 389.5 627 Z " /><path fill="rgb(180,196,251)" stroke="rgb(180,196,251)" stroke-width="1" opacity="1" d="M 273.5 628 L 272.5 630 L 273.5 628 Z " /><path fill="rgb(180,196,251)" stroke="rgb(180,196,251)" stroke-width="1" opacity="1" d="M 410.5 628 L 411.5 630 L 410.5 628 Z " /><path fill="rgb(180,196,251)" stroke="rgb(180,196,251)" stroke-width="1" opacity="1" d="M 420.5 629 L 421.5 631 L 420.5 629 Z " /><path fill="rgb(180,196,251)" stroke="rgb(180,196,251)" stroke-width="1" opacity="1" d="M 360.5 630 L 361 631.5 L 359.5 634 L 359 632.5 L 360.5 630 Z " /><path fill="rgb(180,196,251)" stroke="rgb(180,196,251)" stroke-width="1" opacity="1" d="M 271.5 631 L 270.5 633 L 271.5 631 Z " /><path fill="rgb(180,196,251)" stroke="rgb(180,196,251)" stroke-width="1" opacity="1" d="M 280.5 631 L 279.5 633 L 280.5 631 Z " /><path fill="rgb(180,196,251)" stroke="rgb(180,196,251)" stroke-width="1" opacity="1" d="M 288.5 632 L 287.5 634 L 288.5 632 Z " /><path fill="rgb(180,196,251)" stroke="rgb(180,196,251)" stroke-width="1" opacity="1" d="M 293.5 632 Q 295.8 632.8 295 636.5 L 294 636.5 L 293.5 632 Z " /><path fill="rgb(180,196,251)" stroke="rgb(180,196,251)" stroke-width="1" opacity="1" d="M 413.5 632 L 414.5 634 L 413.5 632 Z " /><path fill="rgb(180,196,251)" stroke="rgb(180,196,251)" stroke-width="1" opacity="1" d="M 422.5 632 L 423.5 634 L 422.5 632 Z " /><path fill="rgb(180,196,251)" stroke="rgb(180,196,251)" stroke-width="1" opacity="1" d="M 405.5 633 L 406.5 635 L 405.5 633 Z " /><path fill="rgb(180,196,251)" stroke="rgb(180,196,251)" stroke-width="1" opacity="1" d="M 397.5 635 L 399.5 638 L 397.5 635 Z " /><path fill="rgb(180,196,251)" stroke="rgb(180,196,251)" stroke-width="1" opacity="1" d="M 415.5 635 L 416.5 637 L 415.5 635 Z " /><path fill="rgb(180,196,251)" stroke="rgb(180,196,251)" stroke-width="1" opacity="1" d="M 268.5 636 L 267.5 638 L 268.5 636 Z " /><path fill="rgb(180,196,251)" stroke="rgb(180,196,251)" stroke-width="1" opacity="1" d="M 285.5 636 L 284.5 638 L 285.5 636 Z " /><path fill="rgb(180,196,251)" stroke="rgb(180,196,251)" stroke-width="1" opacity="1" d="M 276.5 637 L 275.5 639 L 276.5 637 Z " /><path fill="rgb(180,196,251)" stroke="rgb(180,196,251)" stroke-width="1" opacity="1" d="M 340.5 637 L 341 703 L 356 703.5 L 340 704 L 340.5 637 Z " /><path fill="rgb(180,196,251)" stroke="rgb(180,196,251)" stroke-width="1" opacity="1" d="M 408.5 637 L 409.5 639 L 408.5 637 Z " /><path fill="rgb(180,196,251)" stroke="rgb(180,196,251)" stroke-width="1" opacity="1" d="M 283.5 639 L 282.5 641 L 283.5 639 Z " /><path fill="rgb(180,196,251)" stroke="rgb(180,196,251)" stroke-width="1" opacity="1" d="M 292.5 639 L 291.5 641 L 292.5 639 Z " /><path fill="rgb(180,196,251)" stroke="rgb(180,196,251)" stroke-width="1" opacity="1" d="M 367.5 640 L 367 641.5 L 362.5 651 L 362 649.5 L 367.5 640 Z " /><path fill="rgb(180,196,251)" stroke="rgb(180,196,251)" stroke-width="1" opacity="1" d="M 401.5 640 L 402.5 642 L 401.5 640 Z " /><path fill="rgb(180,196,251)" stroke="rgb(180,196,251)" stroke-width="1" opacity="1" d="M 410.5 640 L 411.5 642 L 410.5 640 Z " /><path fill="rgb(180,196,251)" stroke="rgb(180,196,251)" stroke-width="1" opacity="1" d="M 403.5 643 L 404.5 645 L 403.5 643 Z " /><path fill="rgb(180,196,251)" stroke="rgb(180,196,251)" stroke-width="1" opacity="1" d="M 280.5 644 L 279.5 646 L 280.5 644 Z " /><path fill="rgb(180,196,251)" stroke="rgb(180,196,251)" stroke-width="1" opacity="1" d="M 288.5 645 L 287.5 647 L 288.5 645 Z " /><path fill="rgb(180,196,251)" stroke="rgb(180,196,251)" stroke-width="1" opacity="1" d="M 419.5 660 L 427 661.5 L 420.5 662 L 419.5 660 Z " /><path fill="rgb(180,196,251)" stroke="rgb(180,196,251)" stroke-width="1" opacity="1" d="M 434.5 660 L 435.5 661 L 556 661.5 L 435.5 662 L 434.5 660 Z " /><path fill="rgb(180,196,251)" stroke="rgb(180,196,251)" stroke-width="1" opacity="1" d="M 258.5 661 L 259 663.5 L 258 663.5 L 258.5 661 Z " /><path fill="rgb(180,196,251)" stroke="rgb(180,196,251)" stroke-width="1" opacity="1" d="M 265.5 664 L 266 666.5 L 265 666.5 L 265.5 664 Z " /><path fill="rgb(180,196,251)" stroke="rgb(180,196,251)" stroke-width="1" opacity="1" d="M 257.5 667 L 258 669.5 L 257 669.5 L 257.5 667 Z " /><path fill="rgb(180,196,251)" stroke="rgb(180,196,251)" stroke-width="1" opacity="1" d="M 279.5 667 L 280 669.5 L 279 669.5 L 279.5 667 Z " /><path fill="rgb(180,196,251)" stroke="rgb(180,196,251)" stroke-width="1" opacity="1" d="M 264.5 670 L 265 674.5 L 264 674.5 L 264.5 670 Z " /><path fill="rgb(180,196,251)" stroke="rgb(180,196,251)" stroke-width="1" opacity="1" d="M 271.5 670 L 272 673.5 L 271 673.5 L 271.5 670 Z " /><path fill="rgb(180,196,251)" stroke="rgb(180,196,251)" stroke-width="1" opacity="1" d="M 470.5 670 L 471 703.5 L 470 703.5 L 470.5 670 Z " /><path fill="rgb(180,196,251)" stroke="rgb(180,196,251)" stroke-width="1" opacity="1" d="M 479.5 670 L 480 704.5 L 479 704.5 L 479.5 670 Z " /><path fill="rgb(180,196,251)" stroke="rgb(180,196,251)" stroke-width="1" opacity="1" d="M 529.5 670 L 530 704.5 L 529 704.5 L 529.5 670 Z " /><path fill="rgb(180,196,251)" stroke="rgb(180,196,251)" stroke-width="1" opacity="1" d="M 538.5 670 L 539 703.5 L 538 703.5 L 538.5 670 Z " /><path fill="rgb(180,196,251)" stroke="rgb(180,196,251)" stroke-width="1" opacity="1" d="M 388.5 671 L 389 711.5 L 388 711.5 L 388.5 671 Z " /><path fill="rgb(180,196,251)" stroke="rgb(180,196,251)" stroke-width="1" opacity="1" d="M 412.5 671 L 413 698.5 L 412 698.5 L 412.5 671 Z " /><path fill="rgb(180,196,251)" stroke="rgb(180,196,251)" stroke-width="1" opacity="1" d="M 436.5 672 L 437 689.5 L 436 689.5 L 436.5 672 Z " /><path fill="rgb(180,196,251)" stroke="rgb(180,196,251)" stroke-width="1" opacity="1" d="M 278.5 674 L 279 686.5 L 278 686.5 L 278.5 674 Z " /><path fill="rgb(180,196,251)" stroke="rgb(180,196,251)" stroke-width="1" opacity="1" d="M 256.5 675 L 257 685.5 L 256 685.5 L 256.5 675 Z " /><path fill="rgb(180,196,251)" stroke="rgb(180,196,251)" stroke-width="1" opacity="1" d="M 422.5 677 L 423 683.5 L 422 683.5 L 422.5 677 Z " /><path fill="rgb(180,196,251)" stroke="rgb(180,196,251)" stroke-width="1" opacity="1" d="M 264.5 686 L 265 691.5 L 264 691.5 L 264.5 686 Z " /><path fill="rgb(180,196,251)" stroke="rgb(180,196,251)" stroke-width="1" opacity="1" d="M 271.5 687 L 272 690.5 L 271 690.5 L 271.5 687 Z " /><path fill="rgb(180,196,251)" stroke="rgb(180,196,251)" stroke-width="1" opacity="1" d="M 421.5 690 L 422 692.5 L 421 692.5 L 421.5 690 Z " /><path fill="rgb(180,196,251)" stroke="rgb(180,196,251)" stroke-width="1" opacity="1" d="M 428.5 690 L 429 693.5 L 428 693.5 L 428.5 690 Z " /><path fill="rgb(180,196,251)" stroke="rgb(180,196,251)" stroke-width="1" opacity="1" d="M 257.5 691 L 258 694.5 L 257 694.5 L 257.5 691 Z " /><path fill="rgb(180,196,251)" stroke="rgb(180,196,251)" stroke-width="1" opacity="1" d="M 279.5 691 L 280 693.5 L 279 693.5 L 279.5 691 Z " /><path fill="rgb(180,196,251)" stroke="rgb(180,196,251)" stroke-width="1" opacity="1" d="M 272.5 694 L 273 696.5 L 272 696.5 L 272.5 694 Z " /><path fill="rgb(180,196,251)" stroke="rgb(180,196,251)" stroke-width="1" opacity="1" d="M 435.5 694 L 436 696.5 L 435 696.5 L 435.5 694 Z " /><path fill="rgb(180,196,251)" stroke="rgb(180,196,251)" stroke-width="1" opacity="1" d="M 265.5 695 L 266 697.5 L 265 697.5 L 265.5 695 Z " /><path fill="rgb(180,196,251)" stroke="rgb(180,196,251)" stroke-width="1" opacity="1" d="M 789.5 702 L 790 739 L 763.5 739 L 763 739.5 L 763 834.5 L 762 834.5 L 762 739.5 L 763.5 738 L 789 738 L 789.5 702 Z " /><path fill="rgb(180,196,251)" stroke="rgb(180,196,251)" stroke-width="1" opacity="1" d="M 469.5 706 L 468.5 708 L 469.5 706 Z " /><path fill="rgb(180,196,251)" stroke="rgb(180,196,251)" stroke-width="1" opacity="1" d="M 424.5 708 L 423.5 710 L 424.5 708 Z " /><path fill="rgb(180,196,251)" stroke="rgb(180,196,251)" stroke-width="1" opacity="1" d="M 438.5 708 L 437.5 710 L 438.5 708 Z " /><path fill="rgb(180,196,251)" stroke="rgb(180,196,251)" stroke-width="1" opacity="1" d="M 565.5 711 L 564.5 713 L 565.5 711 Z " /><path fill="rgb(180,196,251)" stroke="rgb(180,196,251)" stroke-width="1" opacity="1" d="M 340.5 712 L 341 725.5 L 340 725.5 L 340.5 712 Z " /><path fill="rgb(180,196,251)" stroke="rgb(180,196,251)" stroke-width="1" opacity="1" d="M 389.5 714 L 392.5 718 L 389.5 714 Z " /><path fill="rgb(180,196,251)" stroke="rgb(180,196,251)" stroke-width="1" opacity="1" d="M 416.5 714 L 419.5 718 L 416.5 714 Z " /><path fill="rgb(180,196,251)" stroke="rgb(180,196,251)" stroke-width="1" opacity="1" d="M 474.5 714 L 478 716.5 L 475.5 715 L 472.5 717 L 474.5 714 Z " /><path fill="rgb(180,196,251)" stroke="rgb(180,196,251)" stroke-width="1" opacity="1" d="M 533.5 714 L 537 716.5 L 534.5 715 L 530.5 718 L 533.5 714 Z " /><path fill="rgb(180,196,251)" stroke="rgb(180,196,251)" stroke-width="1" opacity="1" d="M 375.5 715 L 372.5 719 L 375.5 715 Z " /><path fill="rgb(180,196,251)" stroke="rgb(180,196,251)" stroke-width="1" opacity="1" d="M 405.5 715 L 404.5 717 L 405.5 715 Z " /><path fill="rgb(180,196,251)" stroke="rgb(180,196,251)" stroke-width="1" opacity="1" d="M 414.5 715 L 413.5 717 L 414.5 715 Z " /><path fill="rgb(180,196,251)" stroke="rgb(180,196,251)" stroke-width="1" opacity="1" d="M 288.5 716 L 289.5 718 L 288.5 716 Z " /><path fill="rgb(180,196,251)" stroke="rgb(180,196,251)" stroke-width="1" opacity="1" d="M 442.5 716 L 441.5 718 L 442.5 716 Z " /><path fill="rgb(180,196,251)" stroke="rgb(180,196,251)" stroke-width="1" opacity="1" d="M 449.5 717 L 450.5 719 L 449.5 717 Z " /><path fill="rgb(180,196,251)" stroke="rgb(180,196,251)" stroke-width="1" opacity="1" d="M 559.5 717 L 558.5 719 L 559.5 717 Z " /><path fill="rgb(180,196,251)" stroke="rgb(180,196,251)" stroke-width="1" opacity="1" d="M 403.5 718 L 402.5 720 L 403.5 718 Z " /><path fill="rgb(180,196,251)" stroke="rgb(180,196,251)" stroke-width="1" opacity="1" d="M 273.5 719 L 274.5 721 L 273.5 719 Z " /><path fill="rgb(180,196,251)" stroke="rgb(180,196,251)" stroke-width="1" opacity="1" d="M 281.5 719 L 282.5 721 L 281.5 719 Z " /><path fill="rgb(180,196,251)" stroke="rgb(180,196,251)" stroke-width="1" opacity="1" d="M 290.5 719 L 291.5 721 L 290.5 719 Z " /><path fill="rgb(180,196,251)" stroke="rgb(180,196,251)" stroke-width="1" opacity="1" d="M 556.5 719 L 556 720.5 L 555.5 835 L 555 720.5 L 556.5 719 Z " /><path fill="rgb(180,196,251)" stroke="rgb(180,196,251)" stroke-width="1" opacity="1" d="M 455.5 720 L 458 720.5 L 455.5 721 L 455.5 720 Z " /><path fill="rgb(180,196,251)" stroke="rgb(180,196,251)" stroke-width="1" opacity="1" d="M 462.5 720 L 465 720.5 L 462.5 721 L 462.5 720 Z " /><path fill="rgb(180,196,251)" stroke="rgb(180,196,251)" stroke-width="1" opacity="1" d="M 492.5 720 L 495 720.5 L 492.5 721 L 492.5 720 Z " /><path fill="rgb(180,196,251)" stroke="rgb(180,196,251)" stroke-width="1" opacity="1" d="M 544.5 720 L 547 721.5 L 546.5 826 L 546 721 L 544.5 720 Z " /><path fill="rgb(180,196,251)" stroke="rgb(180,196,251)" stroke-width="1" opacity="1" d="M 410.5 721 L 409.5 723 L 410.5 721 Z " /><path fill="rgb(180,196,251)" stroke="rgb(180,196,251)" stroke-width="1" opacity="1" d="M 283.5 722 L 284.5 724 L 283.5 722 Z " /><path fill="rgb(180,196,251)" stroke="rgb(180,196,251)" stroke-width="1" opacity="1" d="M 383.5 722 L 387.5 727 L 383.5 723 L 380 725.5 L 383.5 722 Z " /><path fill="rgb(180,196,251)" stroke="rgb(180,196,251)" stroke-width="1" opacity="1" d="M 293.5 723 L 294.5 725 L 293.5 723 Z " /><path fill="rgb(180,196,251)" stroke="rgb(180,196,251)" stroke-width="1" opacity="1" d="M 417.5 723 L 416.5 725 L 417.5 723 Z " /><path fill="rgb(180,196,251)" stroke="rgb(180,196,251)" stroke-width="1" opacity="1" d="M 276.5 724 L 277.5 726 L 276.5 724 Z " /><path fill="rgb(180,196,251)" stroke="rgb(180,196,251)" stroke-width="1" opacity="1" d="M 408.5 724 L 407.5 726 L 408.5 724 Z " /><path fill="rgb(180,196,251)" stroke="rgb(180,196,251)" stroke-width="1" opacity="1" d="M 285.5 725 L 287.5 728 L 285.5 725 Z " /><path fill="rgb(180,196,251)" stroke="rgb(180,196,251)" stroke-width="1" opacity="1" d="M 378.5 726 L 377.5 728 L 371.5 730 L 371.5 729 L 378.5 726 Z " /><path fill="rgb(180,196,251)" stroke="rgb(180,196,251)" stroke-width="1" opacity="1" d="M 415.5 726 L 414.5 728 L 415.5 726 Z " /><path fill="rgb(180,196,251)" stroke="rgb(180,196,251)" stroke-width="1" opacity="1" d="M 269.5 727 L 270.5 729 L 269.5 727 Z " /><path fill="rgb(180,196,251)" stroke="rgb(180,196,251)" stroke-width="1" opacity="1" d="M 278.5 727 L 279.5 729 L 278.5 727 Z " /><path fill="rgb(180,196,251)" stroke="rgb(180,196,251)" stroke-width="1" opacity="1" d="M 405.5 728 L 401.5 733 L 405.5 728 Z " /><path fill="rgb(180,196,251)" stroke="rgb(180,196,251)" stroke-width="1" opacity="1" d="M 413.5 729 L 412.5 731 L 413.5 729 Z " /><path fill="rgb(180,196,251)" stroke="rgb(180,196,251)" stroke-width="1" opacity="1" d="M 422.5 729 L 421.5 731 L 422.5 729 Z " /><path fill="rgb(180,196,251)" stroke="rgb(180,196,251)" stroke-width="1" opacity="1" d="M 271.5 730 L 272.5 732 L 271.5 730 Z " /><path fill="rgb(180,196,251)" stroke="rgb(180,196,251)" stroke-width="1" opacity="1" d="M 280.5 730 L 282.5 733 L 280.5 730 Z " /><path fill="rgb(180,196,251)" stroke="rgb(180,196,251)" stroke-width="1" opacity="1" d="M 358.5 730 L 359 747.5 L 358 747.5 L 358.5 730 Z " /><path fill="rgb(180,196,251)" stroke="rgb(180,196,251)" stroke-width="1" opacity="1" d="M 369.5 730 L 369 731.5 L 368.5 745 L 368 731.5 L 369.5 730 Z " /><path fill="rgb(180,196,251)" stroke="rgb(180,196,251)" stroke-width="1" opacity="1" d="M 290.5 731 L 296.5 738 L 290.5 731 Z " /><path fill="rgb(180,196,251)" stroke="rgb(180,196,251)" stroke-width="1" opacity="1" d="M 302.5 732 L 304.5 735 L 302.5 732 Z " /><path fill="rgb(180,196,251)" stroke="rgb(180,196,251)" stroke-width="1" opacity="1" d="M 420.5 732 L 419.5 734 L 420.5 732 Z " /><path fill="rgb(180,196,251)" stroke="rgb(180,196,251)" stroke-width="1" opacity="1" d="M 388.5 734 L 387.5 736 L 388.5 734 Z " /><path fill="rgb(180,196,251)" stroke="rgb(180,196,251)" stroke-width="1" opacity="1" d="M 409.5 734 L 400.5 744 L 409.5 734 Z " /><path fill="rgb(180,196,251)" stroke="rgb(180,196,251)" stroke-width="1" opacity="1" d="M 398.5 735 L 394.5 740 L 398.5 735 Z " /><path fill="rgb(180,196,251)" stroke="rgb(180,196,251)" stroke-width="1" opacity="1" d="M 285.5 736 L 290.5 742 L 285.5 736 Z " /><path fill="rgb(180,196,251)" stroke="rgb(180,196,251)" stroke-width="1" opacity="1" d="M 417.5 736 L 415.5 739 L 417.5 736 Z " /><path fill="rgb(180,196,251)" stroke="rgb(180,196,251)" stroke-width="1" opacity="1" d="M 382.5 738 L 381.5 740 L 382.5 738 Z " /><path fill="rgb(180,196,251)" stroke="rgb(180,196,251)" stroke-width="1" opacity="1" d="M 897.5 738 L 904.5 738 L 905 738.5 L 905 834.5 L 904 834.5 L 904 739.5 L 903.5 739 L 897 739 L 896.5 835 L 896 739.5 L 897.5 738 Z " /><path fill="rgb(180,196,251)" stroke="rgb(180,196,251)" stroke-width="1" opacity="1" d="M 312.5 739 L 313.5 741 L 312.5 739 Z " /><path fill="rgb(180,196,251)" stroke="rgb(180,196,251)" stroke-width="1" opacity="1" d="M 278.5 740 L 281 741.5 L 279.5 741 L 271.5 748 L 278.5 740 Z " /><path fill="rgb(180,196,251)" stroke="rgb(180,196,251)" stroke-width="1" opacity="1" d="M 300.5 740 L 301.5 742 L 300.5 740 Z " /><path fill="rgb(180,196,251)" stroke="rgb(180,196,251)" stroke-width="1" opacity="1" d="M 391.5 741 L 390.5 743 L 391.5 741 Z " /><path fill="rgb(180,196,251)" stroke="rgb(180,196,251)" stroke-width="1" opacity="1" d="M 259.5 742 L 250.5 752 L 259.5 742 Z " /><path fill="rgb(180,196,251)" stroke="rgb(180,196,251)" stroke-width="1" opacity="1" d="M 388.5 743 L 387.5 745 L 388.5 743 Z " /><path fill="rgb(180,196,251)" stroke="rgb(180,196,251)" stroke-width="1" opacity="1" d="M 294.5 744 L 296.5 747 L 294.5 744 Z " /><path fill="rgb(180,196,251)" stroke="rgb(180,196,251)" stroke-width="1" opacity="1" d="M 285.5 746 L 286.5 748 L 285.5 746 Z " /><path fill="rgb(180,196,251)" stroke="rgb(180,196,251)" stroke-width="1" opacity="1" d="M 538.5 746 L 539 810 L 458 809.5 L 538 809 L 538.5 746 Z " /><path fill="rgb(180,196,251)" stroke="rgb(180,196,251)" stroke-width="1" opacity="1" d="M 331.5 747 L 334 747.5 L 331.5 748 L 331.5 747 Z " /><path fill="rgb(180,196,251)" stroke="rgb(180,196,251)" stroke-width="1" opacity="1" d="M 337.5 748 L 342 748.5 L 337.5 749 L 337.5 748 Z " /><path fill="rgb(180,196,251)" stroke="rgb(180,196,251)" stroke-width="1" opacity="1" d="M 352.5 748 L 356 748.5 L 352.5 749 L 352.5 748 Z " /><path fill="rgb(180,196,251)" stroke="rgb(180,196,251)" stroke-width="1" opacity="1" d="M 380.5 748 L 382 748.5 L 382 755.5 L 381 755.5 Q 381.5 749.5 380.5 748 Z " /><path fill="rgb(180,196,251)" stroke="rgb(180,196,251)" stroke-width="1" opacity="1" d="M 271.5 749 L 279.5 756 L 287 749.5 L 278.5 757 L 271.5 749 Z " /><path fill="rgb(180,196,251)" stroke="rgb(180,196,251)" stroke-width="1" opacity="1" d="M 261.5 750 L 257.5 755 L 261.5 750 Z " /><path fill="rgb(180,196,251)" stroke="rgb(180,196,251)" stroke-width="1" opacity="1" d="M 373.5 751 L 375 758.5 L 373 759 L 373.5 751 Z " /><path fill="rgb(180,196,251)" stroke="rgb(180,196,251)" stroke-width="1" opacity="1" d="M 292.5 753 L 294 753.5 L 285 761.5 L 286 763.5 L 284 762.5 L 292.5 753 Z " /><path fill="rgb(180,196,251)" stroke="rgb(180,196,251)" stroke-width="1" opacity="1" d="M 247.5 754 L 194.5 808 L 247.5 754 Z " /><path fill="rgb(180,196,251)" stroke="rgb(180,196,251)" stroke-width="1" opacity="1" d="M 398.5 754 L 441 754.5 L 398.5 755 L 398.5 754 Z " /><path fill="rgb(180,196,251)" stroke="rgb(180,196,251)" stroke-width="1" opacity="1" d="M 467.5 754 L 530 754 L 530 801 L 466 801 L 466 755.5 L 467.5 754 Z M 467 755 L 467 800 L 529 800 L 529 755 L 467 755 Z " /><path fill="rgb(180,196,251)" stroke="rgb(180,196,251)" stroke-width="1" opacity="1" d="M 334.5 755 L 337 755.5 L 334.5 756 L 334.5 755 Z " /><path fill="rgb(180,196,251)" stroke="rgb(180,196,251)" stroke-width="1" opacity="1" d="M 356.5 755 L 360 755.5 L 356.5 756 L 356.5 755 Z " /><path fill="rgb(180,196,251)" stroke="rgb(180,196,251)" stroke-width="1" opacity="1" d="M 396.5 755 L 395.5 757 L 396.5 755 Z " /><path fill="rgb(180,196,251)" stroke="rgb(180,196,251)" stroke-width="1" opacity="1" d="M 342.5 756 L 352 756.5 L 342.5 757 L 342.5 756 Z " /><path fill="rgb(180,196,251)" stroke="rgb(180,196,251)" stroke-width="1" opacity="1" d="M 303.5 759 L 304.5 761 L 303.5 759 Z " /><path fill="rgb(180,196,251)" stroke="rgb(180,196,251)" stroke-width="1" opacity="1" d="M 390.5 759 L 391 825.5 L 390 825.5 L 390.5 759 Z " /><path fill="rgb(180,196,251)" stroke="rgb(180,196,251)" stroke-width="1" opacity="1" d="M 250.5 761 L 201.5 811 L 250.5 761 Z " /><path fill="rgb(180,196,251)" stroke="rgb(180,196,251)" stroke-width="1" opacity="1" d="M 333.5 762 L 337 762.5 L 333.5 763 L 333.5 762 Z " /><path fill="rgb(180,196,251)" stroke="rgb(180,196,251)" stroke-width="1" opacity="1" d="M 357.5 762 L 360 762.5 L 357.5 763 L 357.5 762 Z " /><path fill="rgb(180,196,251)" stroke="rgb(180,196,251)" stroke-width="1" opacity="1" d="M 343.5 763 L 350 763.5 L 343.5 764 L 343.5 763 Z " /><path fill="rgb(180,196,251)" stroke="rgb(180,196,251)" stroke-width="1" opacity="1" d="M 381.5 764 L 382 825.5 L 381 825.5 L 381.5 764 Z " /><path fill="rgb(180,196,251)" stroke="rgb(180,196,251)" stroke-width="1" opacity="1" d="M 374.5 766 L 374 767.5 L 373.5 826 L 373 767.5 L 374.5 766 Z " /><path fill="rgb(180,196,251)" stroke="rgb(180,196,251)" stroke-width="1" opacity="1" d="M 285.5 767 L 220.5 833 L 285.5 767 Z " /><path fill="rgb(180,196,251)" stroke="rgb(180,196,251)" stroke-width="1" opacity="1" d="M 330.5 769 L 333 769.5 L 330.5 770 L 330.5 769 Z " /><path fill="rgb(180,196,251)" stroke="rgb(180,196,251)" stroke-width="1" opacity="1" d="M 360.5 769 L 363 769.5 L 360.5 770 L 360.5 769 Z " /><path fill="rgb(180,196,251)" stroke="rgb(180,196,251)" stroke-width="1" opacity="1" d="M 337.5 770 L 344 770.5 L 337.5 771 L 337.5 770 Z " /><path fill="rgb(180,196,251)" stroke="rgb(180,196,251)" stroke-width="1" opacity="1" d="M 350.5 770 L 356 770.5 L 350.5 771 L 350.5 770 Z " /><path fill="rgb(180,196,251)" stroke="rgb(180,196,251)" stroke-width="1" opacity="1" d="M 198.5 815 L 199 820.5 L 198 820.5 L 198.5 815 Z " /><path fill="rgb(180,196,251)" stroke="rgb(180,196,251)" stroke-width="1" opacity="1" d="M 199.5 823 L 200.5 825 L 199.5 823 Z " /><path fill="rgb(180,196,251)" stroke="rgb(180,196,251)" stroke-width="1" opacity="1" d="M 195.5 830 L 197.5 833 L 195.5 830 Z " /><path fill="rgb(180,196,251)" stroke="rgb(180,196,251)" stroke-width="1" opacity="1" d="M 206.5 836 L 212 836.5 L 206.5 837 L 206.5 836 Z " /><path fill="rgb(255,255,255)" stroke="rgb(255,255,255)" stroke-width="1" opacity="1" d="M 161 331 L 1022 331 L 1022 853 L 161 853 L 161 331 Z M 416 346 L 416 369 L 386 369 L 386 404 L 484 404 L 484 369 L 454 369 L 454 346 L 416 346 Z M 202 355 L 202 389 L 203 389 L 327 389 L 327 473 L 365 473 L 365 355 L 202 355 Z M 488 355 L 488 559 L 526 559 L 526 468 L 531 469 L 531 559 L 568 559 L 568 559 L 568 355 L 531 355 L 531 433 L 526 433 L 526 355 L 488 355 Z M 597 355 L 597 390 L 623 390 L 596 456 L 597 457 L 637 457 L 657 403 L 676 456 L 678 457 L 717 457 L 690 391 L 716 390 L 716 356 L 716 355 L 597 355 Z M 731 355 L 731 507 L 731 507 L 688 507 L 688 541 L 731 541 L 731 542 L 731 559 L 768 559 L 768 356 L 768 355 L 731 355 Z M 891 366 L 890 367 L 878 368 L 865 372 L 843 385 Q 830 395 821 410 L 813 428 L 809 449 L 809 461 L 810 462 L 810 470 L 812 479 Q 818 499 830 513 Q 849 536 886 543 L 910 543 L 924 540 Q 945 534 959 520 Q 980 501 986 468 L 986 443 L 983 429 Q 977 411 967 399 Q 954 382 934 373 L 914 367 L 891 366 Z M 422 408 Q 411 410 404 416 L 394 429 L 391 438 L 390 451 L 389 452 L 389 516 L 390 517 L 391 531 L 397 545 L 409 555 L 416 558 L 426 560 L 443 560 Q 444 558 449 559 L 465 551 Q 471 546 474 538 L 478 521 L 478 448 L 475 433 L 469 422 Q 462 413 451 409 L 446 408 L 422 408 Z M 588 466 L 588 500 L 638 500 L 638 559 L 676 559 L 676 500 L 723 500 L 723 467 L 723 466 L 588 466 Z M 191 482 L 191 517 L 265 517 L 265 563 L 302 563 L 302 517 L 376 517 L 376 483 L 376 482 L 191 482 Z M 343 590 L 342 591 L 333 591 L 317 595 Q 301 601 289 611 Q 277 621 269 634 L 260 654 L 256 676 L 256 687 L 257 688 L 257 696 L 259 705 Q 264 721 273 734 L 266 742 L 261 741 L 193 809 L 191 813 Q 189 823 193 829 Q 197 835 206 837 Q 215 838 220 834 L 286 768 L 285 763 L 293 754 L 313 765 L 337 771 Q 353 773 365 769 L 365 835 L 556 835 L 556 721 L 561 718 Q 566 714 568 708 L 568 663 L 547 621 L 546 619 L 413 619 Q 400 604 380 596 L 361 591 L 343 590 Z M 588 619 L 588 655 L 669 655 L 669 835 L 670 835 L 710 835 L 710 619 L 588 619 Z M 723 619 L 723 835 L 763 835 L 763 740 L 764 739 L 790 739 L 790 702 L 764 702 L 763 702 L 763 619 L 723 619 Z M 801 619 L 801 655 L 856 655 L 856 656 L 856 835 L 897 835 L 897 739 L 904 739 L 904 740 L 904 835 L 945 835 L 945 835 L 945 619 L 904 619 L 904 702 L 898 702 L 897 702 L 897 619 L 801 619 Z M 950 619 L 950 835 L 951 835 L 991 835 L 991 620 L 991 619 L 950 619 Z " /><path fill="rgb(255,255,255)" stroke="rgb(255,255,255)" stroke-width="1" opacity="1" d="M 888.5 373 L 913.5 374 L 929.5 379 Q 948.6 387.4 961 402.5 Q 969.8 412.7 975 426.5 L 979 441.5 L 980 459.5 L 979 460.5 L 978 472.5 L 974 485.5 Q 966.8 502.3 954.5 514 Q 943.5 524.5 928.5 531 L 910.5 536 L 895.5 537 L 894.5 536 L 880.5 535 L 867.5 531 Q 848.4 523.1 836 508.5 Q 823.6 494.9 818 474.5 L 817 463.5 L 816 462.5 L 816 446.5 Q 822.3 408.8 847.5 390 L 868.5 378 L 888.5 373 Z M 894 378 L 893 379 L 880 380 L 868 384 L 850 395 Q 836 406 828 423 L 823 438 L 822 452 L 821 453 L 822 468 L 825 480 Q 831 495 841 507 L 861 522 L 875 528 L 889 531 L 908 531 L 922 528 Q 935 523 946 515 Q 968 499 974 466 L 974 445 L 972 435 Q 967 417 956 405 Q 944 391 926 383 L 912 379 L 894 378 Z " /><path fill="rgb(255,255,255)" stroke="rgb(255,255,255)" stroke-width="1" opacity="1" d="M 891.5 385 L 894 385.5 L 894 397.5 L 895 400 Q 899.6 401.3 901 398.5 L 901 385.5 L 904.5 385 L 915.5 387 L 930.5 393 Q 942.4 399.6 951 409.5 L 963 429.5 L 967 443.5 L 967 451 L 954.5 451 L 952 453.5 L 953 458 L 967 458 L 967 465.5 Q 961 495 940.5 510 Q 925.9 522.6 901 524 L 901 510.5 L 899.5 509 Q 895.8 508.3 895 510.5 L 894 512.5 L 894 524 Q 862.8 521.5 847 502.5 Q 830.8 486.4 828 458 L 841.5 458 L 843 456.5 Q 844.9 451.1 841.5 452 L 840.5 451 L 828 451 Q 832.1 416.8 854.5 400 L 871.5 390 L 891.5 385 Z M 936 412 L 882 436 L 877 443 L 857 488 L 855 497 L 858 498 L 914 474 L 918 469 L 941 417 L 940 414 Q 941 410 936 412 Z " /><path fill="rgb(255,255,255)" stroke="rgb(255,255,255)" stroke-width="1" opacity="1" d="M 927.5 423 L 930 423.5 L 913 463 L 909 460.5 L 910 459.5 L 910 450.5 L 907 445 L 900.5 442 L 895.5 442 L 891.5 443 L 889.5 440 L 927.5 423 Z " /><path fill="rgb(255,255,255)" stroke="rgb(255,255,255)" stroke-width="1" opacity="1" d="M 432.5 441 Q 438.1 441.5 440 445.5 L 442 456.5 L 442 511.5 Q 439.5 513 441 518.5 L 437.5 525 L 431.5 526 Q 426.9 523.1 426 516.5 L 426 450.5 L 428 444.5 L 430.5 442 L 432.5 441 Z " /><path fill="rgb(255,255,255)" stroke="rgb(255,255,255)" stroke-width="1" opacity="1" d="M 883 446 L 887 448.5 Q 884.3 450.8 885 456.5 Q 886.5 463 891.5 466 Q 894.7 468.3 901.5 467 L 904.5 466 L 906.5 469 L 866.5 487 L 866 484.5 L 883 446 Z " /><path fill="rgb(255,255,255)" stroke="rgb(255,255,255)" stroke-width="1" opacity="1" d="M 896.5 449 Q 902.3 448.3 903 452.5 L 904 454.5 L 900.5 460 Q 893.3 461.3 892 456.5 Q 891.4 451.4 894.5 450 L 896.5 449 Z " /><path fill="rgb(255,255,255)" stroke="rgb(255,255,255)" stroke-width="1" opacity="1" d="M 343.5 598 Q 381 599 400 618.5 L 390.5 619 L 385.5 615 L 366.5 607 L 356.5 605 L 336.5 605 L 317.5 610 Q 305.3 614.8 297 623.5 Q 296.3 628.3 299.5 629 L 303.5 629 L 310.5 623 L 328.5 615 L 337.5 613 L 355.5 613 L 367 616.5 L 359 631.5 L 359 634.5 L 360 635.5 L 360.5 654 L 363 651.5 L 377 622 Q 382.7 621.2 385.5 625 L 400 638.5 Q 407.5 647.7 411 660 L 361.5 660 L 360 661.5 L 360 670.5 L 361.5 672 L 377 672 L 377 712.5 L 374.5 716 L 367.5 720 L 364.5 720 L 361.5 718 L 360 719.5 L 360 727.5 L 358 729.5 L 358 748 L 342.5 749 L 341.5 748 L 330.5 747 L 311.5 739 L 293 722.5 Q 284 711.5 280 695.5 Q 281.2 690.8 279 689.5 L 279 671.5 L 283 656.5 Q 287 645 295 637.5 L 295 633.5 Q 294.3 630.3 289.5 631 Q 277.8 642.3 273 660.5 L 271 669.5 L 271 691.5 Q 276.7 723.8 298.5 740 Q 309.4 749.1 324.5 754 L 341.5 757 L 351.5 757 L 352.5 756 L 365 755 L 365 761 L 362.5 761 Q 353 765 337.5 763 Q 304.3 757.2 286 736.5 Q 276 726 270 711.5 L 265 693.5 L 264 676.5 L 265 675.5 L 266 662.5 L 273 643.5 Q 281.3 627.9 294.5 617 Q 305.8 607.3 321.5 602 L 343.5 598 Z M 340 637 L 340 704 L 341 704 L 356 704 L 356 638 L 356 637 L 340 637 Z M 340 712 L 340 726 L 356 726 L 356 712 L 340 712 Z " /><path fill="rgb(255,255,255)" stroke="rgb(255,255,255)" stroke-width="1" opacity="1" d="M 402.5 628 Q 410.2 626.3 412 630.5 L 423 649.5 L 426 661 L 420.5 661 L 420 659.5 Q 414 640.1 402.5 628 Z " /><path fill="rgb(255,255,255)" stroke="rgb(255,255,255)" stroke-width="1" opacity="1" d="M 421 628 L 539.5 628 L 540 629.5 L 556 660.5 L 435 661 L 430 644.5 L 421 628 Z " /><path fill="rgb(255,255,255)" stroke="rgb(255,255,255)" stroke-width="1" opacity="1" d="M 422 670 L 427.5 670 L 428 671.5 L 429 672.5 L 429 688.5 L 426 703.5 L 423.5 709 L 421 706.5 L 420 699.5 L 422 693.5 L 423 677.5 L 422 676.5 L 422 670 Z " /><path fill="rgb(255,255,255)" stroke="rgb(255,255,255)" stroke-width="1" opacity="1" d="M 436.5 670 Q 441 669.5 441 670.5 L 441 702.5 L 436.5 710 L 432 711 L 435 701.5 L 436 690.5 L 437 689.5 L 437 671.5 L 436.5 670 Z " /><path fill="rgb(255,255,255)" stroke="rgb(255,255,255)" stroke-width="1" opacity="1" d="M 450 670 L 470 670 L 470 704.5 L 464.5 711 L 458.5 712 L 452 709 L 450 705.5 L 450 670 Z " /><path fill="rgb(255,255,255)" stroke="rgb(255,255,255)" stroke-width="1" opacity="1" d="M 480 670 L 500 670 L 500 704.5 L 495.5 710 L 488.5 712 L 481 706.5 L 480 704.5 L 480 670 Z " /><path fill="rgb(255,255,255)" stroke="rgb(255,255,255)" stroke-width="1" opacity="1" d="M 509 670 L 529 670 L 529 704.5 L 523.5 711 L 518.5 712 Q 512.8 710.8 510 706.5 L 509 704.5 L 509 670 Z " /><path fill="rgb(255,255,255)" stroke="rgb(255,255,255)" stroke-width="1" opacity="1" d="M 539 670 L 559 670 L 559 704.5 L 557 709 Q 554 711.7 547.5 712 L 540 706.5 L 539 704.5 L 539 670 Z " /><path fill="rgb(255,255,255)" stroke="rgb(255,255,255)" stroke-width="1" opacity="1" d="M 389 672 L 412 672 L 412 699.5 Q 408.8 711.8 401.5 720 Q 393.9 719.1 390 714.5 L 389 712.5 L 389 672 Z " /><path fill="rgb(255,255,255)" stroke="rgb(255,255,255)" stroke-width="1" opacity="1" d="M 415.5 715 L 420 718.5 Q 412.1 733.5 399.5 744 Q 396.3 747.8 387.5 746 L 388.5 744 L 402 733.5 L 415.5 715 Z " /><path fill="rgb(255,255,255)" stroke="rgb(255,255,255)" stroke-width="1" opacity="1" d="M 445.5 715 Q 450.6 722.9 465.5 721 L 475.5 715 Q 480 723 494.5 721 L 504.5 715 Q 509.6 722.9 524.5 721 L 534.5 715 Q 538.4 720.2 546 721 L 546 826 L 450 826 L 450 746 L 410.5 746 L 415 740.5 L 424 728.5 L 427 721 Q 440.2 722.7 445.5 715 Z M 458 746 L 458 810 L 539 810 L 539 746 L 458 746 Z " /><path fill="rgb(255,255,255)" stroke="rgb(255,255,255)" stroke-width="1" opacity="1" d="M 382.5 724 L 389.5 729 L 392 729 L 387.5 735 L 376.5 742 L 370 744 L 370 732.5 L 369 731.5 Q 378.2 730.2 382.5 724 Z " /><path fill="rgb(255,255,255)" stroke="rgb(255,255,255)" stroke-width="1" opacity="1" d="M 278.5 741 L 281 742.5 L 284.5 747 L 287 748.5 L 278.5 756 L 271 748.5 L 278.5 741 Z " /><path fill="rgb(255,255,255)" stroke="rgb(255,255,255)" stroke-width="1" opacity="1" d="M 379.5 749 L 381 749.5 L 381 756 L 374 758 Q 372.5 752.6 375.5 751 L 379.5 749 Z " /><path fill="rgb(255,255,255)" stroke="rgb(255,255,255)" stroke-width="1" opacity="1" d="M 261.5 751 L 276 765.5 L 272.5 769 L 258 755.5 L 261.5 751 Z " /><path fill="rgb(255,255,255)" stroke="rgb(255,255,255)" stroke-width="1" opacity="1" d="M 398.5 755 L 441 755 L 441 826 L 391 826 L 391 759 L 398.5 755 Z " /><path fill="rgb(255,255,255)" stroke="rgb(255,255,255)" stroke-width="1" opacity="1" d="M 467 755 L 529 755 L 529 800 L 467 800 L 467 755 Z " /><path fill="rgb(255,255,255)" stroke="rgb(255,255,255)" stroke-width="1" opacity="1" d="M 251.5 761 L 266 775.5 L 213.5 828 L 207.5 829 L 200 823.5 L 199 815.5 L 202 810.5 L 251.5 761 Z " /><path fill="rgb(255,255,255)" stroke="rgb(255,255,255)" stroke-width="1" opacity="1" d="M 378.5 765 L 381 765.5 L 381 826 L 374.5 826 L 374 825.5 L 374 767.5 L 378.5 765 Z " /></svg>