<?xml version="1.0" encoding="UTF-8"?>
<svg id="_레이어_1" data-name="레이어 1" xmlns="http://www.w3.org/2000/svg" xmlns:xlink="http://www.w3.org/1999/xlink" viewBox="0 0 283.46 283.46">
  <defs>
    <style>
      .cls-1 {
        stroke-miterlimit: 10;
        stroke-width: 7px;
      }

      .cls-1, .cls-2 {
        fill: #1e67fb;
      }

      .cls-1, .cls-3 {
        stroke: #fff;
      }

      .cls-4 {
        fill: #fff;
      }

      .cls-5, .cls-3 {
        fill: none;
      }

      .cls-3 {
        stroke-linecap: round;
        stroke-linejoin: round;
        stroke-width: 1.73px;
      }

      .cls-6 {
        clip-path: url(#clippath);
      }
    </style>
    <clipPath id="clippath">
      <rect class="cls-5" x="45.85" y="142.04" width="58.93" height="58.93"/>
    </clipPath>
  </defs>
  <rect class="cls-1" x="33.56" y="74.95" width="216.35" height="133.57"/>
  <g>
    <path class="cls-4" d="M45.85,116.1h44.32v8.11h-17.71v11.04h-8.85v-11.04h-17.76v-8.11ZM78.6,93.54h-30.08v-7.89h38.93v28h-8.85v-20.11Z"/>
    <path class="cls-4" d="M92.84,88.95h7.15v-5.44h8.85v5.44h7.09v8.11h-23.09v-8.11ZM114.7,120.74c0,1.81-.11,3.55-.32,5.2s-.69,3.12-1.44,4.4-1.81,2.29-3.2,3.04c-1.39.75-3.25,1.12-5.6,1.12s-4.39-.39-5.81-1.17c-1.42-.78-2.49-1.82-3.2-3.12-.71-1.3-1.17-2.77-1.36-4.43-.2-1.65-.29-3.33-.29-5.04v-8.8c0-1.71.1-3.38.29-5.01.19-1.63.65-3.1,1.36-4.4.71-1.3,1.78-2.35,3.2-3.15,1.42-.8,3.36-1.2,5.81-1.2s4.21.38,5.6,1.15c1.39.76,2.45,1.78,3.2,3.04.75,1.26,1.23,2.72,1.44,4.37s.32,3.39.32,5.2v8.8ZM102.06,121.7c0,2.03.18,3.36.53,4,.35.64.87.96,1.55.96.64,0,1.13-.33,1.47-.99.34-.66.51-1.98.51-3.97v-10.72c0-1.99-.17-3.32-.51-3.97-.34-.66-.83-.99-1.47-.99-.68,0-1.19.33-1.55.99-.36.66-.53,1.98-.53,3.97v10.72ZM127.45,112.47h-1.44v21.71h-8.85v-48.53h8.85v18.72h1.44v-18.72h8.85v48.53h-8.85v-21.71Z"/>
    <path class="cls-4" d="M141.32,112.1h32.05v8.11h-11.36v14.03h-8.85v-14.03h-11.84v-8.11ZM143.37,85.64h28.45v8.11h-6.4l6.51,16.11h-9.32l-5.11-13.39-4.91,13.39h-9.44l6.61-16.11h-6.4v-8.11ZM165.21,121.96h10.24v-36.32h8.85v48.53h-8.85v-4.11h-10.24v-8.11Z"/>
  </g>
  <g>
    <path class="cls-4" d="M160.76,157.27h-19.44v-8.41h28.88v51.73h-9.44v-43.32ZM173.55,148.86h9.44v19.95h6.48v8.64h-6.48v23.14h-9.44v-51.73Z"/>
    <path class="cls-4" d="M205.67,157.27h-13.19v-8.41h22.63v19.95h2.05v-19.95h9.44v51.73h-9.44v-23.14h-2.05v23.14h-9.44v-43.32ZM228.18,148.86h9.44v51.73h-9.44v-51.73Z"/>
  </g>
  <g>
    <path class="cls-4" d="M230.43,94.43c-3.99-3.99-9.3-6.19-14.94-6.19s-10.95,2.2-14.94,6.19c-3.99,3.99-6.19,9.3-6.19,14.94s2.2,10.95,6.19,14.94c3.99,3.99,9.3,6.19,14.94,6.19s10.95-2.2,14.94-6.19,6.19-9.3,6.19-14.94-2.2-10.95-6.19-14.94ZM229.46,123.35c-3.73,3.73-8.7,5.79-13.97,5.79s-10.24-2.06-13.97-5.79c-3.73-3.73-5.79-8.7-5.79-13.97s2.06-10.24,5.79-13.97c3.73-3.73,8.7-5.79,13.97-5.79s10.24,2.06,13.97,5.79c3.73,3.73,5.79,8.7,5.79,13.97s-2.06,10.24-5.79,13.97Z"/>
    <path class="cls-4" d="M215.48,91.17c-10.04,0-18.21,8.17-18.21,18.21s8.17,18.21,18.21,18.21,18.21-8.17,18.21-18.21-8.17-18.21-18.21-18.21ZM216.17,126.2v-2.95c0-.38-.31-.68-.68-.68s-.68.31-.68.68v2.95c-8.74-.35-15.79-7.4-16.14-16.14h2.95c.38,0,.68-.31.68-.68s-.31-.68-.68-.68h-2.95c.35-8.74,7.4-15.79,16.14-16.14v2.95c0,.38.31.68.68.68s.68-.31.68-.68v-2.95c8.74.35,15.79,7.4,16.14,16.14h-2.95c-.38,0-.68.31-.68.68s.31.68.68.68h2.95c-.35,8.74-7.4,15.79-16.14,16.14Z"/>
    <path class="cls-4" d="M224.7,99.26l-13.14,5.84c-.15.07-.28.19-.35.35l-5.84,13.14c-.12.26-.06.56.14.76.13.13.31.2.48.2.09,0,.19-.02.28-.06l13.14-5.84c.15-.07.28-.19.35-.35l5.84-13.14c.12-.26.06-.56-.14-.76-.2-.2-.5-.26-.76-.14h0ZM212.05,106.91l.97.97c-.26.43-.42.95-.42,1.49,0,1.59,1.29,2.88,2.88,2.88.55,0,1.06-.15,1.49-.42l.97.97-10.61,4.71,4.71-10.61ZM215.48,110.88c-.83,0-1.51-.68-1.51-1.51s.68-1.51,1.51-1.51,1.51.68,1.51,1.51-.68,1.51-1.51,1.51ZM218.91,111.84l-.97-.97c.26-.43.42-.95.42-1.49,0-1.59-1.29-2.88-2.88-2.88-.55,0-1.06.15-1.49.42l-.97-.97,10.61-4.71-4.71,10.61h0Z"/>
  </g>
  <g>
    <path class="cls-4" d="M136.28,159.8c-.05-.23.19.35-5.44-10.95,0,0-40.81,0-40.81,0-5.69,11.38-5.37,10.73-5.41,10.83-.03.1-.05.17-.05.27,0,.08,0,6.36,0,8.68,0,1.98,1.27,3.67,3.04,4.3v27.65h45.65v-27.65c1.78-.64,3.04-2.35,3.04-4.3v-8.62c0-.12-.02-.22-.02-.21h0ZM91.28,150.89h38.31l4.06,8.11h-46.42l4.06-8.11ZM127.17,168.64c0,2.01-2.36,3.49-4.46,1.8-.39-.32-.61-.81-.61-1.31v-8.1h5.07v7.61ZM112.97,168.64c0,2.01-2.36,3.49-4.46,1.8-.39-.32-.61-.81-.61-1.31v-8.1h5.07v7.61ZM105.87,168.64c0,2.01-2.36,3.49-4.46,1.8-.39-.32-.61-.81-.61-1.31v-8.1h5.07v7.61ZM98.77,168.64c0,2.01-2.36,3.49-4.46,1.8-.39-.32-.61-.81-.61-1.31v-8.1h5.07v7.61ZM115,161.03h5.07v8.1c0,.5-.22,1-.61,1.31-2.1,1.69-4.46.21-4.46-1.8v-7.61ZM86.6,169.12v-8.1h5.07v7.61c0,2.01-2.36,3.49-4.46,1.8-.39-.32-.61-.81-.61-1.31ZM93.7,198.56v-17.24h12.17v17.24h-12.17ZM107.9,198.56v-19.27h-16.23v19.27h-2.03v-25.39c1.23-.14,2.31-.76,3.05-1.67,1.83,2.27,5.27,2.27,7.1,0,1.83,2.27,5.27,2.27,7.1,0,1.83,2.27,5.27,2.27,7.1,0,1.83,2.27,5.27,2.27,7.1,0,1.83,2.27,5.27,2.27,7.1,0,.74.91,1.82,1.54,3.05,1.67v25.39h-23.33ZM134.27,169.12c0,.43-.26,1.02-.6,1.3-2.07,1.72-4.48.26-4.48-1.78v-7.61h5.07v8.09Z"/>
    <path class="cls-4" d="M129.2,179.29h-19.27v15.22h19.27v-15.22ZM127.17,192.47h-15.22v-11.16h15.22v11.16Z"/>
  </g>
  <g>
    <rect class="cls-4" x="79.92" y="151.68" width="6.64" height="23.87"/>
    <path class="cls-2" d="M85.06,153.18v15.59h-3.64v-15.59h3.64M85.06,170.65v3.4h-3.64v-3.4h3.64M88.06,150.18h-9.64v26.87h9.64v-26.87h0Z"/>
  </g>
  <g class="cls-6">
    <g id="g2302">
      <g id="g2308">
        <path id="path2310" class="cls-3" d="M62.87,179.06l-15.14,15.14c-1.35,1.35-1.35,3.53,0,4.88s3.53,1.35,4.88,0l15.14-15.14-4.88-4.88Z"/>
      </g>
      <g id="g2312">
        <path id="path2314" class="cls-3" d="M60.43,181.5l4.88,4.88"/>
      </g>
      <g id="g2316">
        <path id="path2318" class="cls-3" d="M63.68,179.88l3.33-3.34"/>
      </g>
      <g id="g2320">
        <path id="path2322" class="cls-3" d="M66.94,183.13l3.34-3.34"/>
      </g>
      <g id="g2324">
        <path id="path2326" class="cls-3" d="M83.2,142.9c-11.42,0-20.72,9.29-20.72,20.72s9.29,20.72,20.72,20.72,20.72-9.29,20.72-20.72-9.29-20.72-20.72-20.72Z"/>
      </g>
      <g id="g2328">
        <path id="path2330" class="cls-3" d="M69.84,152.7c-2.44,2.98-3.9,6.78-3.9,10.92,0,9.52,7.74,17.26,17.26,17.26s17.26-7.74,17.26-17.26-7.74-17.26-17.26-17.26c-4.14,0-7.94,1.46-10.92,3.9"/>
      </g>
    </g>
  </g>
</svg>