<svg width="1182" height="1182" version="1.1" xmlns="http://www.w3.org/2000/svg" desc="Created with imagetracer.js version 1.2.6" ><path fill="rgb(0,0,0)" stroke="rgb(0,0,0)" stroke-width="1" opacity="0" d="M 0 0 L 1182 0 L 1182 1182 L 0 1182 L 0 0 Z M 146 316 L 146 868 L 1037 868 L 1037 316 L 146 316 Z " /><path fill="rgb(64,103,247)" stroke="rgb(64,103,247)" stroke-width="1" opacity="1" d="M 161 331 L 1022 331 L 1022 853 L 161 853 L 161 331 Z M 418 346 L 416 348 L 416 369 L 388 369 L 386 371 L 386 403 L 388 404 L 483 404 L 484 403 L 484 371 L 483 369 L 454 369 L 454 348 L 453 346 L 418 346 Z M 202 355 L 202 389 L 203 389 L 327 389 L 327 473 L 365 473 L 365 473 L 365 357 L 364 355 L 202 355 Z M 488 355 L 488 559 L 489 559 L 525 559 L 526 558 L 526 468 L 531 469 L 531 559 L 568 559 L 568 559 L 568 355 L 531 355 L 531 433 L 526 433 L 526 357 L 525 355 L 488 355 Z M 599 355 L 597 357 L 597 390 L 623 390 L 596 457 L 636 457 L 657 403 L 677 457 L 717 457 L 690 392 L 691 390 L 716 390 L 716 356 L 716 355 L 599 355 Z M 731 355 L 731 507 L 731 507 L 688 507 L 688 541 L 731 541 L 731 542 L 731 559 L 768 559 L 768 356 L 768 355 L 731 355 Z M 892 366 L 875 369 L 861 374 L 841 387 Q 827 399 818 416 L 812 432 L 810 441 L 810 449 L 809 450 L 810 469 L 813 482 L 821 500 L 828 510 Q 848 536 887 543 L 909 543 L 920 541 Q 940 535 955 523 Q 979 504 986 467 L 986 443 L 984 433 Q 978 409 963 395 Q 950 380 931 372 L 913 367 L 892 366 Z M 423 408 L 415 410 L 406 415 Q 397 421 393 432 L 389 453 L 389 516 L 390 517 L 391 530 L 398 546 L 408 554 L 417 558 L 427 560 L 448 559 L 462 553 Q 471 546 475 535 L 478 520 L 478 448 L 474 431 L 467 420 Q 461 412 450 409 L 445 408 L 423 408 Z M 588 466 L 588 500 L 638 500 L 638 559 L 675 559 L 676 558 L 676 500 L 723 500 L 723 467 L 723 466 L 588 466 Z M 191 482 L 191 517 L 265 517 L 265 563 L 302 563 L 302 517 L 376 517 L 376 483 L 376 482 L 191 482 Z M 344 590 L 343 591 L 329 592 L 310 598 Q 295 605 285 615 Q 272 627 264 644 L 258 662 L 257 675 L 256 676 L 257 695 L 260 708 L 269 728 L 274 734 L 266 743 L 263 741 L 260 742 L 194 808 L 191 814 Q 189 826 195 831 Q 199 836 207 837 L 212 837 L 221 833 L 286 768 L 285 763 L 293 754 L 314 765 L 338 771 L 356 771 L 364 769 L 365 770 L 365 835 L 556 835 L 556 721 L 559 719 Q 566 715 568 707 L 568 664 L 546 619 L 413 619 Q 400 605 382 597 L 366 592 L 344 590 Z M 588 619 L 588 654 L 590 655 L 669 655 L 669 835 L 670 835 L 710 835 L 710 619 L 588 619 Z M 723 619 L 723 835 L 763 835 L 763 740 L 764 739 L 790 739 L 790 702 L 764 702 L 763 702 L 763 619 L 723 619 Z M 801 619 L 801 654 L 803 655 L 856 655 L 856 656 L 856 835 L 897 835 L 897 739 L 904 739 L 904 740 L 904 835 L 945 835 L 945 835 L 945 619 L 904 619 L 904 702 L 898 702 L 897 702 L 897 619 L 801 619 Z M 950 619 L 950 835 L 951 835 L 991 835 L 991 620 L 991 619 L 950 619 Z " /><path fill="rgb(64,103,247)" stroke="rgb(64,103,247)" stroke-width="1" opacity="1" d="M 888.5 373 L 907.5 373 L 927.5 378 Q 945 385 957 397.5 Q 969.4 410.1 976 428.5 L 979 440.5 L 980 460.5 L 977 477.5 L 971 492.5 Q 963 507.5 950.5 518 Q 940.3 526.8 926.5 532 L 911.5 536 L 894.5 537 L 893.5 536 L 884.5 536 L 875.5 534 L 858.5 527 Q 843.4 518.6 833 505.5 Q 824.1 493.9 819 478.5 L 816 463.5 L 816 445.5 L 818 434.5 L 826 414.5 Q 833.1 402.1 843.5 393 Q 852.9 384.4 865.5 379 L 873.5 376 L 888.5 373 Z M 894 378 L 893 379 L 881 380 L 869 384 Q 856 389 847 398 Q 834 409 827 426 L 822 443 L 822 453 L 821 454 Q 823 485 838 503 Q 855 525 889 531 L 907 531 L 921 528 Q 936 523 948 513 Q 968 496 974 465 L 974 445 L 971 432 Q 966 418 958 408 Q 946 392 928 384 L 911 379 L 894 378 Z " /><path fill="rgb(64,103,247)" stroke="rgb(64,103,247)" stroke-width="1" opacity="1" d="M 890.5 385 L 894 385.5 L 894 396.5 L 896.5 400 Q 900.3 400.8 901 398.5 L 901 385.5 Q 901 384.5 905.5 385 Q 937.2 390.3 953 411.5 L 964 431.5 L 967 443.5 L 967 451 L 955.5 451 L 953 452 L 952 455.5 L 954.5 458 L 967 458 L 967 466.5 L 963 480.5 Q 956.3 496.3 944.5 507 Q 935.5 515 923.5 520 L 908.5 524 L 901 524 L 901 511.5 L 898.5 509 L 895 510 L 894 512.5 L 894 524 L 881.5 523 L 867.5 518 Q 853.5 511 844 499.5 Q 830 484.3 828 458 L 841.5 458 L 843 456.5 Q 843.8 451.8 840.5 451 L 828.5 451 L 828 448.5 L 832 430.5 Q 838.6 414.1 850.5 403 L 868.5 391 L 879.5 387 L 890.5 385 Z M 936 412 L 882 436 L 879 439 L 855 493 L 855 496 L 859 498 L 915 473 L 920 464 L 941 415 Q 940 411 936 412 Z " /><path fill="rgb(64,103,247)" stroke="rgb(64,103,247)" stroke-width="1" opacity="1" d="M 929.5 422 L 931 422.5 L 911.5 464 Q 908.5 463.5 909 459.5 Q 911.8 457.7 910 451.5 L 904.5 444 L 896.5 442 L 891.5 444 L 889 440 L 929.5 422 Z " /><path fill="rgb(64,103,247)" stroke="rgb(64,103,247)" stroke-width="1" opacity="1" d="M 432.5 441 Q 437.6 440.4 439 443.5 L 441 447.5 Q 439.3 453.8 442 455.5 L 442 511.5 L 440 522.5 L 436.5 526 Q 430 527 428 523.5 L 426 517.5 L 426 450.5 L 428 444.5 L 430.5 442 L 432.5 441 Z " /><path fill="rgb(64,103,247)" stroke="rgb(64,103,247)" stroke-width="1" opacity="1" d="M 883 446 L 887 448.5 L 885 455.5 Q 885.9 462.1 890.5 465 Q 893.8 468.2 901.5 467 L 904.5 466 Q 909 468 905.5 470 L 865.5 487 L 866 485.5 L 883 446 Z " /><path fill="rgb(64,103,247)" stroke="rgb(64,103,247)" stroke-width="1" opacity="1" d="M 895.5 449 Q 901.3 448.2 903 451.5 L 904 455.5 L 900.5 460 L 897.5 461 L 893 458.5 L 892 452.5 L 895.5 449 Z " /><path fill="rgb(64,103,247)" stroke="rgb(64,103,247)" stroke-width="1" opacity="1" d="M 343.5 598 L 359.5 599 L 372.5 602 Q 389.1 607.9 401 618.5 L 390.5 619 Q 372.6 603.4 337.5 605 L 327.5 607 L 313.5 612 L 298 622.5 L 297 625.5 L 299.5 629 L 302.5 629 Q 312.6 619.6 327.5 615 L 337.5 613 L 356.5 613 L 365.5 615 L 367 616.5 L 359 633.5 L 361 637.5 L 361.5 653 L 377.5 622 L 381.5 622 L 397 634.5 Q 406.7 645 411 660 L 361.5 660 L 361 660.5 L 361 671 L 378 671 L 378 709.5 Q 376.8 715.3 372.5 718 Q 369.8 720.8 363.5 720 L 361 719 Q 362.3 727 358 730.5 L 358 748 L 342.5 749 L 341.5 748 L 329.5 747 L 318.5 743 Q 304.5 736.5 295 725.5 Q 285.9 714.6 281 699.5 L 279 690.5 L 279 670.5 L 283 655.5 Q 287.4 644.4 295 636.5 L 295 633.5 L 290.5 631 L 287 633.5 Q 278.5 643.5 274 657.5 L 271 670.5 L 271 690.5 Q 276.5 721.5 296.5 738 Q 306.4 746.6 319.5 752 L 334.5 756 L 351.5 757 L 364.5 754 L 365 761 L 356.5 763 L 337.5 763 L 322.5 760 L 304.5 752 Q 292.2 744.3 283 733.5 Q 272.4 721.1 267 703.5 L 265 694.5 L 265 686.5 L 264 685.5 L 264 675.5 L 265 674.5 L 266 662.5 L 270 649.5 Q 277.4 631.9 290.5 620 Q 301.2 610.2 315.5 604 L 328.5 600 L 342.5 599 L 343.5 598 Z M 340 637 L 340 704 L 341 704 L 356 704 L 356 638 L 356 637 L 340 637 Z M 340 712 L 340 726 L 356 726 L 356 712 L 340 712 Z " /><path fill="rgb(64,103,247)" stroke="rgb(64,103,247)" stroke-width="1" opacity="1" d="M 402 628 Q 410.8 626 413 631.5 Q 422.4 643.6 427 660.5 L 420.5 661 L 412 641.5 L 402 628 Z " /><path fill="rgb(64,103,247)" stroke="rgb(64,103,247)" stroke-width="1" opacity="1" d="M 420.5 628 L 539.5 628 L 540 629.5 L 556 660.5 L 435.5 661 L 434 659.5 L 431 647.5 L 420.5 628 Z " /><path fill="rgb(64,103,247)" stroke="rgb(64,103,247)" stroke-width="1" opacity="1" d="M 422 670 L 427.5 670 L 428 671.5 L 429 672.5 L 429 689.5 L 426 704.5 L 423.5 709 Q 421.3 709.8 422 707.5 Q 419.2 704.8 420 698.5 L 422 692.5 L 423 677.5 L 422 676.5 L 422 670 Z " /><path fill="rgb(64,103,247)" stroke="rgb(64,103,247)" stroke-width="1" opacity="1" d="M 436 670 L 441 670.5 L 441 703.5 L 436.5 710 L 431.5 712 L 432 710.5 L 437 689.5 L 437 672.5 L 436 670 Z " /><path fill="rgb(64,103,247)" stroke="rgb(64,103,247)" stroke-width="1" opacity="1" d="M 450 670 L 470 670 L 470 705.5 L 466.5 710 Q 464.2 712.7 458.5 712 L 451 707.5 L 450 705.5 L 450 670 Z " /><path fill="rgb(64,103,247)" stroke="rgb(64,103,247)" stroke-width="1" opacity="1" d="M 480 670 L 500 670 L 500 705.5 L 496.5 710 Q 493.6 712.6 487.5 712 L 481 707.5 L 480 705.5 L 480 670 Z " /><path fill="rgb(64,103,247)" stroke="rgb(64,103,247)" stroke-width="1" opacity="1" d="M 509 670 L 529 670 L 529 705.5 L 525.5 710 Q 523.2 712.7 517.5 712 L 510 707.5 L 509 705.5 L 509 670 Z " /><path fill="rgb(64,103,247)" stroke="rgb(64,103,247)" stroke-width="1" opacity="1" d="M 539 670 L 559 670 L 559 705.5 L 555.5 710 L 547.5 712 L 541 708.5 L 539 704.5 L 539 670 Z " /><path fill="rgb(64,103,247)" stroke="rgb(64,103,247)" stroke-width="1" opacity="1" d="M 389 671 L 412 671 L 412 700.5 Q 409 712.5 401.5 720 Q 392.4 719.6 389 713.5 L 389 671 Z " /><path fill="rgb(64,103,247)" stroke="rgb(64,103,247)" stroke-width="1" opacity="1" d="M 415.5 714 L 420 718.5 L 419 719.5 Q 411.4 735.9 397.5 746 L 386 745.5 Q 398 739 406 728.5 L 415.5 714 Z " /><path fill="rgb(64,103,247)" stroke="rgb(64,103,247)" stroke-width="1" opacity="1" d="M 504.5 714 Q 509.5 722 523.5 721 L 534.5 715 Q 538.8 720 546 721 L 546 826 L 450 826 L 450 746 L 409.5 746 L 418 736.5 L 427 721 L 434.5 721 L 446.5 715 Q 451 722.5 464.5 721 L 475.5 715 Q 480.3 722.7 494.5 721 L 504.5 714 Z M 458 746 L 458 810 L 539 810 L 539 746 L 458 746 Z " /><path fill="rgb(64,103,247)" stroke="rgb(64,103,247)" stroke-width="1" opacity="1" d="M 383.5 723 L 390.5 729 L 393 729 L 389.5 734 L 369.5 745 L 369 731.5 L 377.5 728 L 383.5 723 Z " /><path fill="rgb(64,103,247)" stroke="rgb(64,103,247)" stroke-width="1" opacity="1" d="M 278.5 741 L 287 748.5 L 278.5 756 L 271 748.5 L 278.5 741 Z " /><path fill="rgb(64,103,247)" stroke="rgb(64,103,247)" stroke-width="1" opacity="1" d="M 379.5 749 L 381 749.5 L 381 756 L 374 758 L 374 751.5 L 375.5 751 L 379.5 749 Z " /><path fill="rgb(64,103,247)" stroke="rgb(64,103,247)" stroke-width="1" opacity="1" d="M 261.5 751 L 277 765.5 L 271.5 770 L 257 755.5 L 261.5 751 Z " /><path fill="rgb(64,103,247)" stroke="rgb(64,103,247)" stroke-width="1" opacity="1" d="M 397.5 755 L 441 755 L 441 826 L 391 826 L 391 759.5 L 397.5 755 Z " /><path fill="rgb(64,103,247)" stroke="rgb(64,103,247)" stroke-width="1" opacity="1" d="M 467 755 L 529 755 L 529 800 L 467 800 L 467 755 Z " /><path fill="rgb(64,103,247)" stroke="rgb(64,103,247)" stroke-width="1" opacity="1" d="M 251.5 761 L 266 774.5 L 266 776.5 L 215.5 827 Q 212.8 829.8 206.5 829 L 201 825.5 Q 197.4 822.6 199 814.5 L 251.5 761 Z " /><path fill="rgb(64,103,247)" stroke="rgb(64,103,247)" stroke-width="1" opacity="1" d="M 380.5 764 L 381 826 L 374.5 826 L 374 825.5 L 374 767.5 L 380.5 764 Z " /><path fill="rgb(218,225,253)" stroke="rgb(218,225,253)" stroke-width="1" opacity="1" d="M 597.5 356 L 598 389 L 624 389.5 L 598.5 390 L 597 388.5 L 597.5 356 Z " /><path fill="rgb(218,225,253)" stroke="rgb(218,225,253)" stroke-width="1" opacity="1" d="M 890.5 372 L 894 372.5 L 890.5 373 L 890.5 372 Z " /><path fill="rgb(218,225,253)" stroke="rgb(218,225,253)" stroke-width="1" opacity="1" d="M 902.5 372 L 906 372.5 L 902.5 373 L 902.5 372 Z " /><path fill="rgb(218,225,253)" stroke="rgb(218,225,253)" stroke-width="1" opacity="1" d="M 901.5 384 L 903 384.5 L 901 385 L 900.5 398 L 900 385.5 L 901.5 384 Z " /><path fill="rgb(218,225,253)" stroke="rgb(218,225,253)" stroke-width="1" opacity="1" d="M 953.5 386 L 954.5 388 L 953.5 386 Z " /><path fill="rgb(218,225,253)" stroke="rgb(218,225,253)" stroke-width="1" opacity="1" d="M 202.5 388 L 326.5 388 L 328 389.5 L 328 472 L 363.5 472 L 363.5 473 L 328.5 473 L 327 471.5 L 327 389 L 202.5 389 L 202.5 388 Z " /><path fill="rgb(218,225,253)" stroke="rgb(218,225,253)" stroke-width="1" opacity="1" d="M 689 389 L 716 389.5 L 690.5 390 L 689.5 391 L 689 389 Z " /><path fill="rgb(218,225,253)" stroke="rgb(218,225,253)" stroke-width="1" opacity="1" d="M 838.5 389 L 832.5 396 L 838.5 389 Z " /><path fill="rgb(218,225,253)" stroke="rgb(218,225,253)" stroke-width="1" opacity="1" d="M 847.5 389 L 846.5 391 L 847.5 389 Z " /><path fill="rgb(218,225,253)" stroke="rgb(218,225,253)" stroke-width="1" opacity="1" d="M 949.5 390 L 950.5 392 L 949.5 390 Z " /><path fill="rgb(218,225,253)" stroke="rgb(218,225,253)" stroke-width="1" opacity="1" d="M 841.5 394 L 837.5 399 L 841.5 394 Z " /><path fill="rgb(218,225,253)" stroke="rgb(218,225,253)" stroke-width="1" opacity="1" d="M 850.5 395 L 849.5 397 L 850.5 395 Z " /><path fill="rgb(218,225,253)" stroke="rgb(218,225,253)" stroke-width="1" opacity="1" d="M 946.5 396 L 948.5 399 L 946.5 396 Z " /><path fill="rgb(218,225,253)" stroke="rgb(218,225,253)" stroke-width="1" opacity="1" d="M 895.5 398 L 896.5 400 L 895.5 398 Z " /><path fill="rgb(218,225,253)" stroke="rgb(218,225,253)" stroke-width="1" opacity="1" d="M 965.5 398 L 966.5 400 L 965.5 398 Z " /><path fill="rgb(218,225,253)" stroke="rgb(218,225,253)" stroke-width="1" opacity="1" d="M 829.5 399 L 828.5 401 L 829.5 399 Z " /><path fill="rgb(218,225,253)" stroke="rgb(218,225,253)" stroke-width="1" opacity="1" d="M 854.5 399 L 853.5 401 L 854.5 399 Z " /><path fill="rgb(218,225,253)" stroke="rgb(218,225,253)" stroke-width="1" opacity="1" d="M 942.5 400 L 944.5 403 L 942.5 400 Z " /><path fill="rgb(218,225,253)" stroke="rgb(218,225,253)" stroke-width="1" opacity="1" d="M 656.5 401 L 655.5 403 L 656.5 401 Z " /><path fill="rgb(218,225,253)" stroke="rgb(218,225,253)" stroke-width="1" opacity="1" d="M 960.5 401 L 962.5 404 L 960.5 401 Z " /><path fill="rgb(218,225,253)" stroke="rgb(218,225,253)" stroke-width="1" opacity="1" d="M 833.5 403 L 832.5 405 L 833.5 403 Z " /><path fill="rgb(218,225,253)" stroke="rgb(218,225,253)" stroke-width="1" opacity="1" d="M 954.5 404 L 956.5 407 L 954.5 404 Z " /><path fill="rgb(218,225,253)" stroke="rgb(218,225,253)" stroke-width="1" opacity="1" d="M 839.5 406 L 838.5 408 L 839.5 406 Z " /><path fill="rgb(218,225,253)" stroke="rgb(218,225,253)" stroke-width="1" opacity="1" d="M 964.5 406 L 965.5 408 L 964.5 406 Z " /><path fill="rgb(218,225,253)" stroke="rgb(218,225,253)" stroke-width="1" opacity="1" d="M 949.5 407 L 952.5 411 L 949.5 407 Z " /><path fill="rgb(218,225,253)" stroke="rgb(218,225,253)" stroke-width="1" opacity="1" d="M 425.5 408 L 428 408.5 L 425.5 409 L 425.5 408 Z " /><path fill="rgb(218,225,253)" stroke="rgb(218,225,253)" stroke-width="1" opacity="1" d="M 439.5 408 L 442 408.5 L 439.5 409 L 439.5 408 Z " /><path fill="rgb(218,225,253)" stroke="rgb(218,225,253)" stroke-width="1" opacity="1" d="M 958.5 409 L 959.5 411 L 958.5 409 Z " /><path fill="rgb(218,225,253)" stroke="rgb(218,225,253)" stroke-width="1" opacity="1" d="M 843.5 410 L 842.5 412 L 843.5 410 Z " /><path fill="rgb(218,225,253)" stroke="rgb(218,225,253)" stroke-width="1" opacity="1" d="M 936.5 412 L 940 413.5 L 938.5 413 Q 935.5 413.5 936.5 412 Z " /><path fill="rgb(218,225,253)" stroke="rgb(218,225,253)" stroke-width="1" opacity="1" d="M 954.5 413 L 955.5 415 L 954.5 413 Z " /><path fill="rgb(218,225,253)" stroke="rgb(218,225,253)" stroke-width="1" opacity="1" d="M 461.5 415 L 462.5 417 L 461.5 415 Z " /><path fill="rgb(218,225,253)" stroke="rgb(218,225,253)" stroke-width="1" opacity="1" d="M 404.5 416 L 399.5 422 L 404.5 416 Z " /><path fill="rgb(218,225,253)" stroke="rgb(218,225,253)" stroke-width="1" opacity="1" d="M 888.5 441 L 891.5 445 L 888.5 441 Z " /><path fill="rgb(218,225,253)" stroke="rgb(218,225,253)" stroke-width="1" opacity="1" d="M 428.5 443 L 427.5 445 L 428.5 443 Z " /><path fill="rgb(218,225,253)" stroke="rgb(218,225,253)" stroke-width="1" opacity="1" d="M 810.5 443 L 811 445.5 L 810 445.5 L 810.5 443 Z " /><path fill="rgb(218,225,253)" stroke="rgb(218,225,253)" stroke-width="1" opacity="1" d="M 822.5 445 L 823 447.5 L 822 447.5 L 822.5 445 Z " /><path fill="rgb(218,225,253)" stroke="rgb(218,225,253)" stroke-width="1" opacity="1" d="M 884.5 445 L 887.5 449 L 884.5 445 Z " /><path fill="rgb(218,225,253)" stroke="rgb(218,225,253)" stroke-width="1" opacity="1" d="M 905.5 445 L 906.5 447 L 905.5 445 Z " /><path fill="rgb(218,225,253)" stroke="rgb(218,225,253)" stroke-width="1" opacity="1" d="M 390.5 446 L 391 448.5 L 390 448.5 L 390.5 446 Z " /><path fill="rgb(218,225,253)" stroke="rgb(218,225,253)" stroke-width="1" opacity="1" d="M 985.5 446 L 986 449.5 L 985 449.5 L 985.5 446 Z " /><path fill="rgb(218,225,253)" stroke="rgb(218,225,253)" stroke-width="1" opacity="1" d="M 815.5 448 L 816 460.5 L 815 460.5 L 815.5 448 Z " /><path fill="rgb(218,225,253)" stroke="rgb(218,225,253)" stroke-width="1" opacity="1" d="M 901.5 449 L 902.5 451 L 901.5 449 Z " /><path fill="rgb(218,225,253)" stroke="rgb(218,225,253)" stroke-width="1" opacity="1" d="M 973.5 449 L 974 460.5 L 973 460.5 L 973.5 449 Z " /><path fill="rgb(218,225,253)" stroke="rgb(218,225,253)" stroke-width="1" opacity="1" d="M 841.5 452 L 842.5 454 L 841.5 452 Z " /><path fill="rgb(218,225,253)" stroke="rgb(218,225,253)" stroke-width="1" opacity="1" d="M 477.5 453 L 478 456.5 L 477 456.5 L 477.5 453 Z " /><path fill="rgb(218,225,253)" stroke="rgb(218,225,253)" stroke-width="1" opacity="1" d="M 891.5 453 L 892 455.5 L 891 455.5 L 891.5 453 Z " /><path fill="rgb(218,225,253)" stroke="rgb(218,225,253)" stroke-width="1" opacity="1" d="M 597.5 456 L 636 456.5 L 597.5 457 L 597.5 456 Z " /><path fill="rgb(218,225,253)" stroke="rgb(218,225,253)" stroke-width="1" opacity="1" d="M 678.5 456 L 716 456.5 L 678.5 457 L 678.5 456 Z " /><path fill="rgb(218,225,253)" stroke="rgb(218,225,253)" stroke-width="1" opacity="1" d="M 828.5 457 L 841 457.5 L 828.5 458 L 828.5 457 Z " /><path fill="rgb(218,225,253)" stroke="rgb(218,225,253)" stroke-width="1" opacity="1" d="M 955.5 457 L 968 457.5 L 955.5 458 L 955.5 457 Z " /><path fill="rgb(218,225,253)" stroke="rgb(218,225,253)" stroke-width="1" opacity="1" d="M 985.5 460 L 986 462.5 L 985 462.5 L 985.5 460 Z " /><path fill="rgb(218,225,253)" stroke="rgb(218,225,253)" stroke-width="1" opacity="1" d="M 822.5 461 L 823 463.5 L 822 463.5 L 822.5 461 Z " /><path fill="rgb(218,225,253)" stroke="rgb(218,225,253)" stroke-width="1" opacity="1" d="M 908.5 461 L 913 464.5 L 911.5 465 L 908.5 461 Z " /><path fill="rgb(218,225,253)" stroke="rgb(218,225,253)" stroke-width="1" opacity="1" d="M 389.5 462 L 390 504.5 L 389 504.5 L 389.5 462 Z " /><path fill="rgb(218,225,253)" stroke="rgb(218,225,253)" stroke-width="1" opacity="1" d="M 904.5 465 L 908 469.5 L 907 469.5 L 904.5 465 Z " /><path fill="rgb(218,225,253)" stroke="rgb(218,225,253)" stroke-width="1" opacity="1" d="M 895.5 466 L 900 466.5 L 895.5 467 L 895.5 466 Z " /><path fill="rgb(218,225,253)" stroke="rgb(218,225,253)" stroke-width="1" opacity="1" d="M 525.5 467 L 531 467.5 L 525.5 468 L 525.5 467 Z " /><path fill="rgb(218,225,253)" stroke="rgb(218,225,253)" stroke-width="1" opacity="1" d="M 375.5 483 L 376 515.5 L 374.5 517 L 302.5 517 L 302.5 516 L 375 516 L 375.5 483 Z " /><path fill="rgb(218,225,253)" stroke="rgb(218,225,253)" stroke-width="1" opacity="1" d="M 836.5 499 L 837.5 501 L 836.5 499 Z " /><path fill="rgb(218,225,253)" stroke="rgb(218,225,253)" stroke-width="1" opacity="1" d="M 844.5 500 L 851.5 508 L 844.5 500 Z " /><path fill="rgb(218,225,253)" stroke="rgb(218,225,253)" stroke-width="1" opacity="1" d="M 830.5 502 L 831.5 504 L 830.5 502 Z " /><path fill="rgb(218,225,253)" stroke="rgb(218,225,253)" stroke-width="1" opacity="1" d="M 948.5 503 L 946.5 506 L 948.5 503 Z " /><path fill="rgb(218,225,253)" stroke="rgb(218,225,253)" stroke-width="1" opacity="1" d="M 840.5 504 L 848.5 513 L 840.5 504 Z " /><path fill="rgb(218,225,253)" stroke="rgb(218,225,253)" stroke-width="1" opacity="1" d="M 826.5 506 L 827.5 508 L 826.5 506 Z " /><path fill="rgb(218,225,253)" stroke="rgb(218,225,253)" stroke-width="1" opacity="1" d="M 688.5 507 L 689 540.5 L 688 540.5 L 688.5 507 Z " /><path fill="rgb(218,225,253)" stroke="rgb(218,225,253)" stroke-width="1" opacity="1" d="M 834.5 507 L 836.5 510 L 834.5 507 Z " /><path fill="rgb(218,225,253)" stroke="rgb(218,225,253)" stroke-width="1" opacity="1" d="M 952.5 507 L 950.5 510 L 952.5 507 Z " /><path fill="rgb(218,225,253)" stroke="rgb(218,225,253)" stroke-width="1" opacity="1" d="M 941.5 509 L 940.5 511 L 941.5 509 Z " /><path fill="rgb(218,225,253)" stroke="rgb(218,225,253)" stroke-width="1" opacity="1" d="M 959.5 509 L 952.5 517 L 959.5 509 Z " /><path fill="rgb(218,225,253)" stroke="rgb(218,225,253)" stroke-width="1" opacity="1" d="M 477.5 510 L 478 514.5 L 477 514.5 L 477.5 510 Z " /><path fill="rgb(218,225,253)" stroke="rgb(218,225,253)" stroke-width="1" opacity="1" d="M 830.5 511 L 832.5 514 L 830.5 511 Z " /><path fill="rgb(218,225,253)" stroke="rgb(218,225,253)" stroke-width="1" opacity="1" d="M 900.5 511 L 901 524.5 L 900 524.5 L 900.5 511 Z " /><path fill="rgb(218,225,253)" stroke="rgb(218,225,253)" stroke-width="1" opacity="1" d="M 425.5 513 L 426 515.5 L 425 515.5 L 425.5 513 Z " /><path fill="rgb(218,225,253)" stroke="rgb(218,225,253)" stroke-width="1" opacity="1" d="M 945.5 513 L 944.5 515 L 945.5 513 Z " /><path fill="rgb(218,225,253)" stroke="rgb(218,225,253)" stroke-width="1" opacity="1" d="M 963.5 513 L 956.5 521 L 963.5 513 Z " /><path fill="rgb(218,225,253)" stroke="rgb(218,225,253)" stroke-width="1" opacity="1" d="M 191.5 516 L 265 516.5 L 191.5 517 L 191.5 516 Z " /><path fill="rgb(218,225,253)" stroke="rgb(218,225,253)" stroke-width="1" opacity="1" d="M 843.5 516 L 845.5 519 L 843.5 516 Z " /><path fill="rgb(218,225,253)" stroke="rgb(218,225,253)" stroke-width="1" opacity="1" d="M 390.5 519 L 391 521.5 L 390 521.5 L 390.5 519 Z " /><path fill="rgb(218,225,253)" stroke="rgb(218,225,253)" stroke-width="1" opacity="1" d="M 839.5 520 L 841.5 523 L 839.5 520 Z " /><path fill="rgb(218,225,253)" stroke="rgb(218,225,253)" stroke-width="1" opacity="1" d="M 476.5 522 L 477 524.5 L 476 524.5 L 476.5 522 Z " /><path fill="rgb(218,225,253)" stroke="rgb(218,225,253)" stroke-width="1" opacity="1" d="M 888.5 524 L 891 524.5 L 888.5 525 L 888.5 524 Z " /><path fill="rgb(218,225,253)" stroke="rgb(218,225,253)" stroke-width="1" opacity="1" d="M 893.5 530 L 902 530.5 L 893.5 531 L 893.5 530 Z " /><path fill="rgb(218,225,253)" stroke="rgb(218,225,253)" stroke-width="1" opacity="1" d="M 907.5 536 L 910 536.5 L 907.5 537 L 907.5 536 Z " /><path fill="rgb(218,225,253)" stroke="rgb(218,225,253)" stroke-width="1" opacity="1" d="M 890.5 542 L 895 542.5 L 890.5 543 L 890.5 542 Z " /><path fill="rgb(218,225,253)" stroke="rgb(218,225,253)" stroke-width="1" opacity="1" d="M 900.5 542 L 905 542.5 L 900.5 543 L 900.5 542 Z " /><path fill="rgb(218,225,253)" stroke="rgb(218,225,253)" stroke-width="1" opacity="1" d="M 467.5 546 L 463.5 551 L 467.5 546 Z " /><path fill="rgb(218,225,253)" stroke="rgb(218,225,253)" stroke-width="1" opacity="1" d="M 400.5 547 L 402.5 550 L 400.5 547 Z " /><path fill="rgb(218,225,253)" stroke="rgb(218,225,253)" stroke-width="1" opacity="1" d="M 265.5 562 L 302 562.5 L 265.5 563 L 265.5 562 Z " /><path fill="rgb(218,225,253)" stroke="rgb(218,225,253)" stroke-width="1" opacity="1" d="M 336.5 591 L 339 591.5 L 336.5 592 L 336.5 591 Z " /><path fill="rgb(218,225,253)" stroke="rgb(218,225,253)" stroke-width="1" opacity="1" d="M 354.5 591 L 357 591.5 L 354.5 592 L 354.5 591 Z " /><path fill="rgb(218,225,253)" stroke="rgb(218,225,253)" stroke-width="1" opacity="1" d="M 341.5 605 L 352 605.5 L 341.5 606 L 341.5 605 Z " /><path fill="rgb(218,225,253)" stroke="rgb(218,225,253)" stroke-width="1" opacity="1" d="M 289.5 611 L 288.5 613 L 289.5 611 Z " /><path fill="rgb(218,225,253)" stroke="rgb(218,225,253)" stroke-width="1" opacity="1" d="M 299.5 612 L 298.5 614 L 299.5 612 Z " /><path fill="rgb(218,225,253)" stroke="rgb(218,225,253)" stroke-width="1" opacity="1" d="M 339.5 612 L 342 612.5 L 339.5 613 L 339.5 612 Z " /><path fill="rgb(218,225,253)" stroke="rgb(218,225,253)" stroke-width="1" opacity="1" d="M 351.5 612 L 354 612.5 L 351.5 613 L 351.5 612 Z " /><path fill="rgb(218,225,253)" stroke="rgb(218,225,253)" stroke-width="1" opacity="1" d="M 396.5 614 L 397.5 616 L 396.5 614 Z " /><path fill="rgb(218,225,253)" stroke="rgb(218,225,253)" stroke-width="1" opacity="1" d="M 295.5 615 L 294.5 617 L 295.5 615 Z " /><path fill="rgb(218,225,253)" stroke="rgb(218,225,253)" stroke-width="1" opacity="1" d="M 408.5 615 L 411.5 619 L 408.5 615 Z " /><path fill="rgb(218,225,253)" stroke="rgb(218,225,253)" stroke-width="1" opacity="1" d="M 376.5 621 L 381 621.5 L 376.5 622 L 376.5 621 Z " /><path fill="rgb(218,225,253)" stroke="rgb(218,225,253)" stroke-width="1" opacity="1" d="M 278.5 622 L 277.5 624 L 278.5 622 Z " /><path fill="rgb(218,225,253)" stroke="rgb(218,225,253)" stroke-width="1" opacity="1" d="M 364.5 623 L 365 624.5 L 363 625.5 L 364.5 623 Z " /><path fill="rgb(218,225,253)" stroke="rgb(218,225,253)" stroke-width="1" opacity="1" d="M 374.5 625 L 374 626.5 L 372.5 630 L 372 628.5 L 374.5 625 Z " /><path fill="rgb(218,225,253)" stroke="rgb(218,225,253)" stroke-width="1" opacity="1" d="M 388.5 626 L 389.5 628 L 388.5 626 Z " /><path fill="rgb(218,225,253)" stroke="rgb(218,225,253)" stroke-width="1" opacity="1" d="M 400.5 627 L 410 627.5 L 400.5 628 L 400.5 627 Z " /><path fill="rgb(218,225,253)" stroke="rgb(218,225,253)" stroke-width="1" opacity="1" d="M 419 627 L 539.5 627 L 541 628.5 L 539.5 628 L 420.5 628 L 419.5 629 L 419 627 Z " /><path fill="rgb(218,225,253)" stroke="rgb(218,225,253)" stroke-width="1" opacity="1" d="M 282.5 628 L 281.5 630 L 282.5 628 Z " /><path fill="rgb(218,225,253)" stroke="rgb(218,225,253)" stroke-width="1" opacity="1" d="M 404.5 632 L 405.5 634 L 404.5 632 Z " /><path fill="rgb(218,225,253)" stroke="rgb(218,225,253)" stroke-width="1" opacity="1" d="M 286.5 635 L 285.5 637 L 286.5 635 Z " /><path fill="rgb(218,225,253)" stroke="rgb(218,225,253)" stroke-width="1" opacity="1" d="M 407.5 636 L 408.5 638 L 407.5 636 Z " /><path fill="rgb(218,225,253)" stroke="rgb(218,225,253)" stroke-width="1" opacity="1" d="M 340.5 637 L 341 702.5 L 340 702.5 L 340.5 637 Z " /><path fill="rgb(218,225,253)" stroke="rgb(218,225,253)" stroke-width="1" opacity="1" d="M 355.5 637 L 356 702.5 L 355 702.5 L 355.5 637 Z " /><path fill="rgb(218,225,253)" stroke="rgb(218,225,253)" stroke-width="1" opacity="1" d="M 399.5 637 L 400.5 639 L 399.5 637 Z " /><path fill="rgb(218,225,253)" stroke="rgb(218,225,253)" stroke-width="1" opacity="1" d="M 367.5 639 L 367 640.5 L 365.5 644 L 365 642.5 L 367.5 639 Z " /><path fill="rgb(218,225,253)" stroke="rgb(218,225,253)" stroke-width="1" opacity="1" d="M 361.5 661 L 412 661.5 L 361.5 662 L 361.5 661 Z " /><path fill="rgb(218,225,253)" stroke="rgb(218,225,253)" stroke-width="1" opacity="1" d="M 449.5 670 L 450 704.5 L 449 704.5 L 449.5 670 Z " /><path fill="rgb(218,225,253)" stroke="rgb(218,225,253)" stroke-width="1" opacity="1" d="M 500.5 670 L 501 704.5 L 500 704.5 L 500.5 670 Z " /><path fill="rgb(218,225,253)" stroke="rgb(218,225,253)" stroke-width="1" opacity="1" d="M 559.5 670 L 560 704.5 L 559 704.5 L 559.5 670 Z " /><path fill="rgb(218,225,253)" stroke="rgb(218,225,253)" stroke-width="1" opacity="1" d="M 378.5 671 L 379 710.5 L 378 710.5 L 378.5 671 Z " /><path fill="rgb(218,225,253)" stroke="rgb(218,225,253)" stroke-width="1" opacity="1" d="M 387.5 671 L 388 710.5 L 387 710.5 L 387.5 671 Z " /><path fill="rgb(218,225,253)" stroke="rgb(218,225,253)" stroke-width="1" opacity="1" d="M 413.5 671 L 414 693.5 L 413 693.5 L 413.5 671 Z " /><path fill="rgb(218,225,253)" stroke="rgb(218,225,253)" stroke-width="1" opacity="1" d="M 421.5 671 L 422 673.5 L 421 673.5 L 421.5 671 Z " /><path fill="rgb(218,225,253)" stroke="rgb(218,225,253)" stroke-width="1" opacity="1" d="M 278.5 672 L 279 674.5 L 278 674.5 L 278.5 672 Z " /><path fill="rgb(218,225,253)" stroke="rgb(218,225,253)" stroke-width="1" opacity="1" d="M 271.5 674 L 272 678.5 L 271 678.5 L 271.5 674 Z " /><path fill="rgb(218,225,253)" stroke="rgb(218,225,253)" stroke-width="1" opacity="1" d="M 429.5 675 L 430 686.5 L 429 686.5 L 429.5 675 Z " /><path fill="rgb(218,225,253)" stroke="rgb(218,225,253)" stroke-width="1" opacity="1" d="M 271.5 683 L 272 686.5 L 271 686.5 L 271.5 683 Z " /><path fill="rgb(218,225,253)" stroke="rgb(218,225,253)" stroke-width="1" opacity="1" d="M 257.5 689 L 258 691.5 L 257 691.5 L 257.5 689 Z " /><path fill="rgb(218,225,253)" stroke="rgb(218,225,253)" stroke-width="1" opacity="1" d="M 762.5 702 L 789 702.5 L 762.5 703 L 762.5 702 Z " /><path fill="rgb(218,225,253)" stroke="rgb(218,225,253)" stroke-width="1" opacity="1" d="M 896.5 702 L 905 702.5 L 896.5 703 L 896.5 702 Z " /><path fill="rgb(218,225,253)" stroke="rgb(218,225,253)" stroke-width="1" opacity="1" d="M 439.5 707 L 436.5 711 L 439.5 707 Z " /><path fill="rgb(218,225,253)" stroke="rgb(218,225,253)" stroke-width="1" opacity="1" d="M 450.5 707 L 452.5 710 L 450.5 707 Z " /><path fill="rgb(218,225,253)" stroke="rgb(218,225,253)" stroke-width="1" opacity="1" d="M 558.5 707 L 556.5 710 L 558.5 707 Z " /><path fill="rgb(218,225,253)" stroke="rgb(218,225,253)" stroke-width="1" opacity="1" d="M 481.5 708 L 482.5 710 L 481.5 708 Z " /><path fill="rgb(218,225,253)" stroke="rgb(218,225,253)" stroke-width="1" opacity="1" d="M 498.5 708 L 497.5 710 L 498.5 708 Z " /><path fill="rgb(218,225,253)" stroke="rgb(218,225,253)" stroke-width="1" opacity="1" d="M 510.5 708 L 511.5 710 L 510.5 708 Z " /><path fill="rgb(218,225,253)" stroke="rgb(218,225,253)" stroke-width="1" opacity="1" d="M 527.5 708 L 526.5 710 L 527.5 708 Z " /><path fill="rgb(218,225,253)" stroke="rgb(218,225,253)" stroke-width="1" opacity="1" d="M 340.5 712 L 341 725.5 L 340 725.5 L 340.5 712 Z " /><path fill="rgb(218,225,253)" stroke="rgb(218,225,253)" stroke-width="1" opacity="1" d="M 355.5 712 L 356 725.5 L 355 725.5 L 355.5 712 Z " /><path fill="rgb(218,225,253)" stroke="rgb(218,225,253)" stroke-width="1" opacity="1" d="M 377.5 712 L 378 713.5 L 376 714.5 L 377.5 712 Z " /><path fill="rgb(218,225,253)" stroke="rgb(218,225,253)" stroke-width="1" opacity="1" d="M 564.5 712 L 563.5 714 L 564.5 712 Z " /><path fill="rgb(218,225,253)" stroke="rgb(218,225,253)" stroke-width="1" opacity="1" d="M 416.5 714 L 417.5 716 L 416.5 714 Z " /><path fill="rgb(218,225,253)" stroke="rgb(218,225,253)" stroke-width="1" opacity="1" d="M 444.5 714 L 442.5 717 L 444.5 714 Z " /><path fill="rgb(218,225,253)" stroke="rgb(218,225,253)" stroke-width="1" opacity="1" d="M 503.5 714 L 501.5 717 L 503.5 714 Z " /><path fill="rgb(218,225,253)" stroke="rgb(218,225,253)" stroke-width="1" opacity="1" d="M 505.5 714 L 507.5 717 L 505.5 714 Z " /><path fill="rgb(218,225,253)" stroke="rgb(218,225,253)" stroke-width="1" opacity="1" d="M 533.5 714 L 532.5 716 L 533.5 714 Z " /><path fill="rgb(218,225,253)" stroke="rgb(218,225,253)" stroke-width="1" opacity="1" d="M 560.5 716 L 559.5 718 L 560.5 716 Z " /><path fill="rgb(218,225,253)" stroke="rgb(218,225,253)" stroke-width="1" opacity="1" d="M 363.5 720 L 369 720.5 L 363.5 721 L 363.5 720 Z " /><path fill="rgb(218,225,253)" stroke="rgb(218,225,253)" stroke-width="1" opacity="1" d="M 398.5 720 L 402 720.5 L 398.5 721 L 398.5 720 Z " /><path fill="rgb(218,225,253)" stroke="rgb(218,225,253)" stroke-width="1" opacity="1" d="M 427.5 720 L 433 720.5 L 426.5 722 L 427.5 720 Z " /><path fill="rgb(218,225,253)" stroke="rgb(218,225,253)" stroke-width="1" opacity="1" d="M 457.5 720 L 463 720.5 L 457.5 721 L 457.5 720 Z " /><path fill="rgb(218,225,253)" stroke="rgb(218,225,253)" stroke-width="1" opacity="1" d="M 487.5 720 L 493 720.5 L 487.5 721 L 487.5 720 Z " /><path fill="rgb(218,225,253)" stroke="rgb(218,225,253)" stroke-width="1" opacity="1" d="M 517.5 720 L 522 720.5 L 517.5 721 L 517.5 720 Z " /><path fill="rgb(218,225,253)" stroke="rgb(218,225,253)" stroke-width="1" opacity="1" d="M 382.5 722 L 384 722.5 L 378.5 727 L 382.5 722 Z " /><path fill="rgb(218,225,253)" stroke="rgb(218,225,253)" stroke-width="1" opacity="1" d="M 287.5 727 L 288.5 729 L 287.5 727 Z " /><path fill="rgb(218,225,253)" stroke="rgb(218,225,253)" stroke-width="1" opacity="1" d="M 297.5 728 L 298.5 730 L 297.5 728 Z " /><path fill="rgb(218,225,253)" stroke="rgb(218,225,253)" stroke-width="1" opacity="1" d="M 414.5 728 L 413.5 730 L 414.5 728 Z " /><path fill="rgb(218,225,253)" stroke="rgb(218,225,253)" stroke-width="1" opacity="1" d="M 279.5 729 L 281.5 732 L 279.5 729 Z " /><path fill="rgb(218,225,253)" stroke="rgb(218,225,253)" stroke-width="1" opacity="1" d="M 369.5 729 L 371 729.5 L 368.5 731 L 369.5 729 Z " /><path fill="rgb(218,225,253)" stroke="rgb(218,225,253)" stroke-width="1" opacity="1" d="M 394.5 729 L 391.5 733 L 394.5 729 Z " /><path fill="rgb(218,225,253)" stroke="rgb(218,225,253)" stroke-width="1" opacity="1" d="M 272.5 731 L 273.5 733 L 272.5 731 Z " /><path fill="rgb(218,225,253)" stroke="rgb(218,225,253)" stroke-width="1" opacity="1" d="M 402.5 731 L 396.5 738 L 402.5 731 Z " /><path fill="rgb(218,225,253)" stroke="rgb(218,225,253)" stroke-width="1" opacity="1" d="M 411.5 732 L 409.5 735 L 411.5 732 Z " /><path fill="rgb(218,225,253)" stroke="rgb(218,225,253)" stroke-width="1" opacity="1" d="M 283.5 734 L 292.5 744 L 283.5 734 Z " /><path fill="rgb(218,225,253)" stroke="rgb(218,225,253)" stroke-width="1" opacity="1" d="M 304.5 734 L 305.5 736 L 304.5 734 Z " /><path fill="rgb(218,225,253)" stroke="rgb(218,225,253)" stroke-width="1" opacity="1" d="M 273.5 735 L 266.5 743 L 273.5 735 Z " /><path fill="rgb(218,225,253)" stroke="rgb(218,225,253)" stroke-width="1" opacity="1" d="M 387.5 735 L 386.5 737 L 387.5 735 Z " /><path fill="rgb(218,225,253)" stroke="rgb(218,225,253)" stroke-width="1" opacity="1" d="M 415.5 738 L 412.5 742 L 415.5 738 Z " /><path fill="rgb(218,225,253)" stroke="rgb(218,225,253)" stroke-width="1" opacity="1" d="M 299.5 739 L 300.5 741 L 299.5 739 Z " /><path fill="rgb(218,225,253)" stroke="rgb(218,225,253)" stroke-width="1" opacity="1" d="M 278.5 740 L 288 748.5 L 278.5 757 L 270 748.5 L 278.5 740 Z M 279 741 L 271 749 L 279 756 L 287 749 L 279 741 Z " /><path fill="rgb(218,225,253)" stroke="rgb(218,225,253)" stroke-width="1" opacity="1" d="M 258.5 743 L 195.5 807 L 258.5 743 Z " /><path fill="rgb(218,225,253)" stroke="rgb(218,225,253)" stroke-width="1" opacity="1" d="M 400.5 743 L 398.5 746 L 400.5 743 Z " /><path fill="rgb(218,225,253)" stroke="rgb(218,225,253)" stroke-width="1" opacity="1" d="M 295.5 745 L 297.5 748 L 295.5 745 Z " /><path fill="rgb(218,225,253)" stroke="rgb(218,225,253)" stroke-width="1" opacity="1" d="M 449.5 746 L 450 826 L 547 826.5 L 450.5 827 L 449 825.5 L 449.5 746 Z " /><path fill="rgb(218,225,253)" stroke="rgb(218,225,253)" stroke-width="1" opacity="1" d="M 261.5 750 L 257.5 755 L 261.5 750 Z " /><path fill="rgb(218,225,253)" stroke="rgb(218,225,253)" stroke-width="1" opacity="1" d="M 264.5 752 L 275.5 764 L 264.5 752 Z " /><path fill="rgb(218,225,253)" stroke="rgb(218,225,253)" stroke-width="1" opacity="1" d="M 292.5 753 L 285 761.5 L 284.5 763 L 284 761.5 L 292.5 753 Z " /><path fill="rgb(218,225,253)" stroke="rgb(218,225,253)" stroke-width="1" opacity="1" d="M 336.5 755 L 339 755.5 L 336.5 756 L 336.5 755 Z " /><path fill="rgb(218,225,253)" stroke="rgb(218,225,253)" stroke-width="1" opacity="1" d="M 391.5 758 L 390.5 760 L 391.5 758 Z " /><path fill="rgb(218,225,253)" stroke="rgb(218,225,253)" stroke-width="1" opacity="1" d="M 251.5 760 L 200.5 812 L 251.5 760 Z " /><path fill="rgb(218,225,253)" stroke="rgb(218,225,253)" stroke-width="1" opacity="1" d="M 339.5 763 L 344 763.5 L 339.5 764 L 339.5 763 Z " /><path fill="rgb(218,225,253)" stroke="rgb(218,225,253)" stroke-width="1" opacity="1" d="M 350.5 763 L 354 763.5 L 350.5 764 L 350.5 763 Z " /><path fill="rgb(218,225,253)" stroke="rgb(218,225,253)" stroke-width="1" opacity="1" d="M 276.5 766 L 272.5 771 L 276.5 766 Z " /><path fill="rgb(218,225,253)" stroke="rgb(218,225,253)" stroke-width="1" opacity="1" d="M 343.5 770 L 350 770.5 L 343.5 771 L 343.5 770 Z " /><path fill="rgb(218,225,253)" stroke="rgb(218,225,253)" stroke-width="1" opacity="1" d="M 266.5 776 L 216.5 827 L 266.5 776 Z " /><path fill="rgb(218,225,253)" stroke="rgb(218,225,253)" stroke-width="1" opacity="1" d="M 373.5 826 L 382 826.5 L 373.5 827 L 373.5 826 Z " /><path fill="rgb(218,225,253)" stroke="rgb(218,225,253)" stroke-width="1" opacity="1" d="M 390.5 826 L 441 826.5 L 390.5 827 L 390.5 826 Z " /><path fill="rgb(255,255,255)" stroke="rgb(255,255,255)" stroke-width="1" opacity="1" d="M 146 316 L 1037 316 L 1037 868 L 146 868 L 146 316 Z M 161 331 L 161 853 L 1022 853 L 1022 331 L 161 331 Z " /><path fill="rgb(255,255,255)" stroke="rgb(255,255,255)" stroke-width="1" opacity="1" d="M 417 347 L 453 347 L 453 370 L 483 370 L 483 403 L 387 403 L 387 370 L 417 370 L 417 347 Z " /><path fill="rgb(255,255,255)" stroke="rgb(255,255,255)" stroke-width="1" opacity="1" d="M 202 356 L 364 356 L 364 472 L 328 472 L 328 389.5 L 326.5 388 L 202 388 L 202 356 Z " /><path fill="rgb(255,255,255)" stroke="rgb(255,255,255)" stroke-width="1" opacity="1" d="M 488 356 L 525 356 L 525 433.5 L 525.5 434 L 531 434 L 531 356 L 568 356 L 568 557.5 L 567.5 558 L 531 558 L 531 467.5 L 530.5 467 L 525 467 L 525 558 L 488 558 L 488 356 Z " /><path fill="rgb(255,255,255)" stroke="rgb(255,255,255)" stroke-width="1" opacity="1" d="M 598 356 L 715.5 356 L 716 356.5 L 716 389 L 689.5 389 L 689 390.5 L 716 455.5 L 677 456 L 656.5 401 L 636 456 L 597 455.5 L 624 389 L 598 389 L 598 356 Z " /><path fill="rgb(255,255,255)" stroke="rgb(255,255,255)" stroke-width="1" opacity="1" d="M 731 356 L 767.5 356 L 768 356.5 L 768 558 L 731 558 L 731 541.5 L 730.5 541 L 689 541 L 689 507 L 730.5 507 L 731 506.5 L 731 356 Z " /><path fill="rgb(255,255,255)" stroke="rgb(255,255,255)" stroke-width="1" opacity="1" d="M 888.5 367 L 907.5 367 L 928.5 372 Q 950.8 380.7 965 397.5 Q 974.3 408.2 980 422.5 L 985 440.5 L 986 459.5 L 982 481.5 L 975 497.5 Q 966.2 513.2 952.5 524 Q 932 541.5 895.5 543 L 894.5 542 L 879.5 541 L 863.5 536 Q 845.4 528.1 833 514.5 Q 820.6 501.4 814 482.5 L 810 463.5 L 810 446.5 L 813 430.5 L 821 411.5 Q 829.6 396.6 842.5 386 L 864.5 373 L 888.5 367 Z M 891 372 L 875 375 L 867 378 Q 852 384 842 394 Q 828 406 821 424 L 817 436 L 816 448 L 815 449 L 815 461 L 818 478 Q 823 495 834 508 Q 852 530 887 537 L 910 537 L 923 534 Q 940 528 953 517 Q 974 499 980 467 L 980 443 L 977 430 Q 972 415 963 404 Q 950 387 930 378 L 913 373 L 891 372 Z " /><path fill="rgb(255,255,255)" stroke="rgb(255,255,255)" stroke-width="1" opacity="1" d="M 890.5 379 L 905.5 379 L 925.5 384 Q 942.6 390.9 954 403.5 Q 964.4 414.6 970 430.5 L 973 443.5 L 973 466.5 Q 967.1 497.1 946.5 513 Q 935 523 918.5 528 L 908.5 530 L 886.5 530 Q 854.3 523.7 838 501.5 Q 829.4 491.1 825 476.5 L 822 460.5 L 822 448.5 L 823 447.5 L 824 436.5 L 831 418.5 Q 838 406 848.5 397 L 867.5 385 L 875.5 382 L 890.5 379 Z M 894 384 L 893 385 L 881 386 L 872 389 L 855 399 Q 834 414 828 443 L 828 452 L 841 452 L 843 456 L 842 457 L 828 457 L 828 467 L 832 481 Q 836 492 844 501 Q 855 513 871 520 Q 881 525 895 525 L 895 512 L 897 510 L 900 511 L 900 525 Q 930 523 947 506 Q 963 491 968 465 L 968 457 L 955 457 L 953 454 L 955 452 L 968 452 L 968 445 L 964 430 L 953 411 Q 944 400 933 393 L 919 387 L 903 384 L 900 386 L 900 399 L 899 399 Q 897 402 895 398 L 895 385 L 894 384 Z " /><path fill="rgb(255,255,255)" stroke="rgb(255,255,255)" stroke-width="1" opacity="1" d="M 428.5 408 L 438.5 408 L 453.5 411 Q 462.4 414.6 468 421.5 L 474 432.5 L 477 445.5 L 477 456.5 L 478 457.5 L 478 509.5 L 477 510.5 L 476 528.5 L 473 537.5 Q 468.7 547.2 460.5 553 L 452.5 557 L 443.5 559 L 424.5 559 L 408.5 554 L 398 544.5 L 392 530.5 L 391 519.5 L 390 518.5 L 390 449.5 L 391 448.5 L 392 436.5 L 395 428.5 L 406.5 415 L 416.5 410 L 427.5 409 L 428.5 408 Z M 434 440 L 431 441 L 427 445 L 425 453 L 425 516 L 428 525 L 432 527 L 438 526 L 442 519 L 442 450 L 439 442 L 434 440 Z " /><path fill="rgb(255,255,255)" stroke="rgb(255,255,255)" stroke-width="1" opacity="1" d="M 935.5 413 Q 939.3 412.3 940 414.5 L 917 468.5 L 913.5 473 L 857.5 497 Q 855.3 496.3 856 492.5 L 881.5 437 L 935.5 413 Z M 931 421 L 888 441 L 892 445 L 895 443 L 904 444 Q 908 447 910 454 L 908 462 L 913 465 L 932 422 L 931 421 Z M 884 445 L 864 488 L 865 489 L 906 470 L 908 470 L 905 465 L 903 466 Q 895 468 892 465 L 886 458 Q 885 451 888 449 L 884 445 Z M 897 448 L 895 449 L 891 454 L 893 460 L 896 461 Q 903 462 904 458 L 903 451 Q 902 447 897 448 Z " /><path fill="rgb(255,255,255)" stroke="rgb(255,255,255)" stroke-width="1" opacity="1" d="M 589 466 L 721.5 466 L 722 466.5 L 722 500 L 675 500 L 675 558 L 638 558 L 638 500 L 589 500 L 589 466 Z " /><path fill="rgb(255,255,255)" stroke="rgb(255,255,255)" stroke-width="1" opacity="1" d="M 191 483 L 374.5 483 L 375 483.5 L 375 516 L 302 516 L 302 562 L 265 562 L 265 516 L 191 516 L 191 483 Z " /><path fill="rgb(255,255,255)" stroke="rgb(255,255,255)" stroke-width="1" opacity="1" d="M 339.5 591 L 361.5 592 L 379.5 597 Q 398.8 604.7 411.5 619 L 544.5 619 L 546 620.5 L 568 665.5 L 568 703.5 Q 566.3 711.3 561.5 716 L 555 719 L 555 835 L 365 835 L 365 769.5 Q 364.9 768.4 359.5 769 L 358.5 770 L 335.5 770 L 312.5 764 L 292.5 753 L 284 762.5 L 286 765.5 L 219.5 833 Q 215.1 837.1 205.5 836 Q 198.5 834.5 195 829.5 L 192 824.5 L 191 816.5 L 194 808.5 L 260.5 742 L 266.5 743 L 274 735.5 L 274 732.5 L 268 724.5 L 261 708.5 L 257 688.5 L 257 672.5 L 260 656.5 L 269 635.5 Q 276.5 622.5 287.5 613 Q 297.9 603.9 311.5 598 L 322.5 594 L 339.5 591 Z M 336 598 Q 311 602 296 615 Q 271 633 264 669 L 264 693 L 266 703 Q 272 721 283 735 Q 292 745 304 752 L 324 761 L 340 764 L 354 764 L 362 762 L 365 762 L 365 754 L 355 756 L 340 756 L 325 753 Q 309 748 299 739 Q 286 728 278 713 L 273 698 L 272 684 L 271 683 L 272 669 L 275 657 Q 280 642 290 632 Q 293 631 294 634 L 293 639 Q 286 646 282 657 L 278 673 L 278 689 L 283 708 Q 288 720 297 729 Q 307 739 322 745 L 337 749 L 358 749 L 359 748 L 359 731 Q 363 727 361 720 L 364 721 Q 370 722 373 719 Q 378 717 379 711 L 379 671 L 361 671 L 361 663 L 362 662 L 412 662 Q 410 648 401 639 L 389 626 L 381 621 L 376 621 L 362 651 L 361 636 L 360 635 L 368 615 L 354 612 L 340 612 L 329 614 Q 313 619 303 628 L 300 628 Q 297 627 298 624 Q 312 610 336 606 L 359 606 L 364 607 Q 379 611 390 619 L 402 619 Q 390 607 372 601 L 358 598 L 336 598 Z M 401 627 L 413 645 L 419 660 L 419 662 L 427 662 L 424 650 L 413 631 Q 411 625 401 627 Z M 419 627 Q 429 640 434 660 L 435 662 L 557 662 L 541 629 L 540 627 L 419 627 Z M 421 670 L 422 675 L 422 688 L 420 696 L 420 707 L 425 710 L 428 700 L 429 688 L 430 687 L 430 676 L 429 675 L 429 670 L 421 670 Z M 436 670 L 436 692 L 431 712 L 437 711 L 441 706 L 441 671 L 436 670 Z M 449 670 L 449 705 L 450 708 Q 453 714 465 712 L 471 705 L 471 670 L 449 670 Z M 479 670 L 479 705 L 481 709 L 486 712 Q 494 713 498 710 L 501 705 L 501 670 L 479 670 Z M 509 670 L 509 707 L 510 709 L 516 712 Q 524 714 527 710 L 530 705 L 530 670 L 509 670 Z M 538 670 L 538 705 L 545 712 Q 553 713 557 710 L 560 705 L 560 670 L 538 670 Z M 387 671 L 387 711 L 388 714 Q 392 720 402 721 L 405 718 L 411 706 L 414 694 L 414 671 L 387 671 Z M 416 714 L 406 728 Q 398 739 385 746 L 399 746 Q 412 735 421 719 L 416 714 Z M 445 714 Q 440 721 428 720 Q 420 735 409 746 L 449 746 L 449 826 L 451 827 L 547 827 L 547 720 L 544 720 L 535 714 L 525 720 Q 510 722 506 714 L 504 714 L 496 720 Q 480 722 476 714 L 466 720 L 455 720 L 445 714 Z M 383 722 L 378 727 L 368 731 L 369 746 Q 385 741 395 730 L 389 726 Q 386 727 387 724 L 383 722 Z M 279 740 L 270 749 L 279 757 L 288 749 L 279 740 Z M 382 747 L 375 751 L 373 752 L 373 759 L 382 756 L 382 747 Z M 262 750 L 257 756 L 273 771 L 277 767 L 276 764 L 262 750 Z M 399 754 L 390 760 L 390 827 L 441 827 L 441 754 L 399 754 Z M 252 760 L 200 812 L 198 816 L 198 822 L 205 829 Q 213 831 217 827 L 267 777 L 252 760 Z M 382 763 L 373 766 L 373 827 L 374 827 L 382 827 L 382 763 Z " /><path fill="rgb(255,255,255)" stroke="rgb(255,255,255)" stroke-width="1" opacity="1" d="M 589 619 L 709 619 L 709 835 L 670.5 835 L 670 834.5 L 670 654 L 589 654 L 589 619 Z " /><path fill="rgb(255,255,255)" stroke="rgb(255,255,255)" stroke-width="1" opacity="1" d="M 723 619 L 762 619 L 762 702.5 L 762.5 703 L 789 703 L 789 738 L 762.5 738 L 762 738.5 L 762 835 L 723 835 L 723 619 Z " /><path fill="rgb(255,255,255)" stroke="rgb(255,255,255)" stroke-width="1" opacity="1" d="M 802 619 L 896 619 L 896 702.5 L 896.5 703 L 905 703 L 905 619 L 944 619 L 944 834.5 L 943.5 835 L 905 835 L 905 738.5 L 904.5 738 L 896 738 L 896 835 L 857 835 L 857 654.5 L 856.5 654 L 802 654 L 802 619 Z " /><path fill="rgb(255,255,255)" stroke="rgb(255,255,255)" stroke-width="1" opacity="1" d="M 951 619 L 989.5 619 L 990 619.5 L 990 835 L 951.5 835 L 951 834.5 L 951 619 Z " /><path fill="rgb(255,255,255)" stroke="rgb(255,255,255)" stroke-width="1" opacity="1" d="M 341 637 L 354.5 637 L 355 637.5 L 355 703 L 341.5 703 L 341 702.5 L 341 637 Z " /><path fill="rgb(255,255,255)" stroke="rgb(255,255,255)" stroke-width="1" opacity="1" d="M 341 712 L 355 712 L 355 726 L 341 726 L 341 712 Z " /><path fill="rgb(255,255,255)" stroke="rgb(255,255,255)" stroke-width="1" opacity="1" d="M 458 746 L 538 746 L 538 809 L 458 809 L 458 746 Z M 466 754 L 466 801 L 530 801 L 530 754 L 466 754 Z " /><path fill="rgb(137,161,250)" stroke="rgb(137,161,250)" stroke-width="1" opacity="1" d="M 417.5 346 L 452.5 346 L 454 347.5 L 454 369 L 482.5 369 L 484 370.5 L 484 402.5 L 482.5 404 L 387.5 404 L 386 402.5 L 386 370.5 L 387.5 369 L 416 369 L 416 347.5 L 417.5 346 Z M 417 347 L 417 369 L 416 370 L 387 370 L 387 403 L 483 403 L 483 370 L 455 370 L 453 369 L 453 347 L 417 347 Z " /><path fill="rgb(137,161,250)" stroke="rgb(137,161,250)" stroke-width="1" opacity="1" d="M 202.5 355 L 363.5 355 L 365 356.5 L 364.5 473 L 364 356 L 202.5 356 L 202.5 355 Z " /><path fill="rgb(137,161,250)" stroke="rgb(137,161,250)" stroke-width="1" opacity="1" d="M 488.5 355 L 524.5 355 L 526 356.5 L 526 432.5 Q 526 433.5 530.5 433 L 530.5 434 Q 525.1 434.6 525 433.5 L 525 356 L 488.5 356 L 488.5 355 Z " /><path fill="rgb(137,161,250)" stroke="rgb(137,161,250)" stroke-width="1" opacity="1" d="M 531.5 355 L 568 355.5 L 531.5 356 L 531.5 355 Z " /><path fill="rgb(137,161,250)" stroke="rgb(137,161,250)" stroke-width="1" opacity="1" d="M 598.5 355 L 716 355.5 L 598.5 356 L 598.5 355 Z " /><path fill="rgb(137,161,250)" stroke="rgb(137,161,250)" stroke-width="1" opacity="1" d="M 731.5 355 L 768 355.5 L 731.5 356 L 731.5 355 Z " /><path fill="rgb(137,161,250)" stroke="rgb(137,161,250)" stroke-width="1" opacity="1" d="M 891.5 366 L 905 366.5 L 891.5 367 L 891.5 366 Z " /><path fill="rgb(137,161,250)" stroke="rgb(137,161,250)" stroke-width="1" opacity="1" d="M 883.5 367 L 886 367.5 L 883.5 368 L 883.5 367 Z " /><path fill="rgb(137,161,250)" stroke="rgb(137,161,250)" stroke-width="1" opacity="1" d="M 910.5 367 L 913 367.5 L 910.5 368 L 910.5 367 Z " /><path fill="rgb(137,161,250)" stroke="rgb(137,161,250)" stroke-width="1" opacity="1" d="M 894.5 372 L 902 372.5 L 894.5 373 L 894.5 372 Z " /><path fill="rgb(137,161,250)" stroke="rgb(137,161,250)" stroke-width="1" opacity="1" d="M 885.5 373 L 888 373.5 L 885.5 374 L 885.5 373 Z " /><path fill="rgb(137,161,250)" stroke="rgb(137,161,250)" stroke-width="1" opacity="1" d="M 908.5 373 L 911 373.5 L 908.5 374 L 908.5 373 Z " /><path fill="rgb(137,161,250)" stroke="rgb(137,161,250)" stroke-width="1" opacity="1" d="M 893.5 378 L 902 378.5 L 893.5 379 L 893.5 378 Z " /><path fill="rgb(137,161,250)" stroke="rgb(137,161,250)" stroke-width="1" opacity="1" d="M 885.5 379 L 888 379.5 L 885.5 380 L 885.5 379 Z " /><path fill="rgb(137,161,250)" stroke="rgb(137,161,250)" stroke-width="1" opacity="1" d="M 908.5 379 L 911 379.5 L 908.5 380 L 908.5 379 Z " /><path fill="rgb(137,161,250)" stroke="rgb(137,161,250)" stroke-width="1" opacity="1" d="M 947.5 381 L 948.5 383 L 947.5 381 Z " /><path fill="rgb(137,161,250)" stroke="rgb(137,161,250)" stroke-width="1" opacity="1" d="M 845.5 383 L 844.5 385 L 845.5 383 Z " /><path fill="rgb(137,161,250)" stroke="rgb(137,161,250)" stroke-width="1" opacity="1" d="M 951.5 384 L 952.5 386 L 951.5 384 Z " /><path fill="rgb(137,161,250)" stroke="rgb(137,161,250)" stroke-width="1" opacity="1" d="M 887.5 385 L 890 385.5 L 887.5 386 L 887.5 385 Z " /><path fill="rgb(137,161,250)" stroke="rgb(137,161,250)" stroke-width="1" opacity="1" d="M 894.5 385 L 895 396.5 L 894 396.5 L 894.5 385 Z " /><path fill="rgb(137,161,250)" stroke="rgb(137,161,250)" stroke-width="1" opacity="1" d="M 906.5 385 L 909 385.5 L 906.5 386 L 906.5 385 Z " /><path fill="rgb(137,161,250)" stroke="rgb(137,161,250)" stroke-width="1" opacity="1" d="M 840.5 387 L 839.5 389 L 840.5 387 Z " /><path fill="rgb(137,161,250)" stroke="rgb(137,161,250)" stroke-width="1" opacity="1" d="M 850.5 387 L 849.5 389 L 850.5 387 Z " /><path fill="rgb(137,161,250)" stroke="rgb(137,161,250)" stroke-width="1" opacity="1" d="M 946.5 388 L 947.5 390 L 946.5 388 Z " /><path fill="rgb(137,161,250)" stroke="rgb(137,161,250)" stroke-width="1" opacity="1" d="M 957.5 389 L 962.5 395 L 957.5 389 Z " /><path fill="rgb(137,161,250)" stroke="rgb(137,161,250)" stroke-width="1" opacity="1" d="M 845.5 391 L 844.5 393 L 845.5 391 Z " /><path fill="rgb(137,161,250)" stroke="rgb(137,161,250)" stroke-width="1" opacity="1" d="M 951.5 392 L 953.5 395 L 951.5 392 Z " /><path fill="rgb(137,161,250)" stroke="rgb(137,161,250)" stroke-width="1" opacity="1" d="M 852.5 393 L 851.5 395 L 852.5 393 Z " /><path fill="rgb(137,161,250)" stroke="rgb(137,161,250)" stroke-width="1" opacity="1" d="M 944.5 394 L 945.5 396 L 944.5 394 Z " /><path fill="rgb(137,161,250)" stroke="rgb(137,161,250)" stroke-width="1" opacity="1" d="M 831.5 396 L 830.5 398 L 831.5 396 Z " /><path fill="rgb(137,161,250)" stroke="rgb(137,161,250)" stroke-width="1" opacity="1" d="M 857.5 397 L 856.5 399 L 857.5 397 Z " /><path fill="rgb(137,161,250)" stroke="rgb(137,161,250)" stroke-width="1" opacity="1" d="M 846.5 398 L 841.5 404 L 846.5 398 Z " /><path fill="rgb(137,161,250)" stroke="rgb(137,161,250)" stroke-width="1" opacity="1" d="M 900.5 398 L 899.5 400 L 900.5 398 Z " /><path fill="rgb(137,161,250)" stroke="rgb(137,161,250)" stroke-width="1" opacity="1" d="M 939.5 398 L 940.5 400 L 939.5 398 Z " /><path fill="rgb(137,161,250)" stroke="rgb(137,161,250)" stroke-width="1" opacity="1" d="M 957.5 398 L 959.5 401 L 957.5 398 Z " /><path fill="rgb(137,161,250)" stroke="rgb(137,161,250)" stroke-width="1" opacity="1" d="M 827.5 401 L 826.5 403 L 827.5 401 Z " /><path fill="rgb(137,161,250)" stroke="rgb(137,161,250)" stroke-width="1" opacity="1" d="M 835.5 401 L 834.5 403 L 835.5 401 Z " /><path fill="rgb(137,161,250)" stroke="rgb(137,161,250)" stroke-width="1" opacity="1" d="M 852.5 401 L 851.5 403 L 852.5 401 Z " /><path fill="rgb(137,161,250)" stroke="rgb(137,161,250)" stroke-width="1" opacity="1" d="M 656.5 402 L 655.5 404 L 656.5 402 Z " /><path fill="rgb(137,161,250)" stroke="rgb(137,161,250)" stroke-width="1" opacity="1" d="M 945.5 403 L 948.5 407 L 945.5 403 Z " /><path fill="rgb(137,161,250)" stroke="rgb(137,161,250)" stroke-width="1" opacity="1" d="M 831.5 406 L 830.5 408 L 831.5 406 Z " /><path fill="rgb(137,161,250)" stroke="rgb(137,161,250)" stroke-width="1" opacity="1" d="M 846.5 407 L 844.5 410 L 846.5 407 Z " /><path fill="rgb(137,161,250)" stroke="rgb(137,161,250)" stroke-width="1" opacity="1" d="M 422.5 408 L 425 408.5 L 422.5 409 L 422.5 408 Z " /><path fill="rgb(137,161,250)" stroke="rgb(137,161,250)" stroke-width="1" opacity="1" d="M 442.5 408 L 445 408.5 L 442.5 409 L 442.5 408 Z " /><path fill="rgb(137,161,250)" stroke="rgb(137,161,250)" stroke-width="1" opacity="1" d="M 837.5 408 L 836.5 410 L 837.5 408 Z " /><path fill="rgb(137,161,250)" stroke="rgb(137,161,250)" stroke-width="1" opacity="1" d="M 829.5 409 L 828.5 411 L 829.5 409 Z " /><path fill="rgb(137,161,250)" stroke="rgb(137,161,250)" stroke-width="1" opacity="1" d="M 841.5 413 L 840.5 415 L 841.5 413 Z " /><path fill="rgb(137,161,250)" stroke="rgb(137,161,250)" stroke-width="1" opacity="1" d="M 955.5 415 L 956.5 417 L 955.5 415 Z " /><path fill="rgb(137,161,250)" stroke="rgb(137,161,250)" stroke-width="1" opacity="1" d="M 839.5 416 L 838.5 418 L 839.5 416 Z " /><path fill="rgb(137,161,250)" stroke="rgb(137,161,250)" stroke-width="1" opacity="1" d="M 465.5 418 L 466.5 420 L 465.5 418 Z " /><path fill="rgb(137,161,250)" stroke="rgb(137,161,250)" stroke-width="1" opacity="1" d="M 881.5 436 L 879.5 439 L 881.5 436 Z " /><path fill="rgb(137,161,250)" stroke="rgb(137,161,250)" stroke-width="1" opacity="1" d="M 476.5 440 L 477 442.5 L 476 442.5 L 476.5 440 Z " /><path fill="rgb(137,161,250)" stroke="rgb(137,161,250)" stroke-width="1" opacity="1" d="M 810.5 440 L 811 442.5 L 810 442.5 L 810.5 440 Z " /><path fill="rgb(137,161,250)" stroke="rgb(137,161,250)" stroke-width="1" opacity="1" d="M 966.5 440 L 967 442.5 L 966 442.5 L 966.5 440 Z " /><path fill="rgb(137,161,250)" stroke="rgb(137,161,250)" stroke-width="1" opacity="1" d="M 816.5 442 L 817 444.5 L 816 444.5 L 816.5 442 Z " /><path fill="rgb(137,161,250)" stroke="rgb(137,161,250)" stroke-width="1" opacity="1" d="M 822.5 442 L 823 444.5 L 822 444.5 L 822.5 442 Z " /><path fill="rgb(137,161,250)" stroke="rgb(137,161,250)" stroke-width="1" opacity="1" d="M 896.5 442 L 900 442.5 L 896.5 443 L 896.5 442 Z " /><path fill="rgb(137,161,250)" stroke="rgb(137,161,250)" stroke-width="1" opacity="1" d="M 985.5 442 L 986 445.5 L 985 445.5 L 985.5 442 Z " /><path fill="rgb(137,161,250)" stroke="rgb(137,161,250)" stroke-width="1" opacity="1" d="M 390.5 443 L 391 445.5 L 390 445.5 L 390.5 443 Z " /><path fill="rgb(137,161,250)" stroke="rgb(137,161,250)" stroke-width="1" opacity="1" d="M 828.5 444 L 829 447.5 L 828 447.5 L 828.5 444 Z " /><path fill="rgb(137,161,250)" stroke="rgb(137,161,250)" stroke-width="1" opacity="1" d="M 973.5 444 L 974 448.5 L 973 448.5 L 973.5 444 Z " /><path fill="rgb(137,161,250)" stroke="rgb(137,161,250)" stroke-width="1" opacity="1" d="M 979.5 444 L 980 448.5 L 979 448.5 L 979.5 444 Z " /><path fill="rgb(137,161,250)" stroke="rgb(137,161,250)" stroke-width="1" opacity="1" d="M 967.5 446 L 968 452 L 955 451.5 L 967 451 L 967.5 446 Z " /><path fill="rgb(137,161,250)" stroke="rgb(137,161,250)" stroke-width="1" opacity="1" d="M 477.5 447 L 478 452.5 L 477 452.5 L 477.5 447 Z " /><path fill="rgb(137,161,250)" stroke="rgb(137,161,250)" stroke-width="1" opacity="1" d="M 907.5 447 L 908.5 449 L 907.5 447 Z " /><path fill="rgb(137,161,250)" stroke="rgb(137,161,250)" stroke-width="1" opacity="1" d="M 809.5 449 L 810 460.5 L 809 460.5 L 809.5 449 Z " /><path fill="rgb(137,161,250)" stroke="rgb(137,161,250)" stroke-width="1" opacity="1" d="M 441.5 450 L 442 454.5 L 441 454.5 L 441.5 450 Z " /><path fill="rgb(137,161,250)" stroke="rgb(137,161,250)" stroke-width="1" opacity="1" d="M 828.5 451 L 841 451.5 L 828.5 452 L 828.5 451 Z " /><path fill="rgb(137,161,250)" stroke="rgb(137,161,250)" stroke-width="1" opacity="1" d="M 389.5 452 L 390 461.5 L 389 461.5 L 389.5 452 Z " /><path fill="rgb(137,161,250)" stroke="rgb(137,161,250)" stroke-width="1" opacity="1" d="M 821.5 453 L 822 456.5 L 821 456.5 L 821.5 453 Z " /><path fill="rgb(137,161,250)" stroke="rgb(137,161,250)" stroke-width="1" opacity="1" d="M 885.5 453 L 886 455.5 L 885 455.5 L 885.5 453 Z " /><path fill="rgb(137,161,250)" stroke="rgb(137,161,250)" stroke-width="1" opacity="1" d="M 425.5 454 L 426 512.5 L 425 512.5 L 425.5 454 Z " /><path fill="rgb(137,161,250)" stroke="rgb(137,161,250)" stroke-width="1" opacity="1" d="M 842.5 456 L 841.5 458 L 842.5 456 Z " /><path fill="rgb(137,161,250)" stroke="rgb(137,161,250)" stroke-width="1" opacity="1" d="M 902.5 458 L 901.5 460 L 902.5 458 Z " /><path fill="rgb(137,161,250)" stroke="rgb(137,161,250)" stroke-width="1" opacity="1" d="M 967.5 458 L 968 462.5 L 967 462.5 L 967.5 458 Z " /><path fill="rgb(137,161,250)" stroke="rgb(137,161,250)" stroke-width="1" opacity="1" d="M 887.5 461 L 888.5 463 L 887.5 461 Z " /><path fill="rgb(137,161,250)" stroke="rgb(137,161,250)" stroke-width="1" opacity="1" d="M 973.5 461 L 974 464.5 L 973 464.5 L 973.5 461 Z " /><path fill="rgb(137,161,250)" stroke="rgb(137,161,250)" stroke-width="1" opacity="1" d="M 979.5 461 L 980 464.5 L 979 464.5 L 979.5 461 Z " /><path fill="rgb(137,161,250)" stroke="rgb(137,161,250)" stroke-width="1" opacity="1" d="M 828.5 462 L 829 464.5 L 828 464.5 L 828.5 462 Z " /><path fill="rgb(137,161,250)" stroke="rgb(137,161,250)" stroke-width="1" opacity="1" d="M 985.5 463 L 986 466.5 L 985 466.5 L 985.5 463 Z " /><path fill="rgb(137,161,250)" stroke="rgb(137,161,250)" stroke-width="1" opacity="1" d="M 816.5 464 L 817 466.5 L 816 466.5 L 816.5 464 Z " /><path fill="rgb(137,161,250)" stroke="rgb(137,161,250)" stroke-width="1" opacity="1" d="M 822.5 464 L 823 466.5 L 822 466.5 L 822.5 464 Z " /><path fill="rgb(137,161,250)" stroke="rgb(137,161,250)" stroke-width="1" opacity="1" d="M 588.5 466 L 589 499.5 L 588 499.5 L 588.5 466 Z " /><path fill="rgb(137,161,250)" stroke="rgb(137,161,250)" stroke-width="1" opacity="1" d="M 722.5 466 L 723 499.5 L 722 499.5 L 722.5 466 Z " /><path fill="rgb(137,161,250)" stroke="rgb(137,161,250)" stroke-width="1" opacity="1" d="M 810.5 466 L 811 468.5 L 810 468.5 L 810.5 466 Z " /><path fill="rgb(137,161,250)" stroke="rgb(137,161,250)" stroke-width="1" opacity="1" d="M 525.5 468 L 526 557.5 L 524.5 559 L 488.5 559 L 488.5 558 L 525 558 L 525.5 468 Z " /><path fill="rgb(137,161,250)" stroke="rgb(137,161,250)" stroke-width="1" opacity="1" d="M 915.5 471 L 914.5 473 L 915.5 471 Z " /><path fill="rgb(137,161,250)" stroke="rgb(137,161,250)" stroke-width="1" opacity="1" d="M 191.5 482 L 376 482.5 L 191.5 483 L 191.5 482 Z " /><path fill="rgb(137,161,250)" stroke="rgb(137,161,250)" stroke-width="1" opacity="1" d="M 839.5 493 L 840.5 495 L 839.5 493 Z " /><path fill="rgb(137,161,250)" stroke="rgb(137,161,250)" stroke-width="1" opacity="1" d="M 955.5 494 L 954.5 496 L 955.5 494 Z " /><path fill="rgb(137,161,250)" stroke="rgb(137,161,250)" stroke-width="1" opacity="1" d="M 842.5 497 L 843.5 499 L 842.5 497 Z " /><path fill="rgb(137,161,250)" stroke="rgb(137,161,250)" stroke-width="1" opacity="1" d="M 952.5 498 L 950.5 501 L 952.5 498 Z " /><path fill="rgb(137,161,250)" stroke="rgb(137,161,250)" stroke-width="1" opacity="1" d="M 967.5 498 L 966.5 500 L 967.5 498 Z " /><path fill="rgb(137,161,250)" stroke="rgb(137,161,250)" stroke-width="1" opacity="1" d="M 959.5 499 L 958.5 501 L 959.5 499 Z " /><path fill="rgb(137,161,250)" stroke="rgb(137,161,250)" stroke-width="1" opacity="1" d="M 675.5 500 L 676 557.5 L 674.5 559 L 638.5 559 L 638.5 558 L 675 558 L 675.5 500 Z " /><path fill="rgb(137,161,250)" stroke="rgb(137,161,250)" stroke-width="1" opacity="1" d="M 829.5 500 L 830.5 502 L 829.5 500 Z " /><path fill="rgb(137,161,250)" stroke="rgb(137,161,250)" stroke-width="1" opacity="1" d="M 965.5 501 L 964.5 503 L 965.5 501 Z " /><path fill="rgb(137,161,250)" stroke="rgb(137,161,250)" stroke-width="1" opacity="1" d="M 838.5 502 L 839.5 504 L 838.5 502 Z " /><path fill="rgb(137,161,250)" stroke="rgb(137,161,250)" stroke-width="1" opacity="1" d="M 955.5 504 L 953.5 507 L 955.5 504 Z " /><path fill="rgb(137,161,250)" stroke="rgb(137,161,250)" stroke-width="1" opacity="1" d="M 389.5 505 L 390 515.5 L 389 515.5 L 389.5 505 Z " /><path fill="rgb(137,161,250)" stroke="rgb(137,161,250)" stroke-width="1" opacity="1" d="M 962.5 505 L 961.5 507 L 962.5 505 Z " /><path fill="rgb(137,161,250)" stroke="rgb(137,161,250)" stroke-width="1" opacity="1" d="M 969.5 506 L 968.5 508 L 969.5 506 Z " /><path fill="rgb(137,161,250)" stroke="rgb(137,161,250)" stroke-width="1" opacity="1" d="M 943.5 507 L 942.5 509 L 943.5 507 Z " /><path fill="rgb(137,161,250)" stroke="rgb(137,161,250)" stroke-width="1" opacity="1" d="M 828.5 509 L 829.5 511 L 828.5 509 Z " /><path fill="rgb(137,161,250)" stroke="rgb(137,161,250)" stroke-width="1" opacity="1" d="M 854.5 509 L 855.5 511 L 854.5 509 Z " /><path fill="rgb(137,161,250)" stroke="rgb(137,161,250)" stroke-width="1" opacity="1" d="M 837.5 510 L 842.5 516 L 837.5 510 Z " /><path fill="rgb(137,161,250)" stroke="rgb(137,161,250)" stroke-width="1" opacity="1" d="M 949.5 510 L 947.5 513 L 949.5 510 Z " /><path fill="rgb(137,161,250)" stroke="rgb(137,161,250)" stroke-width="1" opacity="1" d="M 966.5 510 L 964.5 513 L 966.5 510 Z " /><path fill="rgb(137,161,250)" stroke="rgb(137,161,250)" stroke-width="1" opacity="1" d="M 938.5 511 L 937.5 513 L 938.5 511 Z " /><path fill="rgb(137,161,250)" stroke="rgb(137,161,250)" stroke-width="1" opacity="1" d="M 441.5 512 L 442 516.5 L 441 516.5 L 441.5 512 Z " /><path fill="rgb(137,161,250)" stroke="rgb(137,161,250)" stroke-width="1" opacity="1" d="M 894.5 512 L 895 525 L 891 524.5 L 894 524 L 894.5 512 Z " /><path fill="rgb(137,161,250)" stroke="rgb(137,161,250)" stroke-width="1" opacity="1" d="M 477.5 515 L 478 519.5 L 477 519.5 L 477.5 515 Z " /><path fill="rgb(137,161,250)" stroke="rgb(137,161,250)" stroke-width="1" opacity="1" d="M 943.5 515 L 942.5 517 L 943.5 515 Z " /><path fill="rgb(137,161,250)" stroke="rgb(137,161,250)" stroke-width="1" opacity="1" d="M 949.5 518 L 948.5 520 L 949.5 518 Z " /><path fill="rgb(137,161,250)" stroke="rgb(137,161,250)" stroke-width="1" opacity="1" d="M 847.5 519 L 848.5 521 L 847.5 519 Z " /><path fill="rgb(137,161,250)" stroke="rgb(137,161,250)" stroke-width="1" opacity="1" d="M 945.5 521 L 944.5 523 L 945.5 521 Z " /><path fill="rgb(137,161,250)" stroke="rgb(137,161,250)" stroke-width="1" opacity="1" d="M 955.5 521 L 954.5 523 L 955.5 521 Z " /><path fill="rgb(137,161,250)" stroke="rgb(137,161,250)" stroke-width="1" opacity="1" d="M 390.5 522 L 391 524.5 L 390 524.5 L 390.5 522 Z " /><path fill="rgb(137,161,250)" stroke="rgb(137,161,250)" stroke-width="1" opacity="1" d="M 842.5 523 L 843.5 525 L 842.5 523 Z " /><path fill="rgb(137,161,250)" stroke="rgb(137,161,250)" stroke-width="1" opacity="1" d="M 909.5 523 L 912 523.5 L 909.5 524 L 909.5 523 Z " /><path fill="rgb(137,161,250)" stroke="rgb(137,161,250)" stroke-width="1" opacity="1" d="M 942.5 523 L 941.5 525 L 942.5 523 Z " /><path fill="rgb(137,161,250)" stroke="rgb(137,161,250)" stroke-width="1" opacity="1" d="M 438.5 524 L 437.5 526 L 438.5 524 Z " /><path fill="rgb(137,161,250)" stroke="rgb(137,161,250)" stroke-width="1" opacity="1" d="M 901.5 524 L 905 524.5 L 901.5 525 L 901.5 524 Z " /><path fill="rgb(137,161,250)" stroke="rgb(137,161,250)" stroke-width="1" opacity="1" d="M 950.5 525 L 949.5 527 L 950.5 525 Z " /><path fill="rgb(137,161,250)" stroke="rgb(137,161,250)" stroke-width="1" opacity="1" d="M 432.5 526 L 435 526.5 L 432.5 527 L 432.5 526 Z " /><path fill="rgb(137,161,250)" stroke="rgb(137,161,250)" stroke-width="1" opacity="1" d="M 846.5 526 L 847.5 528 L 846.5 526 Z " /><path fill="rgb(137,161,250)" stroke="rgb(137,161,250)" stroke-width="1" opacity="1" d="M 849.5 528 L 850.5 530 L 849.5 528 Z " /><path fill="rgb(137,161,250)" stroke="rgb(137,161,250)" stroke-width="1" opacity="1" d="M 882.5 529 L 885 529.5 L 882.5 530 L 882.5 529 Z " /><path fill="rgb(137,161,250)" stroke="rgb(137,161,250)" stroke-width="1" opacity="1" d="M 888.5 530 L 893 530.5 L 888.5 531 L 888.5 530 Z " /><path fill="rgb(137,161,250)" stroke="rgb(137,161,250)" stroke-width="1" opacity="1" d="M 902.5 530 L 907 530.5 L 902.5 531 L 902.5 530 Z " /><path fill="rgb(137,161,250)" stroke="rgb(137,161,250)" stroke-width="1" opacity="1" d="M 888.5 536 L 894 536.5 L 888.5 537 L 888.5 536 Z " /><path fill="rgb(137,161,250)" stroke="rgb(137,161,250)" stroke-width="1" opacity="1" d="M 902.5 536 L 907 536.5 L 902.5 537 L 902.5 536 Z " /><path fill="rgb(137,161,250)" stroke="rgb(137,161,250)" stroke-width="1" opacity="1" d="M 886.5 542 L 890 542.5 L 886.5 543 L 886.5 542 Z " /><path fill="rgb(137,161,250)" stroke="rgb(137,161,250)" stroke-width="1" opacity="1" d="M 905.5 542 L 909 542.5 L 905.5 543 L 905.5 542 Z " /><path fill="rgb(137,161,250)" stroke="rgb(137,161,250)" stroke-width="1" opacity="1" d="M 469.5 544 L 468.5 546 L 469.5 544 Z " /><path fill="rgb(137,161,250)" stroke="rgb(137,161,250)" stroke-width="1" opacity="1" d="M 398.5 545 L 399.5 547 L 398.5 545 Z " /><path fill="rgb(137,161,250)" stroke="rgb(137,161,250)" stroke-width="1" opacity="1" d="M 403.5 550 L 404.5 552 L 403.5 550 Z " /><path fill="rgb(137,161,250)" stroke="rgb(137,161,250)" stroke-width="1" opacity="1" d="M 462.5 551 L 461.5 553 L 462.5 551 Z " /><path fill="rgb(137,161,250)" stroke="rgb(137,161,250)" stroke-width="1" opacity="1" d="M 531.5 558 L 568 558.5 L 531.5 559 L 531.5 558 Z " /><path fill="rgb(137,161,250)" stroke="rgb(137,161,250)" stroke-width="1" opacity="1" d="M 731.5 558 L 768 558.5 L 731.5 559 L 731.5 558 Z " /><path fill="rgb(137,161,250)" stroke="rgb(137,161,250)" stroke-width="1" opacity="1" d="M 426.5 559 L 442 559.5 L 426.5 560 L 426.5 559 Z " /><path fill="rgb(137,161,250)" stroke="rgb(137,161,250)" stroke-width="1" opacity="1" d="M 343.5 590 L 350 590.5 L 343.5 591 L 343.5 590 Z " /><path fill="rgb(137,161,250)" stroke="rgb(137,161,250)" stroke-width="1" opacity="1" d="M 333.5 591 L 336 591.5 L 333.5 592 L 333.5 591 Z " /><path fill="rgb(137,161,250)" stroke="rgb(137,161,250)" stroke-width="1" opacity="1" d="M 357.5 591 L 360 591.5 L 357.5 592 L 357.5 591 Z " /><path fill="rgb(137,161,250)" stroke="rgb(137,161,250)" stroke-width="1" opacity="1" d="M 337.5 598 L 343 598.5 L 337.5 599 L 337.5 598 Z " /><path fill="rgb(137,161,250)" stroke="rgb(137,161,250)" stroke-width="1" opacity="1" d="M 351.5 598 L 356 598.5 L 351.5 599 L 351.5 598 Z " /><path fill="rgb(137,161,250)" stroke="rgb(137,161,250)" stroke-width="1" opacity="1" d="M 360.5 599 L 363 599.5 L 360.5 600 L 360.5 599 Z " /><path fill="rgb(137,161,250)" stroke="rgb(137,161,250)" stroke-width="1" opacity="1" d="M 298.5 604 L 297.5 606 L 298.5 604 Z " /><path fill="rgb(137,161,250)" stroke="rgb(137,161,250)" stroke-width="1" opacity="1" d="M 337.5 605 L 341 605.5 L 337.5 606 L 337.5 605 Z " /><path fill="rgb(137,161,250)" stroke="rgb(137,161,250)" stroke-width="1" opacity="1" d="M 352.5 605 L 357 605.5 L 352.5 606 L 352.5 605 Z " /><path fill="rgb(137,161,250)" stroke="rgb(137,161,250)" stroke-width="1" opacity="1" d="M 295.5 606 L 294.5 608 L 295.5 606 Z " /><path fill="rgb(137,161,250)" stroke="rgb(137,161,250)" stroke-width="1" opacity="1" d="M 400.5 608 L 401.5 610 L 400.5 608 Z " /><path fill="rgb(137,161,250)" stroke="rgb(137,161,250)" stroke-width="1" opacity="1" d="M 291.5 609 L 290.5 611 L 291.5 609 Z " /><path fill="rgb(137,161,250)" stroke="rgb(137,161,250)" stroke-width="1" opacity="1" d="M 301.5 611 L 300.5 613 L 301.5 611 Z " /><path fill="rgb(137,161,250)" stroke="rgb(137,161,250)" stroke-width="1" opacity="1" d="M 342.5 612 L 351 612.5 L 342.5 613 L 342.5 612 Z " /><path fill="rgb(137,161,250)" stroke="rgb(137,161,250)" stroke-width="1" opacity="1" d="M 405.5 612 L 407.5 615 L 405.5 612 Z " /><path fill="rgb(137,161,250)" stroke="rgb(137,161,250)" stroke-width="1" opacity="1" d="M 334.5 613 L 337 613.5 L 334.5 614 L 334.5 613 Z " /><path fill="rgb(137,161,250)" stroke="rgb(137,161,250)" stroke-width="1" opacity="1" d="M 284.5 615 L 281.5 619 L 284.5 615 Z " /><path fill="rgb(137,161,250)" stroke="rgb(137,161,250)" stroke-width="1" opacity="1" d="M 366.5 615 L 367.5 617 L 366.5 615 Z " /><path fill="rgb(137,161,250)" stroke="rgb(137,161,250)" stroke-width="1" opacity="1" d="M 398.5 616 L 399.5 618 L 398.5 616 Z " /><path fill="rgb(137,161,250)" stroke="rgb(137,161,250)" stroke-width="1" opacity="1" d="M 293.5 617 L 291.5 620 L 293.5 617 Z " /><path fill="rgb(137,161,250)" stroke="rgb(137,161,250)" stroke-width="1" opacity="1" d="M 303.5 618 L 302.5 620 L 303.5 618 Z " /><path fill="rgb(137,161,250)" stroke="rgb(137,161,250)" stroke-width="1" opacity="1" d="M 588.5 619 L 589 654 L 668.5 654 L 670 655.5 L 669.5 835 L 669 655 L 589.5 655 L 588 653.5 L 588.5 619 Z " /><path fill="rgb(137,161,250)" stroke="rgb(137,161,250)" stroke-width="1" opacity="1" d="M 709.5 619 L 710 834.5 L 709 834.5 L 709.5 619 Z " /><path fill="rgb(137,161,250)" stroke="rgb(137,161,250)" stroke-width="1" opacity="1" d="M 762.5 619 L 763 701.5 L 762 701.5 L 762.5 619 Z " /><path fill="rgb(137,161,250)" stroke="rgb(137,161,250)" stroke-width="1" opacity="1" d="M 801.5 619 L 802 654 L 855.5 654 L 857 655.5 L 856.5 835 L 856 655 L 802.5 655 L 801 653.5 L 801.5 619 Z " /><path fill="rgb(137,161,250)" stroke="rgb(137,161,250)" stroke-width="1" opacity="1" d="M 896.5 619 L 897 701.5 L 896 701.5 L 896.5 619 Z " /><path fill="rgb(137,161,250)" stroke="rgb(137,161,250)" stroke-width="1" opacity="1" d="M 904.5 619 L 905 701.5 L 904 701.5 L 904.5 619 Z " /><path fill="rgb(137,161,250)" stroke="rgb(137,161,250)" stroke-width="1" opacity="1" d="M 944.5 619 L 945 834.5 L 944 834.5 L 944.5 619 Z " /><path fill="rgb(137,161,250)" stroke="rgb(137,161,250)" stroke-width="1" opacity="1" d="M 950.5 619 L 951 834.5 L 950 834.5 L 950.5 619 Z " /><path fill="rgb(137,161,250)" stroke="rgb(137,161,250)" stroke-width="1" opacity="1" d="M 990.5 619 L 991 834.5 L 990 834.5 L 990.5 619 Z " /><path fill="rgb(137,161,250)" stroke="rgb(137,161,250)" stroke-width="1" opacity="1" d="M 299.5 621 L 298.5 623 L 299.5 621 Z " /><path fill="rgb(137,161,250)" stroke="rgb(137,161,250)" stroke-width="1" opacity="1" d="M 276.5 624 L 275.5 626 L 276.5 624 Z " /><path fill="rgb(137,161,250)" stroke="rgb(137,161,250)" stroke-width="1" opacity="1" d="M 285.5 625 L 283.5 628 L 285.5 625 Z " /><path fill="rgb(137,161,250)" stroke="rgb(137,161,250)" stroke-width="1" opacity="1" d="M 306.5 625 L 305.5 627 L 306.5 625 Z " /><path fill="rgb(137,161,250)" stroke="rgb(137,161,250)" stroke-width="1" opacity="1" d="M 273.5 628 L 272.5 630 L 273.5 628 Z " /><path fill="rgb(137,161,250)" stroke="rgb(137,161,250)" stroke-width="1" opacity="1" d="M 390.5 628 L 392.5 631 L 390.5 628 Z " /><path fill="rgb(137,161,250)" stroke="rgb(137,161,250)" stroke-width="1" opacity="1" d="M 410.5 628 L 411.5 630 L 410.5 628 Z " /><path fill="rgb(137,161,250)" stroke="rgb(137,161,250)" stroke-width="1" opacity="1" d="M 420.5 629 L 421.5 631 L 420.5 629 Z " /><path fill="rgb(137,161,250)" stroke="rgb(137,161,250)" stroke-width="1" opacity="1" d="M 280.5 631 L 279.5 633 L 280.5 631 Z " /><path fill="rgb(137,161,250)" stroke="rgb(137,161,250)" stroke-width="1" opacity="1" d="M 288.5 632 L 287.5 634 L 288.5 632 Z " /><path fill="rgb(137,161,250)" stroke="rgb(137,161,250)" stroke-width="1" opacity="1" d="M 293.5 632 Q 295.8 632.8 295 636.5 L 294 636.5 L 293.5 632 Z " /><path fill="rgb(137,161,250)" stroke="rgb(137,161,250)" stroke-width="1" opacity="1" d="M 413.5 632 L 414.5 634 L 413.5 632 Z " /><path fill="rgb(137,161,250)" stroke="rgb(137,161,250)" stroke-width="1" opacity="1" d="M 422.5 632 L 423.5 634 L 422.5 632 Z " /><path fill="rgb(137,161,250)" stroke="rgb(137,161,250)" stroke-width="1" opacity="1" d="M 397.5 635 L 398.5 637 L 397.5 635 Z " /><path fill="rgb(137,161,250)" stroke="rgb(137,161,250)" stroke-width="1" opacity="1" d="M 415.5 635 L 416.5 637 L 415.5 635 Z " /><path fill="rgb(137,161,250)" stroke="rgb(137,161,250)" stroke-width="1" opacity="1" d="M 292.5 639 L 291.5 641 L 292.5 639 Z " /><path fill="rgb(137,161,250)" stroke="rgb(137,161,250)" stroke-width="1" opacity="1" d="M 401.5 640 L 402.5 642 L 401.5 640 Z " /><path fill="rgb(137,161,250)" stroke="rgb(137,161,250)" stroke-width="1" opacity="1" d="M 403.5 643 L 404.5 645 L 403.5 643 Z " /><path fill="rgb(137,161,250)" stroke="rgb(137,161,250)" stroke-width="1" opacity="1" d="M 411.5 659 L 412 661 L 361 660.5 L 410.5 660 L 411.5 659 Z " /><path fill="rgb(137,161,250)" stroke="rgb(137,161,250)" stroke-width="1" opacity="1" d="M 419.5 660 L 427 661.5 L 420.5 662 L 419.5 660 Z " /><path fill="rgb(137,161,250)" stroke="rgb(137,161,250)" stroke-width="1" opacity="1" d="M 434.5 660 L 435.5 661 L 556 661.5 L 435.5 662 L 434.5 660 Z " /><path fill="rgb(137,161,250)" stroke="rgb(137,161,250)" stroke-width="1" opacity="1" d="M 265.5 664 L 266 666.5 L 265 666.5 L 265.5 664 Z " /><path fill="rgb(137,161,250)" stroke="rgb(137,161,250)" stroke-width="1" opacity="1" d="M 257.5 667 L 258 669.5 L 257 669.5 L 257.5 667 Z " /><path fill="rgb(137,161,250)" stroke="rgb(137,161,250)" stroke-width="1" opacity="1" d="M 264.5 670 L 265 674.5 L 264 674.5 L 264.5 670 Z " /><path fill="rgb(137,161,250)" stroke="rgb(137,161,250)" stroke-width="1" opacity="1" d="M 271.5 670 L 272 673.5 L 271 673.5 L 271.5 670 Z " /><path fill="rgb(137,161,250)" stroke="rgb(137,161,250)" stroke-width="1" opacity="1" d="M 470.5 670 L 471 703.5 L 470 703.5 L 470.5 670 Z " /><path fill="rgb(137,161,250)" stroke="rgb(137,161,250)" stroke-width="1" opacity="1" d="M 479.5 670 L 480 703.5 L 479 703.5 L 479.5 670 Z " /><path fill="rgb(137,161,250)" stroke="rgb(137,161,250)" stroke-width="1" opacity="1" d="M 529.5 670 L 530 703.5 L 529 703.5 L 529.5 670 Z " /><path fill="rgb(137,161,250)" stroke="rgb(137,161,250)" stroke-width="1" opacity="1" d="M 538.5 670 L 539 702.5 L 538 702.5 L 538.5 670 Z " /><path fill="rgb(137,161,250)" stroke="rgb(137,161,250)" stroke-width="1" opacity="1" d="M 388.5 671 L 389 711.5 L 388 711.5 L 388.5 671 Z " /><path fill="rgb(137,161,250)" stroke="rgb(137,161,250)" stroke-width="1" opacity="1" d="M 412.5 671 L 413 697.5 L 412 697.5 L 412.5 671 Z " /><path fill="rgb(137,161,250)" stroke="rgb(137,161,250)" stroke-width="1" opacity="1" d="M 436.5 672 L 437 689.5 L 436 689.5 L 436.5 672 Z " /><path fill="rgb(137,161,250)" stroke="rgb(137,161,250)" stroke-width="1" opacity="1" d="M 256.5 675 L 257 685.5 L 256 685.5 L 256.5 675 Z " /><path fill="rgb(137,161,250)" stroke="rgb(137,161,250)" stroke-width="1" opacity="1" d="M 278.5 675 L 279 686.5 L 278 686.5 L 278.5 675 Z " /><path fill="rgb(137,161,250)" stroke="rgb(137,161,250)" stroke-width="1" opacity="1" d="M 422.5 677 L 423 683.5 L 422 683.5 L 422.5 677 Z " /><path fill="rgb(137,161,250)" stroke="rgb(137,161,250)" stroke-width="1" opacity="1" d="M 264.5 686 L 265 690.5 L 264 690.5 L 264.5 686 Z " /><path fill="rgb(137,161,250)" stroke="rgb(137,161,250)" stroke-width="1" opacity="1" d="M 271.5 687 L 272 690.5 L 271 690.5 L 271.5 687 Z " /><path fill="rgb(137,161,250)" stroke="rgb(137,161,250)" stroke-width="1" opacity="1" d="M 421.5 690 L 422 692.5 L 421 692.5 L 421.5 690 Z " /><path fill="rgb(137,161,250)" stroke="rgb(137,161,250)" stroke-width="1" opacity="1" d="M 428.5 690 L 429 692.5 L 428 692.5 L 428.5 690 Z " /><path fill="rgb(137,161,250)" stroke="rgb(137,161,250)" stroke-width="1" opacity="1" d="M 279.5 691 L 280 693.5 L 279 693.5 L 279.5 691 Z " /><path fill="rgb(137,161,250)" stroke="rgb(137,161,250)" stroke-width="1" opacity="1" d="M 257.5 692 L 258 694.5 L 257 694.5 L 257.5 692 Z " /><path fill="rgb(137,161,250)" stroke="rgb(137,161,250)" stroke-width="1" opacity="1" d="M 435.5 694 L 436 696.5 L 435 696.5 L 435.5 694 Z " /><path fill="rgb(137,161,250)" stroke="rgb(137,161,250)" stroke-width="1" opacity="1" d="M 789.5 702 L 790 739 L 763.5 739 L 763 739.5 L 763 834.5 L 762 834.5 L 762 739.5 L 763.5 738 L 789 738 L 789.5 702 Z " /><path fill="rgb(137,161,250)" stroke="rgb(137,161,250)" stroke-width="1" opacity="1" d="M 340.5 703 L 356 703.5 L 340.5 704 L 340.5 703 Z " /><path fill="rgb(137,161,250)" stroke="rgb(137,161,250)" stroke-width="1" opacity="1" d="M 424.5 708 L 423.5 710 L 424.5 708 Z " /><path fill="rgb(137,161,250)" stroke="rgb(137,161,250)" stroke-width="1" opacity="1" d="M 389.5 714 L 392.5 718 L 389.5 714 Z " /><path fill="rgb(137,161,250)" stroke="rgb(137,161,250)" stroke-width="1" opacity="1" d="M 474.5 714 L 476 714.5 L 472.5 717 L 474.5 714 Z " /><path fill="rgb(137,161,250)" stroke="rgb(137,161,250)" stroke-width="1" opacity="1" d="M 534.5 714 L 536.5 717 L 534.5 714 Z " /><path fill="rgb(137,161,250)" stroke="rgb(137,161,250)" stroke-width="1" opacity="1" d="M 375.5 715 L 373.5 718 L 375.5 715 Z " /><path fill="rgb(137,161,250)" stroke="rgb(137,161,250)" stroke-width="1" opacity="1" d="M 414.5 715 L 413.5 717 L 414.5 715 Z " /><path fill="rgb(137,161,250)" stroke="rgb(137,161,250)" stroke-width="1" opacity="1" d="M 288.5 716 L 289.5 718 L 288.5 716 Z " /><path fill="rgb(137,161,250)" stroke="rgb(137,161,250)" stroke-width="1" opacity="1" d="M 418.5 716 L 419.5 718 L 418.5 716 Z " /><path fill="rgb(137,161,250)" stroke="rgb(137,161,250)" stroke-width="1" opacity="1" d="M 531.5 716 L 530.5 718 L 531.5 716 Z " /><path fill="rgb(137,161,250)" stroke="rgb(137,161,250)" stroke-width="1" opacity="1" d="M 449.5 717 L 450.5 719 L 449.5 717 Z " /><path fill="rgb(137,161,250)" stroke="rgb(137,161,250)" stroke-width="1" opacity="1" d="M 403.5 718 L 402.5 720 L 403.5 718 Z " /><path fill="rgb(137,161,250)" stroke="rgb(137,161,250)" stroke-width="1" opacity="1" d="M 290.5 719 L 291.5 721 L 290.5 719 Z " /><path fill="rgb(137,161,250)" stroke="rgb(137,161,250)" stroke-width="1" opacity="1" d="M 556.5 719 L 556 720.5 L 555.5 835 L 555 720.5 L 556.5 719 Z " /><path fill="rgb(137,161,250)" stroke="rgb(137,161,250)" stroke-width="1" opacity="1" d="M 544.5 720 L 547 721.5 L 546.5 826 L 546 721 L 544.5 720 Z " /><path fill="rgb(137,161,250)" stroke="rgb(137,161,250)" stroke-width="1" opacity="1" d="M 293.5 723 L 294.5 725 L 293.5 723 Z " /><path fill="rgb(137,161,250)" stroke="rgb(137,161,250)" stroke-width="1" opacity="1" d="M 382.5 723 L 380.5 726 L 382.5 723 Z " /><path fill="rgb(137,161,250)" stroke="rgb(137,161,250)" stroke-width="1" opacity="1" d="M 384.5 723 L 387.5 727 L 384.5 723 Z " /><path fill="rgb(137,161,250)" stroke="rgb(137,161,250)" stroke-width="1" opacity="1" d="M 276.5 724 L 277.5 726 L 276.5 724 Z " /><path fill="rgb(137,161,250)" stroke="rgb(137,161,250)" stroke-width="1" opacity="1" d="M 408.5 724 L 407.5 726 L 408.5 724 Z " /><path fill="rgb(137,161,250)" stroke="rgb(137,161,250)" stroke-width="1" opacity="1" d="M 285.5 725 L 286.5 727 L 285.5 725 Z " /><path fill="rgb(137,161,250)" stroke="rgb(137,161,250)" stroke-width="1" opacity="1" d="M 415.5 726 L 414.5 728 L 415.5 726 Z " /><path fill="rgb(137,161,250)" stroke="rgb(137,161,250)" stroke-width="1" opacity="1" d="M 269.5 727 L 270.5 729 L 269.5 727 Z " /><path fill="rgb(137,161,250)" stroke="rgb(137,161,250)" stroke-width="1" opacity="1" d="M 278.5 727 L 279.5 729 L 278.5 727 Z " /><path fill="rgb(137,161,250)" stroke="rgb(137,161,250)" stroke-width="1" opacity="1" d="M 389.5 727 L 392 728.5 L 390.5 729 L 389.5 727 Z " /><path fill="rgb(137,161,250)" stroke="rgb(137,161,250)" stroke-width="1" opacity="1" d="M 374.5 728 L 376 728.5 L 371.5 730 L 371.5 729 L 374.5 728 Z " /><path fill="rgb(137,161,250)" stroke="rgb(137,161,250)" stroke-width="1" opacity="1" d="M 405.5 728 L 403.5 731 L 405.5 728 Z " /><path fill="rgb(137,161,250)" stroke="rgb(137,161,250)" stroke-width="1" opacity="1" d="M 422.5 729 L 421.5 731 L 422.5 729 Z " /><path fill="rgb(137,161,250)" stroke="rgb(137,161,250)" stroke-width="1" opacity="1" d="M 358.5 730 L 359 747.5 L 358 747.5 L 358.5 730 Z " /><path fill="rgb(137,161,250)" stroke="rgb(137,161,250)" stroke-width="1" opacity="1" d="M 369.5 730 L 369 731.5 L 368.5 745 L 368 731.5 L 369.5 730 Z " /><path fill="rgb(137,161,250)" stroke="rgb(137,161,250)" stroke-width="1" opacity="1" d="M 290.5 731 L 296.5 738 L 290.5 731 Z " /><path fill="rgb(137,161,250)" stroke="rgb(137,161,250)" stroke-width="1" opacity="1" d="M 302.5 732 L 303.5 734 L 302.5 732 Z " /><path fill="rgb(137,161,250)" stroke="rgb(137,161,250)" stroke-width="1" opacity="1" d="M 420.5 732 L 419.5 734 L 420.5 732 Z " /><path fill="rgb(137,161,250)" stroke="rgb(137,161,250)" stroke-width="1" opacity="1" d="M 408.5 735 L 401.5 743 L 408.5 735 Z " /><path fill="rgb(137,161,250)" stroke="rgb(137,161,250)" stroke-width="1" opacity="1" d="M 417.5 736 L 416.5 738 L 417.5 736 Z " /><path fill="rgb(137,161,250)" stroke="rgb(137,161,250)" stroke-width="1" opacity="1" d="M 395.5 738 L 394.5 740 L 395.5 738 Z " /><path fill="rgb(137,161,250)" stroke="rgb(137,161,250)" stroke-width="1" opacity="1" d="M 897.5 738 Q 903.5 736.5 905 739.5 L 904.5 835 L 904 739 L 897.5 739 L 897 739.5 L 897 834.5 L 896 834.5 L 896 739.5 L 897.5 738 Z " /><path fill="rgb(137,161,250)" stroke="rgb(137,161,250)" stroke-width="1" opacity="1" d="M 391.5 741 L 390.5 743 L 391.5 741 Z " /><path fill="rgb(137,161,250)" stroke="rgb(137,161,250)" stroke-width="1" opacity="1" d="M 538.5 746 L 539 810 L 458 809.5 L 538 809 L 538.5 746 Z " /><path fill="rgb(137,161,250)" stroke="rgb(137,161,250)" stroke-width="1" opacity="1" d="M 337.5 748 L 342 748.5 L 337.5 749 L 337.5 748 Z " /><path fill="rgb(137,161,250)" stroke="rgb(137,161,250)" stroke-width="1" opacity="1" d="M 352.5 748 L 356 748.5 L 352.5 749 L 352.5 748 Z " /><path fill="rgb(137,161,250)" stroke="rgb(137,161,250)" stroke-width="1" opacity="1" d="M 380.5 748 L 382 748.5 L 382 755.5 L 381 755.5 Q 381.5 749.5 380.5 748 Z " /><path fill="rgb(137,161,250)" stroke="rgb(137,161,250)" stroke-width="1" opacity="1" d="M 373.5 752 L 375 758.5 L 373 759 L 373.5 752 Z " /><path fill="rgb(137,161,250)" stroke="rgb(137,161,250)" stroke-width="1" opacity="1" d="M 399.5 754 L 441 754.5 L 399.5 755 L 399.5 754 Z " /><path fill="rgb(137,161,250)" stroke="rgb(137,161,250)" stroke-width="1" opacity="1" d="M 467.5 754 L 528.5 754 L 530 755.5 L 530 801 L 467.5 801 L 466 799.5 L 466 755.5 L 467.5 754 Z M 467 755 L 467 800 L 529 800 L 529 755 L 467 755 Z " /><path fill="rgb(137,161,250)" stroke="rgb(137,161,250)" stroke-width="1" opacity="1" d="M 357.5 755 L 360 755.5 L 357.5 756 L 357.5 755 Z " /><path fill="rgb(137,161,250)" stroke="rgb(137,161,250)" stroke-width="1" opacity="1" d="M 342.5 756 L 352 756.5 L 342.5 757 L 342.5 756 Z " /><path fill="rgb(137,161,250)" stroke="rgb(137,161,250)" stroke-width="1" opacity="1" d="M 390.5 760 L 391 825.5 L 390 825.5 L 390.5 760 Z " /><path fill="rgb(137,161,250)" stroke="rgb(137,161,250)" stroke-width="1" opacity="1" d="M 334.5 762 L 337 762.5 L 334.5 763 L 334.5 762 Z " /><path fill="rgb(137,161,250)" stroke="rgb(137,161,250)" stroke-width="1" opacity="1" d="M 357.5 762 L 360 762.5 L 357.5 763 L 357.5 762 Z " /><path fill="rgb(137,161,250)" stroke="rgb(137,161,250)" stroke-width="1" opacity="1" d="M 344.5 763 L 350 763.5 L 344.5 764 L 344.5 763 Z " /><path fill="rgb(137,161,250)" stroke="rgb(137,161,250)" stroke-width="1" opacity="1" d="M 381.5 764 L 382 825.5 L 381 825.5 L 381.5 764 Z " /><path fill="rgb(137,161,250)" stroke="rgb(137,161,250)" stroke-width="1" opacity="1" d="M 374.5 766 L 374 767.5 L 373.5 826 L 373 767.5 L 374.5 766 Z " /><path fill="rgb(137,161,250)" stroke="rgb(137,161,250)" stroke-width="1" opacity="1" d="M 285.5 767 L 275.5 778 L 285.5 767 Z " /><path fill="rgb(137,161,250)" stroke="rgb(137,161,250)" stroke-width="1" opacity="1" d="M 330.5 769 L 333 769.5 L 330.5 770 L 330.5 769 Z " /><path fill="rgb(137,161,250)" stroke="rgb(137,161,250)" stroke-width="1" opacity="1" d="M 337.5 770 L 343 770.5 L 337.5 771 L 337.5 770 Z " /><path fill="rgb(137,161,250)" stroke="rgb(137,161,250)" stroke-width="1" opacity="1" d="M 350.5 770 L 356 770.5 L 350.5 771 L 350.5 770 Z " /><path fill="rgb(137,161,250)" stroke="rgb(137,161,250)" stroke-width="1" opacity="1" d="M 273.5 779 L 220.5 833 L 273.5 779 Z " /><path fill="rgb(137,161,250)" stroke="rgb(137,161,250)" stroke-width="1" opacity="1" d="M 198.5 816 L 199 820.5 L 198 820.5 L 198.5 816 Z " /><path fill="rgb(137,161,250)" stroke="rgb(137,161,250)" stroke-width="1" opacity="1" d="M 195.5 830 L 197.5 833 L 195.5 830 Z " /><path fill="rgb(137,161,250)" stroke="rgb(137,161,250)" stroke-width="1" opacity="1" d="M 206.5 836 L 212 836.5 L 206.5 837 L 206.5 836 Z " /></svg>